<svg width="30" height="32" viewBox="0 0 30 32" fill="none" xmlns="http://www.w3.org/2000/svg">
<path d="M9.24251 16C9.24251 14.8954 8.41489 14 7.39396 14C6.37303 14 5.54541 14.8954 5.54541 16C5.54541 17.1046 6.37303 18 7.39396 18C8.41489 18 9.24251 17.1046 9.24251 16Z" fill="#545454"/>
<path d="M16.637 16C16.637 14.8954 15.8094 14 14.7885 14C13.7676 14 12.9399 14.8954 12.9399 16C12.9399 17.1046 13.7676 18 14.7885 18C15.8094 18 16.637 17.1046 16.637 16Z" fill="#545454"/>
<path d="M24.0311 16C24.0311 14.8954 23.2035 14 22.1825 14C21.1616 14 20.334 14.8954 20.334 16C20.334 17.1046 21.1616 18 22.1825 18C23.2035 18 24.0311 17.1046 24.0311 16Z" fill="#545454"/>
</svg>
