<svg width="17" height="18" viewBox="0 0 17 18" fill="none" xmlns="http://www.w3.org/2000/svg">
<path d="M5.90089 14.1605L1.64507 15.5792C1.32772 15.685 1 15.4487 1 15.1142V3.07836C1 2.86741 1.13499 2.68012 1.33511 2.61342L5.90089 1.09149M5.90089 14.1605L10.1567 15.5792C10.4741 15.685 10.8018 15.4487 10.8018 15.1142V3.07836C10.8018 2.86741 10.6668 2.68012 10.4666 2.61342L5.90089 1.09149M5.90089 14.1605V1.09149" stroke="#00A54E" stroke-width="1.3" stroke-linecap="round" stroke-linejoin="round"/>
<path d="M10.8013 2.72605L15.0571 1.30745C15.3745 1.20166 15.7022 1.43787 15.7022 1.77239V10.8942" stroke="#00A54E" stroke-width="1.3" stroke-linecap="round" stroke-linejoin="round"/>
<path d="M12.5342 16.9086L14.267 15.1758M14.267 15.1758L15.9997 13.4431M14.267 15.1758L12.5342 13.4431M14.267 15.1758L15.9997 16.9086" stroke="#00A54E" stroke-width="1.3" stroke-linecap="round" stroke-linejoin="round"/>
</svg>
