<svg width="17" height="16" viewBox="0 0 17 16" fill="none" xmlns="http://www.w3.org/2000/svg">
<path d="M14.5 3.91663H2.5C1.67157 3.91663 1 4.5882 1 5.41663V12.9166C1 13.7451 1.67157 14.4166 2.5 14.4166H14.5C15.3284 14.4166 16 13.7451 16 12.9166V5.41663C16 4.5882 15.3284 3.91663 14.5 3.91663Z" stroke="#00A54E" stroke-width="1.45" stroke-linecap="round" stroke-linejoin="round"/>
<path d="M11.5 14.4166V2.41663C11.5 2.0188 11.342 1.63727 11.0607 1.35597C10.7794 1.07466 10.3978 0.916626 10 0.916626H7C6.60218 0.916626 6.22064 1.07466 5.93934 1.35597C5.65804 1.63727 5.5 2.0188 5.5 2.41663V14.4166" stroke="#00A54E" stroke-width="1.45" stroke-linecap="round" stroke-linejoin="round"/>
</svg>
