<svg width="1253" height="270" viewBox="0 0 1253 270" fill="none" xmlns="http://www.w3.org/2000/svg">
<path d="M119.278 5.78613C119.278 11.6878 118.352 12.845 113.141 12.845C111.056 12.845 105.498 14.3494 89.0533 19.4411C87.6637 19.7882 86.274 18.5153 84.4212 15.2752C82.9157 12.6136 81.4103 10.6464 81.0629 10.7621C76.7781 12.4979 54.4279 26.2685 54.4279 27.0786C54.4279 27.6572 55.4701 29.8559 56.744 32.0545L59.1759 35.8733L47.3639 47.4453L35.6677 59.133L31.1513 56.5871C28.7194 55.1985 26.4033 54.2728 26.1717 54.6199C25.3611 55.4299 10.4224 81.004 10.4224 81.5826C10.4224 81.8141 12.5068 83.3184 15.0545 84.7071C18.297 86.5586 19.5709 87.9472 19.1077 89.2202C17.4864 93.2704 12.9701 109.818 12.1594 114.331L11.3488 119.307H5.6744H0V135.508V151.709H5.6744H11.4646L12.7384 158.305C13.4333 162.008 15.2861 168.951 16.9074 173.811C18.4128 178.672 19.6867 182.953 19.6867 183.185C19.6867 183.532 18.1812 184.458 16.2126 185.268C9.95915 187.813 10.075 188.508 18.0654 202.626C22.2344 209.916 25.8243 216.049 26.0559 216.281C26.2875 216.512 28.4878 215.471 30.9197 214.082L35.436 211.536L47.1323 222.992L58.7127 234.564L56.5124 238.846C55.3543 241.276 54.6595 243.59 54.8911 244.169C55.7018 245.442 79.5574 259.328 80.947 259.328C81.5261 259.328 83.1473 257.477 84.537 255.278C85.9266 253.08 87.6637 251.228 88.4743 251.228C89.2849 251.228 92.9907 252.269 96.8122 253.542C100.634 254.815 107.119 256.551 111.172 257.477L118.699 258.981L119.047 264.304L119.394 269.743H135.607H151.703V263.957C151.703 258.75 151.935 258.171 154.367 258.171C155.756 258.171 161.662 256.783 167.337 255.162C183.665 250.418 183.202 250.418 185.75 255.162C187.024 257.477 188.413 259.328 188.992 259.328C189.571 259.328 195.94 255.857 203.352 251.691L216.669 244.053L213.89 239.425L211.111 234.68L222.807 223.224L234.387 211.652L238.556 213.735C240.757 214.892 242.957 216.049 243.304 216.281C243.999 216.628 259.401 190.822 259.401 189.202C259.401 188.624 257.317 187.003 254.885 185.615L250.253 182.953L253.032 175.084C254.537 170.687 256.39 163.744 257.201 159.462L258.59 151.709H264.265H269.823V135.508V119.307H264.149H258.475L257.664 113.406C256.969 108.198 253.032 94.4276 250.832 88.9887C250.253 87.7158 250.6 86.9058 252.105 86.4429C253.264 85.98 255.464 84.7071 256.969 83.5499L259.749 81.4669L253.148 69.8949C243.536 52.7684 244.462 53.6942 239.02 56.7029L234.387 59.2487L222.807 47.6767L211.111 35.989L213.89 31.4759C215.859 28.0043 216.206 26.7314 215.048 25.9214C212.732 24.1856 189.224 10.5306 188.529 10.5306C188.182 10.5306 187.255 12.035 186.445 14.0022C184.013 19.7882 182.623 20.2511 175.791 17.7053C170.464 15.738 165.021 14.3494 154.367 12.1507C152.282 11.8036 151.819 10.7621 151.472 6.13327L151.124 0.694458L135.259 0.34729L119.278 0.00012207V5.78613ZM160.041 35.989C195.477 44.7837 223.849 72.5565 234.156 108.314C236.356 116.183 236.819 120.349 236.819 135.508C236.819 152.056 236.472 154.255 233.461 163.859C227.439 182.953 218.87 196.955 205.668 209.222C195.94 218.364 189.571 222.645 177.991 228.084C162.473 235.259 154.714 236.763 134.912 236.763C114.414 236.763 106.887 235.143 90.6746 227.39C26.4033 196.608 12.6226 111.438 63.9238 61.9103C89.5165 37.0305 125.416 27.4257 160.041 35.989Z" fill="black"/>
<path d="M106.308 52.8833C96.6967 55.3134 89.5168 61.2151 86.0427 69.5469C85.4637 71.167 84.7689 75.7958 84.6531 79.9617C84.5373 86.442 85.0005 88.2936 87.8956 93.2695C92.5277 101.254 101.676 110.049 112.214 116.761L121.131 122.431L125.995 120.001C131.554 117.339 131.901 116.066 128.543 108.313C127.269 105.304 126.227 102.296 126.227 101.601C126.343 100.791 128.427 97.8983 130.859 95.0053C135.259 90.0294 135.491 89.9136 137.112 92.1123C138.039 93.3852 140.007 95.8153 141.744 97.6669L144.64 100.791L142.555 105.767C141.397 108.545 140.123 112.248 139.66 114.099C138.965 117.224 139.428 117.802 143.713 120.117L148.577 122.778L154.483 119.191C169.19 110.049 179.149 100.56 183.318 91.3023C185.75 85.9792 185.866 74.2914 183.434 68.6212C177.991 55.5448 162.589 49.1802 146.492 53.4619C143.945 54.1562 140.471 55.7763 138.734 57.0492L135.491 59.2479L130.511 56.3549C124.026 52.5361 113.488 51.0318 106.308 52.8833Z" fill="#01A54F"/>
<path d="M70.0613 115.72C60.5653 118.15 53.5013 123.705 50.2588 131.458C48.1743 136.55 47.132 149.047 48.7533 150.089C49.3323 150.436 49.7955 151.593 49.7955 152.751C49.7955 156.338 58.8283 167.563 64.0394 170.456C67.861 172.654 68.9032 173.812 68.6716 176.01C68.3242 180.292 70.7561 189.897 73.3038 194.525C78.2833 203.552 85.4632 208.759 95.3065 210.148C102.95 211.305 110.129 209.106 116.499 203.436C125.3 195.683 129.121 184.805 130.279 164.207L130.858 153.329L126.226 150.32L121.594 147.196L115.572 154.023L109.435 160.735L103.413 159.462C100.17 158.652 97.1594 157.842 96.9278 157.495C96.5804 157.148 97.2752 154.023 98.4333 150.552C100.518 144.419 100.749 144.187 105.613 143.261C117.541 140.947 117.194 141.294 117.541 135.277L118.004 129.722L107.35 124.515C92.5272 117.225 77.7043 113.753 70.0613 115.72Z" fill="#01A54F"/>
<path d="M188.761 115.834C185.171 116.297 179.497 117.57 176.023 118.727C169.19 120.926 154.367 128.216 153.441 129.721C153.094 130.299 152.63 132.845 152.399 135.507C151.935 141.177 153.441 142.334 162.126 142.913C168.611 143.376 171.391 145.111 171.391 148.467C171.391 149.624 172.201 152.17 173.128 154.022C174.865 157.378 174.865 157.493 171.738 158.188C169.885 158.535 166.99 159.345 165.137 159.924C160.968 161.196 160.042 160.618 154.136 153.096C151.472 149.856 148.925 147.079 148.346 147.079C147.882 147.079 146.493 148.12 145.335 149.393C144.177 150.666 142.555 151.707 141.629 151.707C140.818 151.707 140.123 152.055 140.008 152.517C138.502 164.205 140.934 182.257 145.566 192.557C152.167 207.253 167.106 214.08 180.887 208.873C192.004 204.591 200.573 192.094 200.805 180.175C200.921 173.578 201.152 173.231 204.974 171.033C210.996 167.792 215.28 163.395 218.639 156.915C221.186 152.17 221.765 149.509 221.765 142.218C221.765 134.234 221.418 132.961 218.291 128.332C214.47 123.009 205.09 115.95 201.731 115.95C200.689 116.066 198.72 115.834 197.446 115.487C196.173 115.14 192.235 115.371 188.761 115.834Z" fill="#01A54F"/>
<path d="M130.858 127.756C124.489 130.996 125.3 140.022 132.364 143.378C134.912 144.651 135.954 144.535 138.849 143.147C144.755 140.022 145.566 133.31 140.586 128.797C137.344 125.904 135.027 125.673 130.858 127.756Z" fill="#01A54F"/>
<path d="M587.822 19.3252C585.737 21.4081 585.39 25.574 587.242 25.574C588.053 25.574 589.211 24.6483 590.022 23.6068C591.411 21.7553 591.643 21.7553 594.422 23.6068C599.518 26.9627 604.497 25.574 604.497 20.7138C604.497 18.168 602.297 18.0522 600.56 20.4824C599.286 22.2182 598.823 22.1024 595.117 19.9038C590.369 17.0108 590.138 17.0108 587.822 19.3252Z" fill="black"/>
<path d="M552.964 30.0866C540.921 32.9796 533.973 44.5516 537.215 56.4708C538.721 62.0253 546.132 69.3157 551.227 70.3571C553.543 70.82 554.701 71.7458 554.701 73.1344C554.701 74.4073 555.744 75.3331 557.249 75.5645C558.755 75.796 560.028 76.8375 560.26 78.1104C560.723 80.0776 560.26 80.1933 556.554 79.6147C551.922 78.9204 550.069 80.4248 553.428 82.1606C556.439 83.8964 561.997 83.7806 563.734 82.0449C566.282 79.499 565.355 75.6803 561.65 74.1759C557.365 72.4401 557.944 71.1672 563.734 70.3571C566.05 69.8943 568.945 68.9685 570.103 68.1585C571.84 66.8855 571.956 66.3069 570.682 64.5711C569.409 62.8354 568.598 62.7196 565.934 63.6454C561.302 65.3812 554.007 65.2655 550.185 63.1825C546.595 61.331 543.121 55.1978 543.121 50.569C543.121 45.9403 545.9 40.1543 549.259 37.9556C551.227 36.6827 554.586 35.9883 558.639 35.9883C564.313 35.9883 565.008 36.2198 565.355 38.5342C565.587 40.1543 566.629 41.3115 568.135 41.5429C570.103 41.7743 570.798 41.08 571.377 38.187C572.304 33.4425 571.84 32.8639 564.892 30.7809C558.407 28.9294 558.06 28.9294 552.964 30.0866Z" fill="black"/>
<path d="M631.827 30.6655C614.688 37.0301 612.836 60.7527 628.932 68.9688C637.386 73.3662 650.703 69.6631 655.799 61.447C659.62 55.3138 659.389 44.8991 655.22 38.6502C650.24 31.1284 640.165 27.6568 631.827 30.6655ZM647.461 39.2288C654.178 45.2462 653.135 58.3226 645.608 63.2985C640.86 66.423 631.364 64.9186 628.006 60.7527C622.679 54.1567 623.49 43.1633 629.627 38.4187C634.259 34.7157 642.829 35.0629 647.461 39.2288Z" fill="black"/>
<path d="M321.935 32.4007C321.935 33.6736 322.978 35.0623 324.251 35.4094C326.452 36.1037 326.567 37.1452 326.567 53.4617V70.704H329.463C332.242 70.704 332.358 70.4725 332.358 63.1822V55.6604H341.622C350.771 55.6604 350.886 55.6604 350.886 52.7674C350.886 49.8744 350.771 49.8744 341.622 49.8744H332.358V42.9312V35.988H340.464C346.717 35.988 348.802 36.4509 349.265 37.7238C349.728 38.6496 351.002 39.4596 352.16 39.4596C353.897 39.4596 354.36 38.6496 354.36 34.8308V30.202H338.148C322.862 30.202 321.935 30.3177 321.935 32.4007Z" fill="black"/>
<path d="M358.993 32.4007C358.993 33.5579 360.035 34.8308 361.193 35.178C363.162 35.6409 363.509 37.0295 363.856 49.2958L364.204 62.835L368.489 66.7695C372.31 70.1254 373.7 70.704 378.679 70.704C391.881 70.704 394.892 65.8437 394.892 44.7827V30.202H392.113H389.333L388.87 45.3613C388.523 59.5949 388.407 60.6363 385.743 62.7193C384.238 63.8765 381.343 64.918 379.258 64.918C377.174 64.918 374.279 63.8765 372.773 62.7193C370.11 60.6363 369.994 59.5949 369.647 45.3613L369.183 30.202H364.088C359.919 30.202 358.993 30.5492 358.993 32.4007Z" fill="black"/>
<path d="M401.84 31.9394C401.84 32.8651 402.882 34.1381 404.156 34.8324C406.241 35.9896 406.472 37.4939 406.704 53.1161L407.051 70.1269L410.178 70.4741L413.305 70.8213L413.652 56.472L414 42.1227L425.001 56.3563C434.265 68.5069 436.466 70.7055 439.245 70.7055H442.372V50.4546V30.2036H438.898H435.539L435.192 44.3214L434.844 58.4392L423.843 44.3214L412.957 30.2036H407.399C403.346 30.2036 401.84 30.6665 401.84 31.9394Z" fill="black"/>
<path d="M451.636 32.2858C451.636 33.6744 452.678 34.9473 453.952 35.4102C456.037 36.1045 456.268 37.3774 456.5 53.1153L456.847 70.1262H468.08C477.576 70.1262 479.776 69.779 482.44 67.696C494.599 58.6699 494.599 42.2377 482.44 33.2115C479.776 31.1286 477.229 30.7814 465.417 30.4342C452.215 29.9714 451.636 30.0871 451.636 32.2858ZM479.082 37.956C484.872 41.7748 486.725 50.4538 483.366 57.5127C480.819 62.7201 476.418 64.9188 468.428 64.9188H462.058V50.4538V35.9888H469.007C473.639 35.9888 476.997 36.6831 479.082 37.956Z" fill="black"/>
<path d="M504.906 32.5164C504.906 33.7893 505.485 34.8308 506.064 34.8308C508.149 34.8308 507.338 37.9553 501.432 53.8089C498.305 62.3721 495.642 69.6625 495.642 70.0097C495.642 70.3568 497.147 70.704 498.884 70.704C501.664 70.704 502.358 70.0097 503.748 65.728L505.485 60.8678H514.055H522.624L524.477 65.728C525.983 70.0097 526.677 70.704 529.457 70.704C531.194 70.704 532.699 70.5883 532.699 70.3568C532.699 70.2411 529.341 61.2149 525.288 50.453L517.992 30.7806L511.391 30.4335C505.485 30.0863 504.906 30.3177 504.906 32.5164ZM517.529 45.8242C520.887 55.429 520.887 55.6604 514.402 55.6604C511.275 55.6604 508.496 55.429 508.149 55.0818C507.801 54.7346 508.844 50.5687 510.581 45.8242C512.202 41.0797 513.939 37.6081 514.286 38.071C514.75 38.5339 516.255 42.0054 517.529 45.8242Z" fill="black"/>
<path d="M585.968 32.5166C585.968 33.7895 586.779 34.831 587.705 34.831C588.632 34.831 589.443 35.0624 589.443 35.2939C589.443 35.5253 586.547 43.3943 583.073 52.7676C579.599 62.0252 576.704 69.8941 576.704 70.2413C576.704 70.4727 578.21 70.7042 579.947 70.7042C582.726 70.7042 583.421 70.0098 584.926 65.7282L586.779 60.868H595.349H603.918L605.655 65.7282C607.045 70.0098 607.74 70.7042 610.635 70.7042C614.572 70.7042 614.919 72.5557 605.655 48.1388L599.054 30.7808L592.569 30.4336C586.547 30.0865 585.968 30.3179 585.968 32.5166ZM598.591 45.4772C601.949 55.5449 601.949 55.6606 595.233 55.6606C591.295 55.6606 589.443 55.1977 589.443 54.1562C589.443 51.4947 594.306 38.3026 595.233 38.3026C595.696 38.3026 597.317 41.5427 598.591 45.4772Z" fill="black"/>
<path d="M334.211 112.364C325.409 116.762 321.935 121.853 321.935 130.185C321.935 134.004 322.63 136.202 324.946 138.864C328.884 143.609 330.621 144.534 344.98 149.395C358.066 153.792 361.309 156.338 357.371 159.346C353.897 161.777 340.58 161.429 333.284 158.652C330.042 157.379 327.146 156.453 327.031 156.685C326.799 157.032 321.935 168.141 321.935 168.488C321.935 168.604 325.178 170.224 328.999 171.96C337.337 175.663 351.929 177.052 359.803 174.969C368.604 172.539 375.205 164.785 375.205 156.801C375.205 152.056 370.805 145.344 365.825 142.567C363.393 141.178 356.792 138.517 351.35 136.665C340.232 132.847 338.148 131.574 338.148 128.449C338.148 125.556 341.622 123.936 348.223 123.936C354.824 123.936 356.098 124.63 357.14 128.796C357.835 131.805 358.298 132.037 363.625 132.037C366.751 132.037 369.531 131.689 369.762 131.111C370.11 130.648 370.573 126.945 370.689 122.779L371.152 115.257L364.783 112.711C356.213 109.24 340.811 109.124 334.211 112.364Z" fill="black"/>
<path d="M382.153 115.604C382.153 120.464 382.617 121.505 385.048 122.778L387.944 124.283V149.625V174.852H396.05H404.156V162.702V150.551H415.157H426.159V162.702V174.852H434.265H442.371V142.451V109.933L434.613 110.28L426.738 110.628L426.39 123.588L426.043 136.665H415.157H404.272L403.924 123.588L403.577 110.628L392.923 110.28L382.153 109.933V115.604Z" fill="black"/>
<path d="M453.605 110.86C451.636 112.711 452.91 119.539 455.689 122.316C458.468 125.093 458.584 125.787 458.584 139.442C458.584 157.263 460.321 163.744 466.575 169.414C476.881 178.671 494.715 178.324 504.674 168.72C510.696 162.934 511.854 156.8 511.854 131.805V110.05H503.748H495.641V132.499C495.641 153.329 495.526 155.065 493.21 157.958C491.241 160.503 489.967 160.966 485.219 160.966C480.471 160.966 479.197 160.503 477.229 157.958C474.912 155.065 474.797 153.329 474.797 132.499V110.05H464.606C458.931 110.05 453.952 110.397 453.605 110.86Z" fill="black"/>
<path d="M519.961 115.605C519.961 120.465 520.424 121.507 522.856 122.78L525.751 124.284V149.627V174.854H533.857H541.848L542.195 158.19L542.542 141.411L555.628 158.19L568.83 174.969L575.894 174.622L583.074 174.275V142.452V110.629L575.315 110.282L567.44 109.935V127.409C567.44 136.898 566.977 144.767 566.514 144.767C566.051 144.767 559.45 136.898 552.038 127.409L538.374 110.051H529.225H519.961V115.605Z" fill="black"/>
<path d="M609.94 110.743C609.477 111.206 609.13 113.521 609.13 115.951C609.13 119.538 609.825 120.927 612.604 123.01L616.078 125.555V140.252C616.078 153.328 615.846 155.18 613.646 157.957C611.446 160.734 610.635 160.966 601.95 160.966H592.57L593.38 167.562C593.844 171.149 594.423 174.389 594.77 174.736C595.002 175.084 598.592 175.546 602.529 175.778C615.615 176.588 623.953 172.538 629.164 162.817C631.596 158.42 631.711 156.568 631.711 134.35V110.628L621.289 110.28C615.499 110.165 610.404 110.28 609.94 110.743Z" fill="black"/>
<path d="M640.396 115.835C640.396 120.927 640.743 121.852 643.291 123.01L646.186 124.283V149.625V174.852H653.713H661.241V142.451V110.049H650.818H640.396V115.835Z" fill="black"/>
<path d="M700.615 115.604C700.615 120.464 701.078 121.505 703.51 122.778L706.405 124.283V149.625V174.852H714.511H722.502L722.849 158.073L723.197 141.178L736.282 158.073L749.484 174.852H756.896H764.307L764.075 142.682L763.728 110.628L755.969 110.28L748.094 109.933V127.407C748.094 137.475 747.631 144.765 747.052 144.534C746.473 144.302 739.872 136.549 732.461 127.06L719.028 110.049H709.763H700.615V115.604Z" fill="black"/>
<path d="M775.54 110.859C775.077 111.206 774.729 113.521 774.729 115.951C774.729 119.191 775.424 120.811 777.625 122.547L780.52 124.861V149.857V174.852H788.626H796.732V142.451V110.049H786.542C780.867 110.049 775.888 110.396 775.54 110.859Z" fill="black"/>
<path d="M820.587 112.364C811.207 116.993 807.733 122.547 808.544 131.111C809.47 139.905 815.144 144.65 829.736 148.816C841.548 152.287 845.369 154.139 845.369 156.453C845.369 157.611 844.327 159.115 843.169 159.809C839.463 161.776 827.304 161.198 820.24 158.652C816.65 157.379 813.639 156.453 813.523 156.685C813.407 156.801 812.249 159.462 810.86 162.702L808.428 168.488L815.376 171.844C823.482 175.663 838.074 177.167 846.18 174.969C862.856 170.455 866.909 151.13 852.897 142.914C850.233 141.41 843.401 138.517 837.842 136.665C826.609 132.846 824.525 131.574 824.525 128.449C824.525 125.556 827.999 123.936 834.6 123.936C841.2 123.936 842.474 124.63 843.516 128.796C844.211 131.805 844.675 132.036 850.002 132.036C853.128 132.036 855.908 131.689 856.139 131.111C856.487 130.648 856.834 126.945 857.066 122.779L857.529 115.257L851.16 112.711C842.59 109.24 827.304 109.124 820.587 112.364Z" fill="black"/>
<path d="M869.341 110.859C868.878 111.206 868.53 113.521 868.53 115.951C868.53 119.191 869.225 120.811 871.425 122.547L874.321 124.861V149.857V174.852H882.427H890.533V162.702V150.435L901.882 150.782L913.115 151.13L913.462 162.933L913.81 174.852H921.221H928.748V142.451V110.049H921.221H913.694V123.357V136.665H902.114H890.533V123.357V110.049H880.342C874.668 110.049 869.688 110.396 869.341 110.859Z" fill="black"/>
<path d="M940.33 115.719C940.33 120.464 940.793 121.621 943.225 123.241L946.12 125.093V149.972V174.852H953.647H961.174V142.451V110.049H950.752H940.33V115.719Z" fill="black"/>
<path d="M972.754 115.604C972.754 120.464 973.217 121.505 975.649 122.778L978.544 124.283V149.625V174.852H986.072H993.599V158.651C993.599 149.741 993.946 142.451 994.525 142.451C994.988 142.451 997.652 146.038 1000.43 150.551L1005.53 158.651H1011.78H1017.92L1023.48 150.204L1028.92 141.872L1029.27 158.304L1029.61 174.852H1037.03H1044.55V142.451V109.933L1037.37 110.28L1030.19 110.628L1022.09 123.588C1017.57 130.763 1013.29 137.127 1012.59 137.822C1011.55 138.863 1008.88 135.392 1002.17 124.63L993.136 110.049H982.945H972.754V115.604Z" fill="black"/>
<path d="M1056.13 115.72C1056.13 120.349 1056.6 121.622 1058.91 123.126C1061.69 124.978 1061.69 125.441 1062.15 142.683C1062.5 158.884 1062.73 160.735 1065.28 164.785C1066.79 167.216 1070.15 170.571 1072.69 172.307C1076.98 175.085 1078.37 175.432 1088.09 175.432C1098.05 175.432 1099.1 175.2 1103.73 171.96C1106.51 169.993 1109.75 166.29 1111.26 163.281C1113.8 158.305 1113.92 156.801 1114.03 134.004V110.05H1106.51H1098.98V130.764C1098.98 157.727 1097.82 160.967 1088.09 160.967C1077.9 160.967 1076.98 158.537 1076.98 131.458V110.05H1066.56H1056.13V115.72Z" fill="black"/>
<path d="M1123.3 115.837C1123.3 120.35 1123.76 121.97 1125.62 123.012C1127.82 124.4 1127.93 125.789 1127.93 149.627V174.854H1136.04H1144.14V163.282C1144.14 152.752 1144.38 151.71 1146.34 151.71C1147.73 151.71 1150.05 154.372 1153.29 159.579C1160.59 171.73 1164.53 174.97 1172.63 175.548C1176.45 175.895 1180.04 175.664 1180.74 175.201C1181.43 174.738 1182.48 171.498 1182.94 168.142L1183.75 162.125H1180.04C1175.18 162.125 1172.63 160.62 1169.74 155.876C1166.84 151.363 1166.61 149.396 1169.04 149.396C1169.97 149.396 1172.75 147.428 1175.3 144.998C1185.72 135.046 1183.4 118.73 1170.55 112.481C1165.92 110.282 1163.48 110.051 1144.38 110.051H1123.3V115.837ZM1158.5 123.937C1163.6 125.094 1164.99 126.599 1164.99 131.112C1164.99 135.856 1161.17 137.824 1152.02 137.824H1144.14V130.996C1144.14 126.599 1144.61 123.937 1145.65 123.59C1147.97 122.549 1153.64 122.78 1158.5 123.937Z" fill="black"/>
<path d="M1205.52 115.835C1205.52 119.885 1206.1 121.852 1207.49 122.547C1209.11 123.588 1208.42 126.25 1201.12 147.195C1196.6 160.156 1192.55 171.728 1192.2 172.769C1191.51 174.621 1192.2 174.852 1199.5 174.852H1207.72L1209.23 169.298L1210.85 163.859H1222.31H1233.78L1235.51 169.298L1237.25 174.852H1245.12C1249.41 174.852 1253 174.621 1253 174.274C1253 173.926 1248.02 159.461 1242 142.219C1235.98 124.977 1231 110.628 1231 110.396C1231 110.28 1225.32 110.049 1218.26 110.049H1205.52V115.835ZM1226.36 138.285L1229.61 149.394H1222.77C1218.72 149.394 1215.94 148.931 1215.94 148.121C1215.94 146.038 1222.08 126.25 1222.66 126.713C1222.89 127.06 1224.51 132.152 1226.36 138.285Z" fill="black"/>
<path d="M957.815 211.882C942.993 215.47 937.666 234.563 948.204 245.904C954.226 252.268 964.88 254.236 973.449 250.648C978.313 248.565 978.66 244.631 973.912 245.21C962.1 246.714 960.132 246.714 956.657 244.978C949.246 241.159 947.046 229.009 952.489 222.413C957.931 216.048 971.017 214.544 971.828 220.33C972.059 221.95 973.102 222.991 974.839 223.223C977.155 223.57 977.386 223.107 977.386 219.057C977.386 215.47 976.807 214.312 974.607 213.271C970.554 211.419 962.332 210.725 957.815 211.882Z" fill="black"/>
<path d="M1045.36 212.346C1039.92 214.313 1035.98 217.9 1033.67 222.876C1029.27 232.018 1033.2 244.979 1041.66 249.839C1051.27 255.393 1065.75 251.459 1070.61 241.97C1073.16 236.994 1072.81 226.348 1069.91 221.256C1065.28 212.924 1054.51 208.99 1045.36 212.346ZM1060.77 219.752C1067.71 225.075 1068.06 236.068 1061.34 242.78C1058.22 245.904 1056.6 246.599 1052.77 246.599C1044.09 246.599 1038.76 240.697 1038.76 231.092C1038.76 225.538 1042.58 219.636 1047.33 217.553C1050.69 216.164 1057.29 217.206 1060.77 219.752Z" fill="black"/>
<path d="M1122.95 212.346C1117.16 214.428 1114.61 216.859 1111.72 222.76C1105 236.878 1114.61 252.385 1130.25 252.385C1138.93 252.385 1145.19 248.334 1148.89 240.234C1151.67 234.101 1151.67 228.778 1148.66 222.529C1144.14 213.387 1132.68 208.758 1122.95 212.346ZM1136.15 218.247C1146.11 223.455 1146.81 239.887 1137.2 244.863C1130.25 248.45 1121.33 246.02 1118.09 239.655C1114.38 232.365 1116.81 222.876 1123.65 218.826C1128.16 216.049 1131.52 215.933 1136.15 218.247Z" fill="black"/>
<path d="M1170.08 211.766C1154.34 215.816 1149.36 236.067 1161.52 246.945C1164.06 249.259 1167.88 251.458 1170.2 251.921C1175.99 252.962 1184.1 251.921 1187.57 249.606C1190.23 247.871 1190.47 247.061 1190.47 239.076V230.397H1184.68C1180.39 230.397 1178.89 230.86 1178.89 232.133C1178.89 233.058 1180.16 234.1 1181.78 234.563C1184.21 235.141 1184.68 235.951 1184.68 239.77C1184.68 245.093 1182.59 246.598 1175.3 246.598C1171.24 246.598 1169.85 245.903 1165.92 241.969C1161.4 237.456 1161.28 237.109 1161.75 230.976C1162.09 226.347 1163.02 223.801 1164.99 221.718C1170.66 215.701 1182.82 215.006 1184.21 220.561C1185.02 223.801 1188.61 224.495 1189.77 221.602C1191.28 217.668 1190.47 214.543 1187.57 213.27C1183.63 211.419 1174.37 210.725 1170.08 211.766Z" fill="black"/>
<path d="M758.516 214.082C758.516 215.239 759.559 216.512 760.832 216.859C762.917 217.438 763.149 218.595 763.38 234.564L763.728 251.807L772.413 252.154C778.319 252.385 782.604 251.922 785.962 250.65C801.711 244.632 803.217 222.645 788.51 214.314C784.92 212.231 782.256 211.883 771.371 211.883C759.559 211.883 758.516 212.115 758.516 214.082ZM783.414 218.132C790.941 221.372 794.068 230.514 790.478 239.078C788.278 244.169 783.414 246.599 775.308 246.599H768.939V232.366C768.939 224.497 769.286 217.669 769.749 217.322C771.023 215.934 779.361 216.512 783.414 218.132Z" fill="black"/>
<path d="M803.68 213.734C803.68 214.776 804.723 215.817 805.996 216.164C808.197 216.743 808.313 217.784 808.313 233.869C808.313 248.45 808.544 251.112 810.165 251.69C811.208 252.037 817.345 252.385 823.946 252.385C835.99 252.385 837.264 251.922 837.264 247.64C837.264 247.061 832.052 246.599 825.683 246.599H814.103V240.813V235.142L823.714 234.795C832.284 234.448 833.21 234.217 833.21 232.134C833.21 230.051 832.284 229.819 823.599 229.472L813.987 229.125L814.334 223.107L814.682 217.09L822.441 216.743C829.273 216.396 830.315 216.743 831.473 218.826C833.674 222.876 836.105 221.719 836.105 216.511V211.883H819.893C805.881 211.883 803.68 212.114 803.68 213.734Z" fill="black"/>
<path d="M862.74 217.09C862.74 222.992 865.519 224.38 867.372 219.404C868.299 216.974 869.225 216.511 873.163 216.511H877.795V234.448V252.385H880.69H883.469L883.817 234.679L884.164 217.09L888.564 216.743C892.27 216.396 892.965 216.743 894.007 219.289C895.86 224.38 898.639 223.107 898.639 217.09V211.883H880.69H862.74V217.09Z" fill="black"/>
<path d="M903.272 213.733C903.272 214.774 904.314 215.816 905.588 216.163C907.789 216.742 907.904 217.783 907.904 233.29C907.904 246.019 908.252 250.069 909.526 251.111C910.568 252.036 915.432 252.383 923.654 252.152C935.697 251.805 936.276 251.689 936.624 249.143C936.971 246.713 936.74 246.597 925.97 246.597H914.853V240.811V235.025H924.117C933.265 235.025 933.381 235.025 933.381 232.132C933.381 229.239 933.265 229.239 924.117 229.239H914.853V222.875V216.51H922.843C929.907 216.51 930.949 216.857 931.644 218.825C933.034 223.106 935.697 221.486 935.697 216.51V211.881H919.485C905.472 211.881 903.272 212.113 903.272 213.733Z" fill="black"/>
<path d="M984.334 214.197C984.334 215.701 985.145 216.511 986.65 216.511C988.851 216.511 988.967 217.321 988.967 234.448V252.385H991.862H994.641L994.988 237.688L995.336 223.107L1006.68 237.688C1015.72 249.376 1018.61 252.385 1020.93 252.385H1023.71V232.134V211.883H1020.81H1017.92V225.885C1017.92 233.638 1017.45 239.655 1016.88 239.424C1016.3 239.193 1011.09 232.944 1005.29 225.422L994.641 211.883H989.546C985.145 211.883 984.334 212.23 984.334 214.197Z" fill="black"/>
<path d="M1078.14 214.081C1078.14 215.239 1079.18 216.512 1080.45 216.859C1082.65 217.437 1082.77 218.479 1082.77 234.332C1082.77 253.889 1081.84 252.732 1096.66 252.153C1104.66 251.806 1105.35 251.575 1105.7 249.145C1106.04 246.714 1105.7 246.599 1097.36 246.599H1088.56V229.241V211.883H1083.35C1079.06 211.883 1078.14 212.23 1078.14 214.081Z" fill="black"/>
<path d="M1197.41 213.734C1197.41 214.775 1198.46 215.817 1199.73 216.164C1201.93 216.743 1202.05 217.784 1202.05 234.679V252.5L1205.29 252.153L1208.42 251.806L1208.76 231.786L1209 211.882H1203.2C1198.69 211.882 1197.41 212.23 1197.41 213.734Z" fill="black"/>
<path d="M1225.21 213.618C1225.21 214.428 1226.02 215.701 1227.06 216.28C1228.57 217.09 1228.1 219.289 1223.01 232.828C1219.88 241.391 1216.87 249.26 1216.52 250.302C1215.83 252.037 1216.29 252.385 1219.07 252.385C1221.96 252.385 1222.66 251.69 1224.16 247.409L1226.02 242.548L1234.7 242.201L1243.5 241.854L1245.13 246.83C1246.52 250.88 1247.44 251.922 1249.87 252.153C1251.61 252.385 1253 252.153 1253 251.575C1253 251.112 1250.11 242.78 1246.52 233.291C1242.93 223.686 1239.8 215.007 1239.45 213.85C1238.99 212.23 1237.48 211.883 1232.04 211.883C1226.83 211.883 1225.21 212.23 1225.21 213.618ZM1238.41 227.852L1241.3 236.184H1234.93C1231.46 236.184 1228.68 235.721 1228.68 235.258C1228.68 234.217 1233.31 221.024 1234.12 219.636C1235.05 218.131 1235.4 218.942 1238.41 227.852Z" fill="black"/>
</svg>
