<svg width="17" height="14" viewBox="0 0 17 14" fill="none" xmlns="http://www.w3.org/2000/svg">
<path d="M0.999756 12.7954V12.1136C0.999756 9.4777 3.13658 7.34088 5.77248 7.34088C8.40839 7.34088 10.5452 9.4777 10.5452 12.1136V12.7954" stroke="#00A54E" stroke-width="1.3" stroke-linecap="round"/>
<path d="M9.18188 8.70401C9.18188 6.82124 10.7082 5.29492 12.591 5.29492C14.4737 5.29492 16.0001 6.82124 16.0001 8.70401V9.04492" stroke="#00A54E" stroke-width="1.3" stroke-linecap="round"/>
<path d="M5.77219 7.3412C7.2784 7.3412 8.49947 6.12013 8.49947 4.61393C8.49947 3.1077 7.2784 1.88666 5.77219 1.88666C4.26596 1.88666 3.04492 3.1077 3.04492 4.61393C3.04492 6.12013 4.26596 7.3412 5.77219 7.3412Z" stroke="#00A54E" stroke-width="1.3" stroke-linecap="round" stroke-linejoin="round"/>
<path d="M12.5906 5.29556C13.7203 5.29556 14.6361 4.37978 14.6361 3.25011C14.6361 2.12043 13.7203 1.20465 12.5906 1.20465C11.4609 1.20465 10.5452 2.12043 10.5452 3.25011C10.5452 4.37978 11.4609 5.29556 12.5906 5.29556Z" stroke="#00A54E" stroke-width="1.3" stroke-linecap="round" stroke-linejoin="round"/>
</svg>
