<svg width="23" height="24" viewBox="0 0 23 24" fill="none" xmlns="http://www.w3.org/2000/svg">
<path d="M21.8967 1.15174C21.5468 0.786599 21.1314 0.496948 20.6742 0.29933C20.217 0.101713 19.727 0 19.2322 0C18.7373 0 18.2473 0.101713 17.7901 0.29933C17.3329 0.496948 16.9175 0.786599 16.5676 1.15174L2.39728 15.9379C1.97563 16.3778 1.66897 16.9238 1.50894 17.5238L0.0264531 23.0485C-0.00779922 23.1765 -0.00880606 23.3118 0.0235361 23.4404C0.0558783 23.569 0.120407 23.6863 0.210509 23.7803C0.300611 23.8744 0.413048 23.9417 0.5363 23.9754C0.659551 24.0092 0.789185 24.0081 0.911919 23.9724L6.20555 22.4255C6.78047 22.2576 7.30424 21.938 7.72637 21.4975L21.8967 6.71142C22.6031 5.97409 23 4.97418 23 3.93158C23 2.88898 22.6031 1.88907 21.8967 1.15174V1.15174ZM17.5844 2.21168C18.0215 1.75567 18.6144 1.49954 19.2325 1.49963C19.8506 1.49972 20.4434 1.75604 20.8804 2.21218C21.3174 2.66833 21.5629 3.28694 21.5628 3.93193C21.5627 4.57693 21.3171 5.19547 20.8799 5.65148L19.4042 7.19039L16.1086 3.75059L17.5844 2.21168V2.21168ZM15.0928 4.81153L18.3893 8.25132L6.70961 20.4376C6.46223 20.6958 6.1553 20.8831 5.8184 20.9816L1.75426 22.1685L2.89176 17.9288C2.98628 17.5773 3.1658 17.257 3.41307 16.9988L15.0928 4.81153V4.81153Z" fill="#89C400"/>
</svg>
