<svg width="19" height="20" viewBox="0 0 19 20" fill="none" xmlns="http://www.w3.org/2000/svg">
<path d="M1 4.59998H2.8H17.2" stroke="#EC3137" stroke-width="2" stroke-linecap="round" stroke-linejoin="round"/>
<path d="M15.4 4.6V17.2C15.4 17.6774 15.2104 18.1352 14.8728 18.4728C14.5353 18.8104 14.0774 19 13.6 19H4.60005C4.12266 19 3.66482 18.8104 3.32726 18.4728C2.98969 18.1352 2.80005 17.6774 2.80005 17.2V4.6M5.50005 4.6V2.8C5.50005 2.32261 5.68969 1.86477 6.02726 1.52721C6.36482 1.18964 6.82266 1 7.30005 1H10.9C11.3774 1 11.8353 1.18964 12.1728 1.52721C12.5104 1.86477 12.7 2.32261 12.7 2.8V4.6" stroke="#EC3137" stroke-width="2" stroke-linecap="round" stroke-linejoin="round"/>
<path d="M7.30005 9.09998V14.5" stroke="#EC3137" stroke-width="2" stroke-linecap="round" stroke-linejoin="round"/>
<path d="M10.9 9.09998V14.5" stroke="#EC3137" stroke-width="2" stroke-linecap="round" stroke-linejoin="round"/>
</svg>
