<svg width="18" height="26" viewBox="0 0 18 26" fill="none" xmlns="http://www.w3.org/2000/svg">
<path d="M9 20.892C13.1421 20.892 16.5 17.5342 16.5 13.392C16.5 9.24989 13.1421 5.89203 9 5.89203C4.85786 5.89203 1.5 9.24989 1.5 13.392C1.5 17.5342 4.85786 20.892 9 20.892Z" stroke="#00A54E" stroke-width="1.45" stroke-linecap="round" stroke-linejoin="round"/>
<path d="M8.9996 10.1797V13.394L10.6067 15.0011" stroke="#00A54E" stroke-width="1.45" stroke-linecap="round" stroke-linejoin="round"/>
<path d="M13.8329 19.1253L13.4579 23.2289C13.4097 23.7631 13.1627 24.2599 12.766 24.6209C12.3692 24.9819 11.8515 25.181 11.3151 25.1789H6.67579C6.13935 25.181 5.62161 24.9819 5.22486 24.6209C4.82811 24.2599 4.5812 23.7631 4.53293 23.2289L4.15793 19.1253M4.16864 7.66101L4.54364 3.55744C4.59176 3.02502 4.83714 2.52982 5.23162 2.16903C5.62611 1.80825 6.1412 1.60794 6.67579 1.60744H11.3365C11.8729 1.60526 12.3907 1.80437 12.7874 2.16541C13.1842 2.52645 13.4311 3.02318 13.4794 3.55744L13.8544 7.66101" stroke="#00A54E" stroke-width="1.45" stroke-linecap="round" stroke-linejoin="round"/>
</svg>
