<svg width="22" height="17" viewBox="0 0 22 17" fill="none" xmlns="http://www.w3.org/2000/svg">
<path d="M1 16V15.0625C1 11.4381 4.35787 8.5 8.5 8.5C12.6421 8.5 16 11.4381 16 15.0625V16" stroke="#00A54E" stroke-width="1.5" stroke-linecap="round" stroke-linejoin="round"/>
<path d="M8.49958 8.5C10.8665 8.5 12.7853 6.82103 12.7853 4.75C12.7853 2.67893 10.8665 1 8.49958 1C6.13265 1 4.21387 2.67893 4.21387 4.75C4.21387 6.82103 6.13265 8.5 8.49958 8.5Z" stroke="#00A54E" stroke-width="1.5" stroke-linecap="round" stroke-linejoin="round"/>
<path d="M11 16V15.375C11 12.9588 13.2386 11 16 11C18.7614 11 21 12.9588 21 15.375V16" stroke="#00A54E" stroke-width="1.5" stroke-linecap="round" stroke-linejoin="round"/>
<path d="M15.9997 11C17.5776 11 18.8569 9.88069 18.8569 8.5C18.8569 7.11929 17.5776 6 15.9997 6C14.4218 6 13.1426 7.11929 13.1426 8.5C13.1426 9.88069 14.4218 11 15.9997 11Z" stroke="#00A54E" stroke-width="1.5" stroke-linecap="round" stroke-linejoin="round"/>
</svg>
