<svg width="22" height="25" viewBox="0 0 22 25" fill="none" xmlns="http://www.w3.org/2000/svg">
<path d="M1 5.44446H3.22222H21" stroke="#EC3137" stroke-width="2" stroke-linecap="round" stroke-linejoin="round"/>
<path d="M18.7778 5.44444V21C18.7778 21.5894 18.5437 22.1546 18.1269 22.5713C17.7102 22.9881 17.1449 23.2222 16.5556 23.2222H5.44445C4.85508 23.2222 4.28985 22.9881 3.8731 22.5713C3.45636 22.1546 3.22223 21.5894 3.22223 21V5.44444M6.55556 5.44444V3.22222C6.55556 2.63285 6.78969 2.06762 7.20644 1.65087C7.62318 1.23413 8.18841 1 8.77778 1H13.2222C13.8116 1 14.3768 1.23413 14.7936 1.65087C15.2103 2.06762 15.4445 2.63285 15.4445 3.22222V5.44444" stroke="#EC3137" stroke-width="2" stroke-linecap="round" stroke-linejoin="round"/>
<path d="M8.77778 11V17.6667" stroke="#EC3137" stroke-width="2" stroke-linecap="round" stroke-linejoin="round"/>
<path d="M13.2222 11V17.6667" stroke="#EC3137" stroke-width="2" stroke-linecap="round" stroke-linejoin="round"/>
</svg>
