<svg width="600" height="200" viewBox="0 0 600 200" fill="none" xmlns="http://www.w3.org/2000/svg">
<mask id="mask0_142_2056" style="mask-type:alpha" maskUnits="userSpaceOnUse" x="0" y="0" width="600" height="200">
<rect width="600" height="200" rx="26" fill="#00A54E"/>
</mask>
<g mask="url(#mask0_142_2056)">
<rect width="600" height="200" rx="26" fill="#00A54E"/>
<circle opacity="0.2" cx="25" cy="163" r="73.5" stroke="white"/>
<circle opacity="0.2" cx="120.5" cy="46.5" r="20.5" fill="white"/>
<path opacity="0.2" d="M395.5 150.5C395.5 175.895 374.467 196.5 348.5 196.5C322.533 196.5 301.5 175.895 301.5 150.5C301.5 125.105 322.533 104.5 348.5 104.5C374.467 104.5 395.5 125.105 395.5 150.5Z" stroke="white"/>
<circle opacity="0.2" cx="384.5" cy="179.5" r="20" stroke="white"/>
</g>
<path d="M42 111.999V110.587C42 105.129 46.4243 100.705 51.8821 100.705C57.3398 100.705 61.7641 105.129 61.7641 110.587V111.999" stroke="#F1F0F5" stroke-width="3" stroke-linecap="round"/>
<path d="M58.9424 103.525C58.9424 99.6271 62.1027 96.4668 66.001 96.4668C69.8993 96.4668 73.0596 99.6271 73.0596 103.525V104.231" stroke="#F1F0F5" stroke-width="3" stroke-linecap="round"/>
<path d="M51.8803 100.706C54.9989 100.706 57.5272 98.1776 57.5272 95.059C57.5272 91.9403 54.9989 89.4121 51.8803 89.4121C48.7616 89.4121 46.2334 91.9403 46.2334 95.059C46.2334 98.1776 48.7616 100.706 51.8803 100.706Z" stroke="#F1F0F5" stroke-width="3" stroke-linecap="round" stroke-linejoin="round"/>
<path d="M65.9979 96.4703C68.3369 96.4703 70.233 94.5742 70.233 92.2352C70.233 89.8962 68.3369 88 65.9979 88C63.6588 88 61.7627 89.8962 61.7627 92.2352C61.7627 94.5742 63.6588 96.4703 65.9979 96.4703Z" stroke="#F1F0F5" stroke-width="3" stroke-linecap="round" stroke-linejoin="round"/>
<path d="M99.1931 109.24C97.9131 109.24 96.7211 109.032 95.6171 108.616C94.5291 108.184 93.5771 107.584 92.7611 106.816C91.9611 106.032 91.3371 105.112 90.8891 104.056C90.4411 103 90.2171 101.848 90.2171 100.6C90.2171 99.352 90.4411 98.2 90.8891 97.144C91.3371 96.088 91.9691 95.176 92.7851 94.408C93.6011 93.624 94.5531 93.024 95.6411 92.608C96.7291 92.176 97.9211 91.96 99.2171 91.96C100.593 91.96 101.849 92.2 102.985 92.68C104.121 93.144 105.081 93.84 105.865 94.768L103.849 96.664C103.241 96.008 102.561 95.52 101.809 95.2C101.057 94.864 100.241 94.696 99.3611 94.696C98.4811 94.696 97.6731 94.84 96.9371 95.128C96.2171 95.416 95.5851 95.824 95.0411 96.352C94.5131 96.88 94.0971 97.504 93.7931 98.224C93.5051 98.944 93.3611 99.736 93.3611 100.6C93.3611 101.464 93.5051 102.256 93.7931 102.976C94.0971 103.696 94.5131 104.32 95.0411 104.848C95.5851 105.376 96.2171 105.784 96.9371 106.072C97.6731 106.36 98.4811 106.504 99.3611 106.504C100.241 106.504 101.057 106.344 101.809 106.024C102.561 105.688 103.241 105.184 103.849 104.512L105.865 106.432C105.081 107.344 104.121 108.04 102.985 108.52C101.849 109 100.585 109.24 99.1931 109.24ZM113.834 109.168C112.522 109.168 111.354 108.888 110.33 108.328C109.306 107.752 108.498 106.968 107.906 105.976C107.314 104.984 107.018 103.856 107.018 102.592C107.018 101.312 107.314 100.184 107.906 99.208C108.498 98.216 109.306 97.44 110.33 96.88C111.354 96.32 112.522 96.04 113.834 96.04C115.162 96.04 116.338 96.32 117.362 96.88C118.402 97.44 119.21 98.208 119.786 99.184C120.378 100.16 120.674 101.296 120.674 102.592C120.674 103.856 120.378 104.984 119.786 105.976C119.21 106.968 118.402 107.752 117.362 108.328C116.338 108.888 115.162 109.168 113.834 109.168ZM113.834 106.6C114.57 106.6 115.226 106.44 115.802 106.12C116.378 105.8 116.826 105.336 117.146 104.728C117.482 104.12 117.65 103.408 117.65 102.592C117.65 101.76 117.482 101.048 117.146 100.456C116.826 99.848 116.378 99.384 115.802 99.064C115.226 98.744 114.578 98.584 113.858 98.584C113.122 98.584 112.466 98.744 111.89 99.064C111.33 99.384 110.882 99.848 110.546 100.456C110.21 101.048 110.042 101.76 110.042 102.592C110.042 103.408 110.21 104.12 110.546 104.728C110.882 105.336 111.33 105.8 111.89 106.12C112.466 106.44 113.114 106.6 113.834 106.6ZM130.815 96.04C131.839 96.04 132.751 96.24 133.551 96.64C134.367 97.04 135.007 97.656 135.471 98.488C135.935 99.304 136.167 100.36 136.167 101.656V109H133.167V102.04C133.167 100.904 132.895 100.056 132.351 99.496C131.823 98.936 131.079 98.656 130.119 98.656C129.415 98.656 128.791 98.8 128.247 99.088C127.703 99.376 127.279 99.808 126.975 100.384C126.687 100.944 126.543 101.656 126.543 102.52V109H123.543V96.184H126.399V99.64L125.895 98.584C126.343 97.768 126.991 97.144 127.839 96.712C128.703 96.264 129.695 96.04 130.815 96.04ZM143.147 109L137.651 96.184H140.771L145.499 107.488H143.963L148.859 96.184H151.739L146.243 109H143.147ZM153.614 109V96.184H156.614V109H153.614ZM155.126 94.072C154.566 94.072 154.102 93.896 153.734 93.544C153.382 93.192 153.206 92.768 153.206 92.272C153.206 91.76 153.382 91.336 153.734 91C154.102 90.648 154.566 90.472 155.126 90.472C155.686 90.472 156.142 90.64 156.494 90.976C156.862 91.296 157.046 91.704 157.046 92.2C157.046 92.728 156.87 93.176 156.518 93.544C156.166 93.896 155.702 94.072 155.126 94.072ZM165.975 109.168C164.743 109.168 163.631 108.896 162.639 108.352C161.663 107.792 160.895 107.024 160.335 106.048C159.775 105.072 159.495 103.92 159.495 102.592C159.495 101.264 159.775 100.112 160.335 99.136C160.895 98.16 161.663 97.4 162.639 96.856C163.631 96.312 164.743 96.04 165.975 96.04C167.047 96.04 168.007 96.28 168.855 96.76C169.703 97.224 170.375 97.936 170.871 98.896C171.367 99.856 171.615 101.088 171.615 102.592C171.615 104.08 171.375 105.312 170.895 106.288C170.415 107.248 169.751 107.968 168.903 108.448C168.055 108.928 167.079 109.168 165.975 109.168ZM166.335 106.6C167.055 106.6 167.695 106.44 168.255 106.12C168.831 105.8 169.287 105.336 169.623 104.728C169.975 104.12 170.151 103.408 170.151 102.592C170.151 101.76 169.975 101.048 169.623 100.456C169.287 99.848 168.831 99.384 168.255 99.064C167.695 98.744 167.055 98.584 166.335 98.584C165.615 98.584 164.967 98.744 164.391 99.064C163.831 99.384 163.375 99.848 163.023 100.456C162.687 101.048 162.519 101.76 162.519 102.592C162.519 103.408 162.687 104.12 163.023 104.728C163.375 105.336 163.831 105.8 164.391 106.12C164.967 106.44 165.615 106.6 166.335 106.6ZM170.223 109V105.976L170.343 102.568L170.103 99.16V91.192H173.079V109H170.223ZM184.924 109V106.408L184.756 105.856V101.32C184.756 100.44 184.492 99.76 183.964 99.28C183.436 98.784 182.636 98.536 181.564 98.536C180.844 98.536 180.132 98.648 179.428 98.872C178.74 99.096 178.156 99.408 177.676 99.808L176.5 97.624C177.188 97.096 178.004 96.704 178.948 96.448C179.908 96.176 180.9 96.04 181.924 96.04C183.78 96.04 185.212 96.488 186.22 97.384C187.244 98.264 187.756 99.632 187.756 101.488V109H184.924ZM180.892 109.168C179.932 109.168 179.092 109.008 178.372 108.688C177.652 108.352 177.092 107.896 176.692 107.32C176.308 106.728 176.116 106.064 176.116 105.328C176.116 104.608 176.284 103.96 176.62 103.384C176.972 102.808 177.54 102.352 178.324 102.016C179.108 101.68 180.148 101.512 181.444 101.512H185.164V103.504H181.66C180.636 103.504 179.948 103.672 179.596 104.008C179.244 104.328 179.068 104.728 179.068 105.208C179.068 105.752 179.284 106.184 179.716 106.504C180.148 106.824 180.748 106.984 181.516 106.984C182.252 106.984 182.908 106.816 183.484 106.48C184.076 106.144 184.5 105.648 184.756 104.992L185.26 106.792C184.972 107.544 184.452 108.128 183.7 108.544C182.964 108.96 182.028 109.168 180.892 109.168ZM197.053 109.168C195.821 109.168 194.709 108.896 193.717 108.352C192.741 107.792 191.973 107.024 191.413 106.048C190.853 105.072 190.573 103.92 190.573 102.592C190.573 101.264 190.853 100.112 191.413 99.136C191.973 98.16 192.741 97.4 193.717 96.856C194.709 96.312 195.821 96.04 197.053 96.04C198.125 96.04 199.085 96.28 199.933 96.76C200.781 97.224 201.453 97.936 201.949 98.896C202.445 99.856 202.693 101.088 202.693 102.592C202.693 104.08 202.453 105.312 201.973 106.288C201.493 107.248 200.829 107.968 199.981 108.448C199.133 108.928 198.157 109.168 197.053 109.168ZM197.413 106.6C198.133 106.6 198.773 106.44 199.333 106.12C199.909 105.8 200.365 105.336 200.701 104.728C201.053 104.12 201.229 103.408 201.229 102.592C201.229 101.76 201.053 101.048 200.701 100.456C200.365 99.848 199.909 99.384 199.333 99.064C198.773 98.744 198.133 98.584 197.413 98.584C196.693 98.584 196.045 98.744 195.469 99.064C194.909 99.384 194.453 99.848 194.101 100.456C193.765 101.048 193.597 101.76 193.597 102.592C193.597 103.408 193.765 104.12 194.101 104.728C194.453 105.336 194.909 105.8 195.469 106.12C196.045 106.44 196.693 106.6 197.413 106.6ZM201.301 109V105.976L201.421 102.568L201.181 99.16V91.192H204.157V109H201.301ZM213.866 109.168C212.554 109.168 211.386 108.888 210.362 108.328C209.338 107.752 208.53 106.968 207.938 105.976C207.346 104.984 207.05 103.856 207.05 102.592C207.05 101.312 207.346 100.184 207.938 99.208C208.53 98.216 209.338 97.44 210.362 96.88C211.386 96.32 212.554 96.04 213.866 96.04C215.194 96.04 216.37 96.32 217.394 96.88C218.434 97.44 219.242 98.208 219.818 99.184C220.41 100.16 220.706 101.296 220.706 102.592C220.706 103.856 220.41 104.984 219.818 105.976C219.242 106.968 218.434 107.752 217.394 108.328C216.37 108.888 215.194 109.168 213.866 109.168ZM213.866 106.6C214.602 106.6 215.258 106.44 215.834 106.12C216.41 105.8 216.858 105.336 217.178 104.728C217.514 104.12 217.682 103.408 217.682 102.592C217.682 101.76 217.514 101.048 217.178 100.456C216.858 99.848 216.41 99.384 215.834 99.064C215.258 98.744 214.61 98.584 213.89 98.584C213.154 98.584 212.498 98.744 211.922 99.064C211.362 99.384 210.914 99.848 210.578 100.456C210.242 101.048 210.074 101.76 210.074 102.592C210.074 103.408 210.242 104.12 210.578 104.728C210.914 105.336 211.362 105.8 211.922 106.12C212.498 106.44 213.146 106.6 213.866 106.6ZM227.534 109.168C226.462 109.168 225.43 109.032 224.438 108.76C223.462 108.472 222.686 108.128 222.11 107.728L223.262 105.448C223.838 105.816 224.526 106.12 225.326 106.36C226.126 106.6 226.926 106.72 227.726 106.72C228.67 106.72 229.35 106.592 229.766 106.336C230.198 106.08 230.414 105.736 230.414 105.304C230.414 104.952 230.27 104.688 229.982 104.512C229.694 104.32 229.318 104.176 228.854 104.08C228.39 103.984 227.87 103.896 227.294 103.816C226.734 103.736 226.166 103.632 225.59 103.504C225.03 103.36 224.518 103.16 224.054 102.904C223.59 102.632 223.214 102.272 222.926 101.824C222.638 101.376 222.494 100.784 222.494 100.048C222.494 99.232 222.726 98.528 223.19 97.936C223.654 97.328 224.302 96.864 225.134 96.544C225.982 96.208 226.982 96.04 228.134 96.04C228.998 96.04 229.87 96.136 230.75 96.328C231.63 96.52 232.358 96.792 232.934 97.144L231.782 99.424C231.174 99.056 230.558 98.808 229.934 98.68C229.326 98.536 228.718 98.464 228.11 98.464C227.198 98.464 226.518 98.6 226.07 98.872C225.638 99.144 225.422 99.488 225.422 99.904C225.422 100.288 225.566 100.576 225.854 100.768C226.142 100.96 226.518 101.112 226.982 101.224C227.446 101.336 227.958 101.432 228.518 101.512C229.094 101.576 229.662 101.68 230.222 101.824C230.782 101.968 231.294 102.168 231.758 102.424C232.238 102.664 232.622 103.008 232.91 103.456C233.198 103.904 233.342 104.488 233.342 105.208C233.342 106.008 233.102 106.704 232.622 107.296C232.158 107.888 231.494 108.352 230.63 108.688C229.766 109.008 228.734 109.168 227.534 109.168Z" fill="#F1F0F5"/>
<path d="M280.354 84V72.8H281.33L286.45 81.536H285.938L291.01 72.8H291.986V84H290.85V74.576H291.122L286.45 82.576H285.89L281.186 74.576H281.49V84H280.354ZM300.66 84V82.144L300.612 81.84V78.736C300.612 78.0213 300.409 77.472 300.004 77.088C299.609 76.704 299.017 76.512 298.228 76.512C297.684 76.512 297.166 76.6027 296.676 76.784C296.185 76.9653 295.769 77.2053 295.428 77.504L294.916 76.656C295.342 76.2933 295.854 76.016 296.452 75.824C297.049 75.6213 297.678 75.52 298.34 75.52C299.428 75.52 300.265 75.792 300.852 76.336C301.449 76.8693 301.748 77.6853 301.748 78.784V84H300.66ZM297.764 84.08C297.134 84.08 296.585 83.9787 296.116 83.776C295.657 83.5627 295.305 83.2747 295.06 82.912C294.814 82.5387 294.692 82.112 294.692 81.632C294.692 81.1947 294.793 80.8 294.996 80.448C295.209 80.0853 295.55 79.7973 296.02 79.584C296.5 79.36 297.14 79.248 297.94 79.248H300.836V80.096H297.972C297.161 80.096 296.596 80.24 296.276 80.528C295.966 80.816 295.812 81.1733 295.812 81.6C295.812 82.08 295.998 82.464 296.372 82.752C296.745 83.04 297.268 83.184 297.94 83.184C298.58 83.184 299.129 83.04 299.588 82.752C300.057 82.4533 300.398 82.0267 300.612 81.472L300.868 82.256C300.654 82.8107 300.281 83.2533 299.748 83.584C299.225 83.9147 298.564 84.08 297.764 84.08ZM309.121 75.52C309.804 75.52 310.401 75.6533 310.913 75.92C311.436 76.176 311.841 76.5707 312.129 77.104C312.428 77.6373 312.577 78.3093 312.577 79.12V84H311.441V79.232C311.441 78.3467 311.217 77.68 310.769 77.232C310.332 76.7733 309.713 76.544 308.913 76.544C308.316 76.544 307.793 76.6667 307.345 76.912C306.908 77.1467 306.566 77.4933 306.321 77.952C306.086 78.4 305.969 78.944 305.969 79.584V84H304.833V75.6H305.921V77.904L305.745 77.472C306.012 76.864 306.438 76.3893 307.025 76.048C307.612 75.696 308.31 75.52 309.121 75.52ZM318.302 84.08C317.512 84.08 316.904 83.8667 316.478 83.44C316.051 83.0133 315.838 82.4107 315.838 81.632V73.744H316.974V81.568C316.974 82.0587 317.096 82.4373 317.342 82.704C317.598 82.9707 317.96 83.104 318.43 83.104C318.931 83.104 319.347 82.96 319.678 82.672L320.078 83.488C319.854 83.6907 319.582 83.84 319.262 83.936C318.952 84.032 318.632 84.08 318.302 84.08ZM314.334 76.544V75.6H319.534V76.544H314.334ZM325.417 84.08C324.542 84.08 323.774 83.8987 323.113 83.536C322.451 83.1627 321.934 82.656 321.561 82.016C321.187 81.3653 321.001 80.624 321.001 79.792C321.001 78.96 321.177 78.224 321.529 77.584C321.891 76.944 322.382 76.4427 323.001 76.08C323.63 75.7067 324.334 75.52 325.113 75.52C325.902 75.52 326.601 75.7013 327.209 76.064C327.827 76.416 328.313 76.9173 328.665 77.568C329.017 78.208 329.193 78.9493 329.193 79.792C329.193 79.8453 329.187 79.904 329.177 79.968C329.177 80.0213 329.177 80.08 329.177 80.144H321.865V79.296H328.569L328.121 79.632C328.121 79.024 327.987 78.4853 327.721 78.016C327.465 77.536 327.113 77.1627 326.665 76.896C326.217 76.6293 325.699 76.496 325.113 76.496C324.537 76.496 324.019 76.6293 323.561 76.896C323.102 77.1627 322.745 77.536 322.489 78.016C322.233 78.496 322.105 79.0453 322.105 79.664V79.84C322.105 80.48 322.243 81.0453 322.521 81.536C322.809 82.016 323.203 82.3947 323.705 82.672C324.217 82.9387 324.798 83.072 325.449 83.072C325.961 83.072 326.435 82.9813 326.873 82.8C327.321 82.6187 327.705 82.3413 328.025 81.968L328.665 82.704C328.291 83.152 327.822 83.4933 327.257 83.728C326.702 83.9627 326.089 84.08 325.417 84.08ZM335.793 75.52C336.476 75.52 337.073 75.6533 337.585 75.92C338.108 76.176 338.513 76.5707 338.801 77.104C339.1 77.6373 339.249 78.3093 339.249 79.12V84H338.113V79.232C338.113 78.3467 337.889 77.68 337.441 77.232C337.004 76.7733 336.385 76.544 335.585 76.544C334.988 76.544 334.465 76.6667 334.017 76.912C333.58 77.1467 333.238 77.4933 332.993 77.952C332.758 78.4 332.641 78.944 332.641 79.584V84H331.505V75.6H332.593V77.904L332.417 77.472C332.684 76.864 333.11 76.3893 333.697 76.048C334.284 75.696 334.982 75.52 335.793 75.52ZM346.605 75.52C347.288 75.52 347.885 75.6533 348.397 75.92C348.92 76.176 349.325 76.5707 349.613 77.104C349.912 77.6373 350.061 78.3093 350.061 79.12V84H348.925V79.232C348.925 78.3467 348.701 77.68 348.253 77.232C347.816 76.7733 347.197 76.544 346.397 76.544C345.8 76.544 345.277 76.6667 344.829 76.912C344.392 77.1467 344.051 77.4933 343.805 77.952C343.571 78.4 343.453 78.944 343.453 79.584V84H342.317V72.128H343.453V77.904L343.229 77.472C343.496 76.864 343.923 76.3893 344.509 76.048C345.096 75.696 345.795 75.52 346.605 75.52ZM358.394 84V82.144L358.346 81.84V78.736C358.346 78.0213 358.143 77.472 357.738 77.088C357.343 76.704 356.751 76.512 355.962 76.512C355.418 76.512 354.901 76.6027 354.41 76.784C353.919 76.9653 353.503 77.2053 353.162 77.504L352.65 76.656C353.077 76.2933 353.589 76.016 354.186 75.824C354.783 75.6213 355.413 75.52 356.074 75.52C357.162 75.52 357.999 75.792 358.586 76.336C359.183 76.8693 359.482 77.6853 359.482 78.784V84H358.394ZM355.498 84.08C354.869 84.08 354.319 83.9787 353.85 83.776C353.391 83.5627 353.039 83.2747 352.794 82.912C352.549 82.5387 352.426 82.112 352.426 81.632C352.426 81.1947 352.527 80.8 352.73 80.448C352.943 80.0853 353.285 79.7973 353.754 79.584C354.234 79.36 354.874 79.248 355.674 79.248H358.57V80.096H355.706C354.895 80.096 354.33 80.24 354.01 80.528C353.701 80.816 353.546 81.1733 353.546 81.6C353.546 82.08 353.733 82.464 354.106 82.752C354.479 83.04 355.002 83.184 355.674 83.184C356.314 83.184 356.863 83.04 357.322 82.752C357.791 82.4533 358.133 82.0267 358.346 81.472L358.602 82.256C358.389 82.8107 358.015 83.2533 357.482 83.584C356.959 83.9147 356.298 84.08 355.498 84.08ZM369.011 84.08C368.318 84.08 367.662 83.984 367.043 83.792C366.424 83.5893 365.939 83.3387 365.587 83.04L366.099 82.144C366.44 82.4 366.878 82.624 367.411 82.816C367.944 82.9973 368.504 83.088 369.091 83.088C369.891 83.088 370.467 82.9653 370.819 82.72C371.171 82.464 371.347 82.128 371.347 81.712C371.347 81.4027 371.246 81.1627 371.043 80.992C370.851 80.8107 370.595 80.6773 370.275 80.592C369.955 80.496 369.598 80.416 369.203 80.352C368.808 80.288 368.414 80.2133 368.019 80.128C367.635 80.0427 367.283 79.92 366.963 79.76C366.643 79.5893 366.382 79.36 366.179 79.072C365.987 78.784 365.891 78.4 365.891 77.92C365.891 77.4613 366.019 77.0507 366.275 76.688C366.531 76.3253 366.904 76.0427 367.395 75.84C367.896 75.6267 368.504 75.52 369.219 75.52C369.763 75.52 370.307 75.5947 370.851 75.744C371.395 75.8827 371.843 76.0693 372.195 76.304L371.699 77.216C371.326 76.96 370.926 76.7787 370.499 76.672C370.072 76.5547 369.646 76.496 369.219 76.496C368.462 76.496 367.902 76.6293 367.539 76.896C367.187 77.152 367.011 77.4827 367.011 77.888C367.011 78.208 367.107 78.4587 367.299 78.64C367.502 78.8213 367.763 78.9653 368.083 79.072C368.414 79.168 368.771 79.248 369.155 79.312C369.55 79.376 369.939 79.456 370.323 79.552C370.718 79.6373 371.075 79.76 371.395 79.92C371.726 80.0693 371.987 80.288 372.179 80.576C372.382 80.8533 372.483 81.2213 372.483 81.68C372.483 82.1707 372.344 82.5973 372.067 82.96C371.8 83.312 371.406 83.5893 370.883 83.792C370.371 83.984 369.747 84.08 369.011 84.08ZM378.039 84.08C377.325 84.08 376.701 83.9467 376.167 83.68C375.634 83.4133 375.218 83.0133 374.919 82.48C374.631 81.9467 374.487 81.28 374.487 80.48V75.6H375.623V80.352C375.623 81.248 375.842 81.9253 376.279 82.384C376.727 82.832 377.351 83.056 378.151 83.056C378.738 83.056 379.245 82.9387 379.671 82.704C380.109 82.4587 380.439 82.1067 380.663 81.648C380.898 81.1893 381.015 80.64 381.015 80V75.6H382.151V84H381.063V81.696L381.239 82.112C380.973 82.7307 380.557 83.216 379.991 83.568C379.437 83.9093 378.786 84.08 378.039 84.08ZM390.581 84V82.144L390.533 81.84V78.736C390.533 78.0213 390.331 77.472 389.925 77.088C389.531 76.704 388.939 76.512 388.149 76.512C387.605 76.512 387.088 76.6027 386.597 76.784C386.107 76.9653 385.691 77.2053 385.349 77.504L384.837 76.656C385.264 76.2933 385.776 76.016 386.373 75.824C386.971 75.6213 387.6 75.52 388.261 75.52C389.349 75.52 390.187 75.792 390.773 76.336C391.371 76.8693 391.669 77.6853 391.669 78.784V84H390.581ZM387.685 84.08C387.056 84.08 386.507 83.9787 386.037 83.776C385.579 83.5627 385.227 83.2747 384.981 82.912C384.736 82.5387 384.613 82.112 384.613 81.632C384.613 81.1947 384.715 80.8 384.917 80.448C385.131 80.0853 385.472 79.7973 385.941 79.584C386.421 79.36 387.061 79.248 387.861 79.248H390.757V80.096H387.893C387.083 80.096 386.517 80.24 386.197 80.528C385.888 80.816 385.733 81.1733 385.733 81.6C385.733 82.08 385.92 82.464 386.293 82.752C386.667 83.04 387.189 83.184 387.861 83.184C388.501 83.184 389.051 83.04 389.509 82.752C389.979 82.4533 390.32 82.0267 390.533 81.472L390.789 82.256C390.576 82.8107 390.203 83.2533 389.669 83.584C389.147 83.9147 388.485 84.08 387.685 84.08ZM398.942 84V72.128H400.078V84H398.942ZM403.239 84V75.6H404.375V84H403.239ZM403.815 73.744C403.581 73.744 403.383 73.664 403.223 73.504C403.063 73.344 402.983 73.152 402.983 72.928C402.983 72.704 403.063 72.5173 403.223 72.368C403.383 72.208 403.581 72.128 403.815 72.128C404.05 72.128 404.247 72.2027 404.407 72.352C404.567 72.5013 404.647 72.688 404.647 72.912C404.647 73.1467 404.567 73.344 404.407 73.504C404.258 73.664 404.061 73.744 403.815 73.744ZM409.792 84.08C409.099 84.08 408.443 83.984 407.824 83.792C407.205 83.5893 406.72 83.3387 406.368 83.04L406.88 82.144C407.221 82.4 407.659 82.624 408.192 82.816C408.725 82.9973 409.285 83.088 409.872 83.088C410.672 83.088 411.248 82.9653 411.6 82.72C411.952 82.464 412.128 82.128 412.128 81.712C412.128 81.4027 412.027 81.1627 411.824 80.992C411.632 80.8107 411.376 80.6773 411.056 80.592C410.736 80.496 410.379 80.416 409.984 80.352C409.589 80.288 409.195 80.2133 408.8 80.128C408.416 80.0427 408.064 79.92 407.744 79.76C407.424 79.5893 407.163 79.36 406.96 79.072C406.768 78.784 406.672 78.4 406.672 77.92C406.672 77.4613 406.8 77.0507 407.056 76.688C407.312 76.3253 407.685 76.0427 408.176 75.84C408.677 75.6267 409.285 75.52 410 75.52C410.544 75.52 411.088 75.5947 411.632 75.744C412.176 75.8827 412.624 76.0693 412.976 76.304L412.48 77.216C412.107 76.96 411.707 76.7787 411.28 76.672C410.853 76.5547 410.427 76.496 410 76.496C409.243 76.496 408.683 76.6293 408.32 76.896C407.968 77.152 407.792 77.4827 407.792 77.888C407.792 78.208 407.888 78.4587 408.08 78.64C408.283 78.8213 408.544 78.9653 408.864 79.072C409.195 79.168 409.552 79.248 409.936 79.312C410.331 79.376 410.72 79.456 411.104 79.552C411.499 79.6373 411.856 79.76 412.176 79.92C412.507 80.0693 412.768 80.288 412.96 80.576C413.163 80.8533 413.264 81.2213 413.264 81.68C413.264 82.1707 413.125 82.5973 412.848 82.96C412.581 83.312 412.187 83.5893 411.664 83.792C411.152 83.984 410.528 84.08 409.792 84.08ZM418.005 84.08C417.215 84.08 416.607 83.8667 416.181 83.44C415.754 83.0133 415.541 82.4107 415.541 81.632V73.744H416.677V81.568C416.677 82.0587 416.799 82.4373 417.045 82.704C417.301 82.9707 417.663 83.104 418.133 83.104C418.634 83.104 419.05 82.96 419.381 82.672L419.781 83.488C419.557 83.6907 419.285 83.84 418.965 83.936C418.655 84.032 418.335 84.08 418.005 84.08ZM414.037 76.544V75.6H419.237V76.544H414.037ZM427.113 84V82.144L427.065 81.84V78.736C427.065 78.0213 426.862 77.472 426.457 77.088C426.062 76.704 425.47 76.512 424.681 76.512C424.137 76.512 423.619 76.6027 423.129 76.784C422.638 76.9653 422.222 77.2053 421.881 77.504L421.369 76.656C421.795 76.2933 422.307 76.016 422.905 75.824C423.502 75.6213 424.131 75.52 424.793 75.52C425.881 75.52 426.718 75.792 427.305 76.336C427.902 76.8693 428.201 77.6853 428.201 78.784V84H427.113ZM424.217 84.08C423.587 84.08 423.038 83.9787 422.569 83.776C422.11 83.5627 421.758 83.2747 421.513 82.912C421.267 82.5387 421.145 82.112 421.145 81.632C421.145 81.1947 421.246 80.8 421.449 80.448C421.662 80.0853 422.003 79.7973 422.473 79.584C422.953 79.36 423.593 79.248 424.393 79.248H427.289V80.096H424.425C423.614 80.096 423.049 80.24 422.729 80.528C422.419 80.816 422.265 81.1733 422.265 81.6C422.265 82.08 422.451 82.464 422.825 82.752C423.198 83.04 423.721 83.184 424.393 83.184C425.033 83.184 425.582 83.04 426.041 82.752C426.51 82.4533 426.851 82.0267 427.065 81.472L427.321 82.256C427.107 82.8107 426.734 83.2533 426.201 83.584C425.678 83.9147 425.017 84.08 424.217 84.08ZM438.818 84.08C438.018 84.08 437.298 83.8987 436.658 83.536C436.028 83.1733 435.532 82.672 435.17 82.032C434.807 81.3813 434.626 80.6347 434.626 79.792C434.626 78.9387 434.807 78.192 435.17 77.552C435.532 76.912 436.028 76.416 436.658 76.064C437.298 75.7013 438.018 75.52 438.818 75.52C439.554 75.52 440.21 75.6853 440.786 76.016C441.372 76.3467 441.836 76.832 442.178 77.472C442.53 78.1013 442.706 78.8747 442.706 79.792C442.706 80.6987 442.535 81.472 442.194 82.112C441.852 82.752 441.388 83.2427 440.802 83.584C440.226 83.9147 439.564 84.08 438.818 84.08ZM438.898 83.072C439.495 83.072 440.028 82.9387 440.498 82.672C440.978 82.3947 441.351 82.0107 441.618 81.52C441.895 81.0187 442.034 80.4427 442.034 79.792C442.034 79.1307 441.895 78.5547 441.618 78.064C441.351 77.5733 440.978 77.1947 440.498 76.928C440.028 76.6507 439.495 76.512 438.898 76.512C438.311 76.512 437.783 76.6507 437.314 76.928C436.844 77.1947 436.471 77.5733 436.194 78.064C435.916 78.5547 435.778 79.1307 435.778 79.792C435.778 80.4427 435.916 81.0187 436.194 81.52C436.471 82.0107 436.844 82.3947 437.314 82.672C437.783 82.9387 438.311 83.072 438.898 83.072ZM442.066 84V81.472L442.178 79.776L442.018 78.08V72.128H443.154V84H442.066ZM449.885 84.08C449.011 84.08 448.243 83.8987 447.581 83.536C446.92 83.1627 446.403 82.656 446.029 82.016C445.656 81.3653 445.469 80.624 445.469 79.792C445.469 78.96 445.645 78.224 445.997 77.584C446.36 76.944 446.851 76.4427 447.469 76.08C448.099 75.7067 448.803 75.52 449.581 75.52C450.371 75.52 451.069 75.7013 451.677 76.064C452.296 76.416 452.781 76.9173 453.133 77.568C453.485 78.208 453.661 78.9493 453.661 79.792C453.661 79.8453 453.656 79.904 453.645 79.968C453.645 80.0213 453.645 80.08 453.645 80.144H446.333V79.296H453.037L452.589 79.632C452.589 79.024 452.456 78.4853 452.189 78.016C451.933 77.536 451.581 77.1627 451.133 76.896C450.685 76.6293 450.168 76.496 449.581 76.496C449.005 76.496 448.488 76.6293 448.029 76.896C447.571 77.1627 447.213 77.536 446.957 78.016C446.701 78.496 446.573 79.0453 446.573 79.664V79.84C446.573 80.48 446.712 81.0453 446.989 81.536C447.277 82.016 447.672 82.3947 448.173 82.672C448.685 82.9387 449.267 83.072 449.917 83.072C450.429 83.072 450.904 82.9813 451.341 82.8C451.789 82.6187 452.173 82.3413 452.493 81.968L453.133 82.704C452.76 83.152 452.291 83.4933 451.725 83.728C451.171 83.9627 450.557 84.08 449.885 84.08ZM283.602 106.08C282.77 106.08 282.024 105.899 281.362 105.536C280.712 105.163 280.2 104.656 279.826 104.016C279.453 103.365 279.266 102.624 279.266 101.792C279.266 100.949 279.453 100.208 279.826 99.568C280.2 98.928 280.712 98.4267 281.362 98.064C282.024 97.7013 282.77 97.52 283.602 97.52C284.317 97.52 284.962 97.6587 285.538 97.936C286.114 98.2133 286.568 98.6293 286.898 99.184L286.05 99.76C285.762 99.3333 285.405 99.0187 284.978 98.816C284.552 98.6133 284.088 98.512 283.586 98.512C282.989 98.512 282.45 98.6507 281.97 98.928C281.49 99.1947 281.112 99.5733 280.834 100.064C280.557 100.555 280.418 101.131 280.418 101.792C280.418 102.453 280.557 103.029 280.834 103.52C281.112 104.011 281.49 104.395 281.97 104.672C282.45 104.939 282.989 105.072 283.586 105.072C284.088 105.072 284.552 104.971 284.978 104.768C285.405 104.565 285.762 104.256 286.05 103.84L286.898 104.416C286.568 104.96 286.114 105.376 285.538 105.664C284.962 105.941 284.317 106.08 283.602 106.08ZM292.413 106.08C291.603 106.08 290.872 105.899 290.221 105.536C289.581 105.163 289.075 104.656 288.701 104.016C288.328 103.365 288.141 102.624 288.141 101.792C288.141 100.949 288.328 100.208 288.701 99.568C289.075 98.928 289.581 98.4267 290.221 98.064C290.861 97.7013 291.592 97.52 292.413 97.52C293.245 97.52 293.981 97.7013 294.621 98.064C295.272 98.4267 295.779 98.928 296.141 99.568C296.515 100.208 296.701 100.949 296.701 101.792C296.701 102.624 296.515 103.365 296.141 104.016C295.779 104.656 295.272 105.163 294.621 105.536C293.971 105.899 293.235 106.08 292.413 106.08ZM292.413 105.072C293.021 105.072 293.56 104.939 294.029 104.672C294.499 104.395 294.867 104.011 295.133 103.52C295.411 103.019 295.549 102.443 295.549 101.792C295.549 101.131 295.411 100.555 295.133 100.064C294.867 99.5733 294.499 99.1947 294.029 98.928C293.56 98.6507 293.027 98.512 292.429 98.512C291.832 98.512 291.299 98.6507 290.829 98.928C290.36 99.1947 289.987 99.5733 289.709 100.064C289.432 100.555 289.293 101.131 289.293 101.792C289.293 102.443 289.432 103.019 289.709 103.52C289.987 104.011 290.36 104.395 290.829 104.672C291.299 104.939 291.827 105.072 292.413 105.072ZM303.309 97.52C303.991 97.52 304.589 97.6533 305.101 97.92C305.623 98.176 306.029 98.5707 306.317 99.104C306.615 99.6373 306.765 100.309 306.765 101.12V106H305.629V101.232C305.629 100.347 305.405 99.68 304.957 99.232C304.519 98.7733 303.901 98.544 303.101 98.544C302.503 98.544 301.981 98.6667 301.533 98.912C301.095 99.1467 300.754 99.4933 300.509 99.952C300.274 100.4 300.157 100.944 300.157 101.584V106H299.021V97.6H300.109V99.904L299.933 99.472C300.199 98.864 300.626 98.3893 301.213 98.048C301.799 97.696 302.498 97.52 303.309 97.52ZM311.837 106L308.109 97.6H309.293L312.717 105.392H312.157L315.629 97.6H316.749L313.005 106H311.837ZM318.349 106V97.6H319.485V106H318.349ZM318.925 95.744C318.69 95.744 318.493 95.664 318.333 95.504C318.173 95.344 318.093 95.152 318.093 94.928C318.093 94.704 318.173 94.5173 318.333 94.368C318.493 94.208 318.69 94.128 318.925 94.128C319.159 94.128 319.357 94.2027 319.517 94.352C319.677 94.5013 319.757 94.688 319.757 94.912C319.757 95.1467 319.677 95.344 319.517 95.504C319.367 95.664 319.17 95.744 318.925 95.744ZM325.99 106.08C325.19 106.08 324.47 105.899 323.83 105.536C323.2 105.173 322.704 104.672 322.342 104.032C321.979 103.381 321.798 102.635 321.798 101.792C321.798 100.939 321.979 100.192 322.342 99.552C322.704 98.912 323.2 98.416 323.83 98.064C324.47 97.7013 325.19 97.52 325.99 97.52C326.726 97.52 327.382 97.6853 327.958 98.016C328.544 98.3467 329.008 98.832 329.35 99.472C329.702 100.101 329.878 100.875 329.878 101.792C329.878 102.699 329.707 103.472 329.366 104.112C329.024 104.752 328.56 105.243 327.974 105.584C327.398 105.915 326.736 106.08 325.99 106.08ZM326.07 105.072C326.667 105.072 327.2 104.939 327.67 104.672C328.15 104.395 328.523 104.011 328.79 103.52C329.067 103.019 329.206 102.443 329.206 101.792C329.206 101.131 329.067 100.555 328.79 100.064C328.523 99.5733 328.15 99.1947 327.67 98.928C327.2 98.6507 326.667 98.512 326.07 98.512C325.483 98.512 324.955 98.6507 324.486 98.928C324.016 99.1947 323.643 99.5733 323.366 100.064C323.088 100.555 322.95 101.131 322.95 101.792C322.95 102.443 323.088 103.019 323.366 103.52C323.643 104.011 324.016 104.395 324.486 104.672C324.955 104.939 325.483 105.072 326.07 105.072ZM329.238 106V103.472L329.35 101.776L329.19 100.08V94.128H330.326V106H329.238ZM338.753 106V104.144L338.705 103.84V100.736C338.705 100.021 338.503 99.472 338.097 99.088C337.703 98.704 337.111 98.512 336.321 98.512C335.777 98.512 335.26 98.6027 334.769 98.784C334.279 98.9653 333.863 99.2053 333.521 99.504L333.009 98.656C333.436 98.2933 333.948 98.016 334.545 97.824C335.143 97.6213 335.772 97.52 336.433 97.52C337.521 97.52 338.359 97.792 338.945 98.336C339.543 98.8693 339.841 99.6853 339.841 100.784V106H338.753ZM335.857 106.08C335.228 106.08 334.679 105.979 334.209 105.776C333.751 105.563 333.399 105.275 333.153 104.912C332.908 104.539 332.785 104.112 332.785 103.632C332.785 103.195 332.887 102.8 333.089 102.448C333.303 102.085 333.644 101.797 334.113 101.584C334.593 101.36 335.233 101.248 336.033 101.248H338.929V102.096H336.065C335.255 102.096 334.689 102.24 334.369 102.528C334.06 102.816 333.905 103.173 333.905 103.6C333.905 104.08 334.092 104.464 334.465 104.752C334.839 105.04 335.361 105.184 336.033 105.184C336.673 105.184 337.223 105.04 337.681 104.752C338.151 104.453 338.492 104.027 338.705 103.472L338.961 104.256C338.748 104.811 338.375 105.253 337.841 105.584C337.319 105.915 336.657 106.08 335.857 106.08ZM346.271 106.08C345.471 106.08 344.751 105.899 344.111 105.536C343.481 105.173 342.985 104.672 342.623 104.032C342.26 103.381 342.079 102.635 342.079 101.792C342.079 100.939 342.26 100.192 342.623 99.552C342.985 98.912 343.481 98.416 344.111 98.064C344.751 97.7013 345.471 97.52 346.271 97.52C347.007 97.52 347.663 97.6853 348.239 98.016C348.825 98.3467 349.289 98.832 349.631 99.472C349.983 100.101 350.159 100.875 350.159 101.792C350.159 102.699 349.988 103.472 349.647 104.112C349.305 104.752 348.841 105.243 348.255 105.584C347.679 105.915 347.017 106.08 346.271 106.08ZM346.351 105.072C346.948 105.072 347.481 104.939 347.951 104.672C348.431 104.395 348.804 104.011 349.071 103.52C349.348 103.019 349.487 102.443 349.487 101.792C349.487 101.131 349.348 100.555 349.071 100.064C348.804 99.5733 348.431 99.1947 347.951 98.928C347.481 98.6507 346.948 98.512 346.351 98.512C345.764 98.512 345.236 98.6507 344.767 98.928C344.297 99.1947 343.924 99.5733 343.647 100.064C343.369 100.555 343.231 101.131 343.231 101.792C343.231 102.443 343.369 103.019 343.647 103.52C343.924 104.011 344.297 104.395 344.767 104.672C345.236 104.939 345.764 105.072 346.351 105.072ZM349.519 106V103.472L349.631 101.776L349.471 100.08V94.128H350.607V106H349.519ZM357.195 106.08C356.384 106.08 355.653 105.899 355.003 105.536C354.363 105.163 353.856 104.656 353.483 104.016C353.109 103.365 352.923 102.624 352.923 101.792C352.923 100.949 353.109 100.208 353.483 99.568C353.856 98.928 354.363 98.4267 355.003 98.064C355.643 97.7013 356.373 97.52 357.195 97.52C358.027 97.52 358.763 97.7013 359.403 98.064C360.053 98.4267 360.56 98.928 360.923 99.568C361.296 100.208 361.483 100.949 361.483 101.792C361.483 102.624 361.296 103.365 360.923 104.016C360.56 104.656 360.053 105.163 359.403 105.536C358.752 105.899 358.016 106.08 357.195 106.08ZM357.195 105.072C357.803 105.072 358.341 104.939 358.811 104.672C359.28 104.395 359.648 104.011 359.915 103.52C360.192 103.019 360.331 102.443 360.331 101.792C360.331 101.131 360.192 100.555 359.915 100.064C359.648 99.5733 359.28 99.1947 358.811 98.928C358.341 98.6507 357.808 98.512 357.211 98.512C356.613 98.512 356.08 98.6507 355.611 98.928C355.141 99.1947 354.768 99.5733 354.491 100.064C354.213 100.555 354.075 101.131 354.075 101.792C354.075 102.443 354.213 103.019 354.491 103.52C354.768 104.011 355.141 104.395 355.611 104.672C356.08 104.939 356.608 105.072 357.195 105.072ZM366.058 106.08C365.364 106.08 364.708 105.984 364.09 105.792C363.471 105.589 362.986 105.339 362.634 105.04L363.146 104.144C363.487 104.4 363.924 104.624 364.458 104.816C364.991 104.997 365.551 105.088 366.138 105.088C366.938 105.088 367.514 104.965 367.866 104.72C368.218 104.464 368.394 104.128 368.394 103.712C368.394 103.403 368.292 103.163 368.09 102.992C367.898 102.811 367.642 102.677 367.322 102.592C367.002 102.496 366.644 102.416 366.25 102.352C365.855 102.288 365.46 102.213 365.066 102.128C364.682 102.043 364.33 101.92 364.01 101.76C363.69 101.589 363.428 101.36 363.226 101.072C363.034 100.784 362.938 100.4 362.938 99.92C362.938 99.4613 363.066 99.0507 363.322 98.688C363.578 98.3253 363.951 98.0427 364.442 97.84C364.943 97.6267 365.551 97.52 366.266 97.52C366.81 97.52 367.354 97.5947 367.898 97.744C368.442 97.8827 368.89 98.0693 369.242 98.304L368.746 99.216C368.372 98.96 367.972 98.7787 367.546 98.672C367.119 98.5547 366.692 98.496 366.266 98.496C365.508 98.496 364.948 98.6293 364.586 98.896C364.234 99.152 364.058 99.4827 364.058 99.888C364.058 100.208 364.154 100.459 364.346 100.64C364.548 100.821 364.81 100.965 365.13 101.072C365.46 101.168 365.818 101.248 366.202 101.312C366.596 101.376 366.986 101.456 367.37 101.552C367.764 101.637 368.122 101.76 368.442 101.92C368.772 102.069 369.034 102.288 369.226 102.576C369.428 102.853 369.53 103.221 369.53 103.68C369.53 104.171 369.391 104.597 369.114 104.96C368.847 105.312 368.452 105.589 367.93 105.792C367.418 105.984 366.794 106.08 366.058 106.08ZM378.058 106.08C377.364 106.08 376.708 105.984 376.09 105.792C375.471 105.589 374.986 105.339 374.634 105.04L375.146 104.144C375.487 104.4 375.924 104.624 376.458 104.816C376.991 104.997 377.551 105.088 378.138 105.088C378.938 105.088 379.514 104.965 379.866 104.72C380.218 104.464 380.394 104.128 380.394 103.712C380.394 103.403 380.292 103.163 380.09 102.992C379.898 102.811 379.642 102.677 379.322 102.592C379.002 102.496 378.644 102.416 378.25 102.352C377.855 102.288 377.46 102.213 377.066 102.128C376.682 102.043 376.33 101.92 376.01 101.76C375.69 101.589 375.428 101.36 375.226 101.072C375.034 100.784 374.938 100.4 374.938 99.92C374.938 99.4613 375.066 99.0507 375.322 98.688C375.578 98.3253 375.951 98.0427 376.442 97.84C376.943 97.6267 377.551 97.52 378.266 97.52C378.81 97.52 379.354 97.5947 379.898 97.744C380.442 97.8827 380.89 98.0693 381.242 98.304L380.746 99.216C380.372 98.96 379.972 98.7787 379.546 98.672C379.119 98.5547 378.692 98.496 378.266 98.496C377.508 98.496 376.948 98.6293 376.586 98.896C376.234 99.152 376.058 99.4827 376.058 99.888C376.058 100.208 376.154 100.459 376.346 100.64C376.548 100.821 376.81 100.965 377.13 101.072C377.46 101.168 377.818 101.248 378.202 101.312C378.596 101.376 378.986 101.456 379.37 101.552C379.764 101.637 380.122 101.76 380.442 101.92C380.772 102.069 381.034 102.288 381.226 102.576C381.428 102.853 381.53 103.221 381.53 103.68C381.53 104.171 381.391 104.597 381.114 104.96C380.847 105.312 380.452 105.589 379.93 105.792C379.418 105.984 378.794 106.08 378.058 106.08ZM387.182 106.08C386.308 106.08 385.54 105.899 384.878 105.536C384.217 105.163 383.7 104.656 383.326 104.016C382.953 103.365 382.766 102.624 382.766 101.792C382.766 100.96 382.942 100.224 383.294 99.584C383.657 98.944 384.148 98.4427 384.766 98.08C385.396 97.7067 386.1 97.52 386.878 97.52C387.668 97.52 388.366 97.7013 388.974 98.064C389.593 98.416 390.078 98.9173 390.43 99.568C390.782 100.208 390.958 100.949 390.958 101.792C390.958 101.845 390.953 101.904 390.942 101.968C390.942 102.021 390.942 102.08 390.942 102.144H383.63V101.296H390.334L389.886 101.632C389.886 101.024 389.753 100.485 389.486 100.016C389.23 99.536 388.878 99.1627 388.43 98.896C387.982 98.6293 387.465 98.496 386.878 98.496C386.302 98.496 385.785 98.6293 385.326 98.896C384.868 99.1627 384.51 99.536 384.254 100.016C383.998 100.496 383.87 101.045 383.87 101.664V101.84C383.87 102.48 384.009 103.045 384.286 103.536C384.574 104.016 384.969 104.395 385.47 104.672C385.982 104.939 386.564 105.072 387.214 105.072C387.726 105.072 388.201 104.981 388.638 104.8C389.086 104.619 389.47 104.341 389.79 103.968L390.43 104.704C390.057 105.152 389.588 105.493 389.022 105.728C388.468 105.963 387.854 106.08 387.182 106.08ZM403.767 97.52C404.449 97.52 405.041 97.6533 405.543 97.92C406.055 98.176 406.449 98.5707 406.727 99.104C407.015 99.6373 407.159 100.309 407.159 101.12V106H406.023V101.232C406.023 100.347 405.809 99.68 405.383 99.232C404.967 98.7733 404.375 98.544 403.607 98.544C403.031 98.544 402.529 98.6667 402.103 98.912C401.687 99.1467 401.361 99.4933 401.127 99.952C400.903 100.4 400.791 100.944 400.791 101.584V106H399.655V101.232C399.655 100.347 399.441 99.68 399.015 99.232C398.588 98.7733 397.991 98.544 397.223 98.544C396.657 98.544 396.161 98.6667 395.735 98.912C395.308 99.1467 394.977 99.4933 394.743 99.952C394.519 100.4 394.407 100.944 394.407 101.584V106H393.271V97.6H394.359V99.872L394.183 99.472C394.439 98.864 394.849 98.3893 395.415 98.048C395.991 97.696 396.668 97.52 397.447 97.52C398.268 97.52 398.967 97.728 399.543 98.144C400.119 98.5493 400.492 99.1627 400.663 99.984L400.215 99.808C400.46 99.1253 400.892 98.576 401.511 98.16C402.14 97.7333 402.892 97.52 403.767 97.52ZM414.575 106.08C413.85 106.08 413.194 105.915 412.607 105.584C412.021 105.243 411.551 104.757 411.199 104.128C410.858 103.488 410.687 102.709 410.687 101.792C410.687 100.875 410.858 100.101 411.199 99.472C411.541 98.832 412.005 98.3467 412.591 98.016C413.178 97.6853 413.839 97.52 414.575 97.52C415.375 97.52 416.09 97.7013 416.719 98.064C417.359 98.416 417.861 98.9173 418.223 99.568C418.586 100.208 418.767 100.949 418.767 101.792C418.767 102.645 418.586 103.392 418.223 104.032C417.861 104.672 417.359 105.173 416.719 105.536C416.09 105.899 415.375 106.08 414.575 106.08ZM410.239 109.104V97.6H411.327V100.128L411.215 101.808L411.375 103.504V109.104H410.239ZM414.495 105.072C415.093 105.072 415.626 104.939 416.095 104.672C416.565 104.395 416.938 104.011 417.215 103.52C417.493 103.019 417.631 102.443 417.631 101.792C417.631 101.141 417.493 100.571 417.215 100.08C416.938 99.5893 416.565 99.2053 416.095 98.928C415.626 98.6507 415.093 98.512 414.495 98.512C413.898 98.512 413.359 98.6507 412.879 98.928C412.41 99.2053 412.037 99.5893 411.759 100.08C411.493 100.571 411.359 101.141 411.359 101.792C411.359 102.443 411.493 103.019 411.759 103.52C412.037 104.011 412.41 104.395 412.879 104.672C413.359 104.939 413.898 105.072 414.495 105.072ZM421.083 106V97.6H422.171V99.888L422.059 99.488C422.294 98.848 422.688 98.3627 423.243 98.032C423.798 97.6907 424.486 97.52 425.307 97.52V98.624C425.264 98.624 425.222 98.624 425.179 98.624C425.136 98.6133 425.094 98.608 425.051 98.608C424.166 98.608 423.472 98.88 422.971 99.424C422.47 99.9573 422.219 100.72 422.219 101.712V106H421.083ZM430.87 106.08C429.995 106.08 429.227 105.899 428.566 105.536C427.904 105.163 427.387 104.656 427.014 104.016C426.64 103.365 426.454 102.624 426.454 101.792C426.454 100.96 426.63 100.224 426.982 99.584C427.344 98.944 427.835 98.4427 428.454 98.08C429.083 97.7067 429.787 97.52 430.566 97.52C431.355 97.52 432.054 97.7013 432.662 98.064C433.28 98.416 433.766 98.9173 434.118 99.568C434.47 100.208 434.646 100.949 434.646 101.792C434.646 101.845 434.64 101.904 434.63 101.968C434.63 102.021 434.63 102.08 434.63 102.144H427.318V101.296H434.022L433.574 101.632C433.574 101.024 433.44 100.485 433.174 100.016C432.918 99.536 432.566 99.1627 432.118 98.896C431.67 98.6293 431.152 98.496 430.566 98.496C429.99 98.496 429.472 98.6293 429.014 98.896C428.555 99.1627 428.198 99.536 427.942 100.016C427.686 100.496 427.558 101.045 427.558 101.664V101.84C427.558 102.48 427.696 103.045 427.974 103.536C428.262 104.016 428.656 104.395 429.158 104.672C429.67 104.939 430.251 105.072 430.902 105.072C431.414 105.072 431.888 104.981 432.326 104.8C432.774 104.619 433.158 104.341 433.478 103.968L434.118 104.704C433.744 105.152 433.275 105.493 432.71 105.728C432.155 105.963 431.542 106.08 430.87 106.08ZM283.538 128.08C282.728 128.08 281.997 127.899 281.346 127.536C280.706 127.163 280.2 126.656 279.826 126.016C279.453 125.365 279.266 124.624 279.266 123.792C279.266 122.949 279.453 122.208 279.826 121.568C280.2 120.928 280.706 120.427 281.346 120.064C281.986 119.701 282.717 119.52 283.538 119.52C284.37 119.52 285.106 119.701 285.746 120.064C286.397 120.427 286.904 120.928 287.266 121.568C287.64 122.208 287.826 122.949 287.826 123.792C287.826 124.624 287.64 125.365 287.266 126.016C286.904 126.656 286.397 127.163 285.746 127.536C285.096 127.899 284.36 128.08 283.538 128.08ZM283.538 127.072C284.146 127.072 284.685 126.939 285.154 126.672C285.624 126.395 285.992 126.011 286.258 125.52C286.536 125.019 286.674 124.443 286.674 123.792C286.674 123.131 286.536 122.555 286.258 122.064C285.992 121.573 285.624 121.195 285.154 120.928C284.685 120.651 284.152 120.512 283.554 120.512C282.957 120.512 282.424 120.651 281.954 120.928C281.485 121.195 281.112 121.573 280.834 122.064C280.557 122.555 280.418 123.131 280.418 123.792C280.418 124.443 280.557 125.019 280.834 125.52C281.112 126.011 281.485 126.395 281.954 126.672C282.424 126.939 282.952 127.072 283.538 127.072ZM290.146 128V119.6H291.234V121.888L291.122 121.488C291.356 120.848 291.751 120.363 292.306 120.032C292.86 119.691 293.548 119.52 294.37 119.52V120.624C294.327 120.624 294.284 120.624 294.242 120.624C294.199 120.613 294.156 120.608 294.114 120.608C293.228 120.608 292.535 120.88 292.034 121.424C291.532 121.957 291.282 122.72 291.282 123.712V128H290.146ZM299.948 131.184C299.18 131.184 298.444 131.072 297.74 130.848C297.036 130.624 296.466 130.304 296.028 129.888L296.604 129.024C296.999 129.376 297.484 129.653 298.06 129.856C298.647 130.069 299.266 130.176 299.916 130.176C300.983 130.176 301.767 129.925 302.268 129.424C302.77 128.933 303.02 128.165 303.02 127.12V125.024L303.18 123.584L303.068 122.144V119.6H304.156V126.976C304.156 128.427 303.799 129.488 303.084 130.16C302.38 130.843 301.335 131.184 299.948 131.184ZM299.74 127.68C298.94 127.68 298.22 127.509 297.58 127.168C296.94 126.816 296.434 126.331 296.06 125.712C295.698 125.093 295.516 124.384 295.516 123.584C295.516 122.784 295.698 122.08 296.06 121.472C296.434 120.853 296.94 120.373 297.58 120.032C298.22 119.691 298.94 119.52 299.74 119.52C300.487 119.52 301.159 119.675 301.756 119.984C302.354 120.293 302.828 120.752 303.18 121.36C303.532 121.968 303.708 122.709 303.708 123.584C303.708 124.459 303.532 125.2 303.18 125.808C302.828 126.416 302.354 126.88 301.756 127.2C301.159 127.52 300.487 127.68 299.74 127.68ZM299.852 126.672C300.471 126.672 301.02 126.544 301.5 126.288C301.98 126.021 302.359 125.659 302.636 125.2C302.914 124.731 303.052 124.192 303.052 123.584C303.052 122.976 302.914 122.443 302.636 121.984C302.359 121.525 301.98 121.168 301.5 120.912C301.02 120.645 300.471 120.512 299.852 120.512C299.244 120.512 298.695 120.645 298.204 120.912C297.724 121.168 297.346 121.525 297.068 121.984C296.802 122.443 296.668 122.976 296.668 123.584C296.668 124.192 296.802 124.731 297.068 125.2C297.346 125.659 297.724 126.021 298.204 126.288C298.695 126.544 299.244 126.672 299.852 126.672ZM312.581 128V126.144L312.533 125.84V122.736C312.533 122.021 312.331 121.472 311.925 121.088C311.531 120.704 310.939 120.512 310.149 120.512C309.605 120.512 309.088 120.603 308.597 120.784C308.107 120.965 307.691 121.205 307.349 121.504L306.837 120.656C307.264 120.293 307.776 120.016 308.373 119.824C308.971 119.621 309.6 119.52 310.261 119.52C311.349 119.52 312.187 119.792 312.773 120.336C313.371 120.869 313.669 121.685 313.669 122.784V128H312.581ZM309.685 128.08C309.056 128.08 308.507 127.979 308.037 127.776C307.579 127.563 307.227 127.275 306.981 126.912C306.736 126.539 306.613 126.112 306.613 125.632C306.613 125.195 306.715 124.8 306.917 124.448C307.131 124.085 307.472 123.797 307.941 123.584C308.421 123.36 309.061 123.248 309.861 123.248H312.757V124.096H309.893C309.083 124.096 308.517 124.24 308.197 124.528C307.888 124.816 307.733 125.173 307.733 125.6C307.733 126.08 307.92 126.464 308.293 126.752C308.667 127.04 309.189 127.184 309.861 127.184C310.501 127.184 311.051 127.04 311.509 126.752C311.979 126.453 312.32 126.027 312.533 125.472L312.789 126.256C312.576 126.811 312.203 127.253 311.669 127.584C311.147 127.915 310.485 128.08 309.685 128.08ZM321.043 119.52C321.726 119.52 322.323 119.653 322.835 119.92C323.358 120.176 323.763 120.571 324.051 121.104C324.35 121.637 324.499 122.309 324.499 123.12V128H323.363V123.232C323.363 122.347 323.139 121.68 322.691 121.232C322.254 120.773 321.635 120.544 320.835 120.544C320.238 120.544 319.715 120.667 319.267 120.912C318.83 121.147 318.488 121.493 318.243 121.952C318.008 122.4 317.891 122.944 317.891 123.584V128H316.755V119.6H317.843V121.904L317.667 121.472C317.934 120.864 318.36 120.389 318.947 120.048C319.534 119.696 320.232 119.52 321.043 119.52ZM327.567 128V119.6H328.703V128H327.567ZM328.143 117.744C327.909 117.744 327.711 117.664 327.551 117.504C327.391 117.344 327.311 117.152 327.311 116.928C327.311 116.704 327.391 116.517 327.551 116.368C327.711 116.208 327.909 116.128 328.143 116.128C328.378 116.128 328.575 116.203 328.735 116.352C328.895 116.501 328.975 116.688 328.975 116.912C328.975 117.147 328.895 117.344 328.735 117.504C328.586 117.664 328.389 117.744 328.143 117.744ZM330.952 128V127.248L336.552 120.16L336.792 120.544H331.048V119.6H337.688V120.336L332.104 127.44L331.816 127.056H337.8V128H330.952ZM345.3 128V126.144L345.252 125.84V122.736C345.252 122.021 345.049 121.472 344.644 121.088C344.249 120.704 343.657 120.512 342.868 120.512C342.324 120.512 341.807 120.603 341.316 120.784C340.825 120.965 340.409 121.205 340.068 121.504L339.556 120.656C339.983 120.293 340.495 120.016 341.092 119.824C341.689 119.621 342.319 119.52 342.98 119.52C344.068 119.52 344.905 119.792 345.492 120.336C346.089 120.869 346.388 121.685 346.388 122.784V128H345.3ZM342.404 128.08C341.775 128.08 341.225 127.979 340.756 127.776C340.297 127.563 339.945 127.275 339.7 126.912C339.455 126.539 339.332 126.112 339.332 125.632C339.332 125.195 339.433 124.8 339.636 124.448C339.849 124.085 340.191 123.797 340.66 123.584C341.14 123.36 341.78 123.248 342.58 123.248H345.476V124.096H342.612C341.801 124.096 341.236 124.24 340.916 124.528C340.607 124.816 340.452 125.173 340.452 125.6C340.452 126.08 340.639 126.464 341.012 126.752C341.385 127.04 341.908 127.184 342.58 127.184C343.22 127.184 343.769 127.04 344.228 126.752C344.697 126.453 345.039 126.027 345.252 125.472L345.508 126.256C345.295 126.811 344.921 127.253 344.388 127.584C343.865 127.915 343.204 128.08 342.404 128.08ZM352.818 128.08C352.018 128.08 351.298 127.899 350.658 127.536C350.028 127.173 349.532 126.672 349.17 126.032C348.807 125.381 348.626 124.635 348.626 123.792C348.626 122.939 348.807 122.192 349.17 121.552C349.532 120.912 350.028 120.416 350.658 120.064C351.298 119.701 352.018 119.52 352.818 119.52C353.554 119.52 354.21 119.685 354.786 120.016C355.372 120.347 355.836 120.832 356.178 121.472C356.53 122.101 356.706 122.875 356.706 123.792C356.706 124.699 356.535 125.472 356.194 126.112C355.852 126.752 355.388 127.243 354.802 127.584C354.226 127.915 353.564 128.08 352.818 128.08ZM352.898 127.072C353.495 127.072 354.028 126.939 354.498 126.672C354.978 126.395 355.351 126.011 355.618 125.52C355.895 125.019 356.034 124.443 356.034 123.792C356.034 123.131 355.895 122.555 355.618 122.064C355.351 121.573 354.978 121.195 354.498 120.928C354.028 120.651 353.495 120.512 352.898 120.512C352.311 120.512 351.783 120.651 351.314 120.928C350.844 121.195 350.471 121.573 350.194 122.064C349.916 122.555 349.778 123.131 349.778 123.792C349.778 124.443 349.916 125.019 350.194 125.52C350.471 126.011 350.844 126.395 351.314 126.672C351.783 126.939 352.311 127.072 352.898 127.072ZM356.066 128V125.472L356.178 123.776L356.018 122.08V116.128H357.154V128H356.066ZM365.581 128V126.144L365.533 125.84V122.736C365.533 122.021 365.331 121.472 364.925 121.088C364.531 120.704 363.939 120.512 363.149 120.512C362.605 120.512 362.088 120.603 361.597 120.784C361.107 120.965 360.691 121.205 360.349 121.504L359.837 120.656C360.264 120.293 360.776 120.016 361.373 119.824C361.971 119.621 362.6 119.52 363.261 119.52C364.349 119.52 365.187 119.792 365.773 120.336C366.371 120.869 366.669 121.685 366.669 122.784V128H365.581ZM362.685 128.08C362.056 128.08 361.507 127.979 361.037 127.776C360.579 127.563 360.227 127.275 359.981 126.912C359.736 126.539 359.613 126.112 359.613 125.632C359.613 125.195 359.715 124.8 359.917 124.448C360.131 124.085 360.472 123.797 360.941 123.584C361.421 123.36 362.061 123.248 362.861 123.248H365.757V124.096H362.893C362.083 124.096 361.517 124.24 361.197 124.528C360.888 124.816 360.733 125.173 360.733 125.6C360.733 126.08 360.92 126.464 361.293 126.752C361.667 127.04 362.189 127.184 362.861 127.184C363.501 127.184 364.051 127.04 364.509 126.752C364.979 126.453 365.32 126.027 365.533 125.472L365.789 126.256C365.576 126.811 365.203 127.253 364.669 127.584C364.147 127.915 363.485 128.08 362.685 128.08ZM377.51 128.08C376.636 128.08 375.868 127.899 375.206 127.536C374.545 127.163 374.028 126.656 373.654 126.016C373.281 125.365 373.094 124.624 373.094 123.792C373.094 122.96 373.27 122.224 373.622 121.584C373.985 120.944 374.476 120.443 375.094 120.08C375.724 119.707 376.428 119.52 377.206 119.52C377.996 119.52 378.694 119.701 379.302 120.064C379.921 120.416 380.406 120.917 380.758 121.568C381.11 122.208 381.286 122.949 381.286 123.792C381.286 123.845 381.281 123.904 381.27 123.968C381.27 124.021 381.27 124.08 381.27 124.144H373.958V123.296H380.662L380.214 123.632C380.214 123.024 380.081 122.485 379.814 122.016C379.558 121.536 379.206 121.163 378.758 120.896C378.31 120.629 377.793 120.496 377.206 120.496C376.63 120.496 376.113 120.629 375.654 120.896C375.196 121.163 374.838 121.536 374.582 122.016C374.326 122.496 374.198 123.045 374.198 123.664V123.84C374.198 124.48 374.337 125.045 374.614 125.536C374.902 126.016 375.297 126.395 375.798 126.672C376.31 126.939 376.892 127.072 377.542 127.072C378.054 127.072 378.529 126.981 378.966 126.8C379.414 126.619 379.798 126.341 380.118 125.968L380.758 126.704C380.385 127.152 379.916 127.493 379.35 127.728C378.796 127.963 378.182 128.08 377.51 128.08ZM393.05 128V126.144L393.002 125.84V122.736C393.002 122.021 392.799 121.472 392.394 121.088C391.999 120.704 391.407 120.512 390.618 120.512C390.074 120.512 389.557 120.603 389.066 120.784C388.575 120.965 388.159 121.205 387.818 121.504L387.306 120.656C387.733 120.293 388.245 120.016 388.842 119.824C389.439 119.621 390.069 119.52 390.73 119.52C391.818 119.52 392.655 119.792 393.242 120.336C393.839 120.869 394.138 121.685 394.138 122.784V128H393.05ZM390.154 128.08C389.525 128.08 388.975 127.979 388.506 127.776C388.047 127.563 387.695 127.275 387.45 126.912C387.205 126.539 387.082 126.112 387.082 125.632C387.082 125.195 387.183 124.8 387.386 124.448C387.599 124.085 387.941 123.797 388.41 123.584C388.89 123.36 389.53 123.248 390.33 123.248H393.226V124.096H390.362C389.551 124.096 388.986 124.24 388.666 124.528C388.357 124.816 388.202 125.173 388.202 125.6C388.202 126.08 388.389 126.464 388.762 126.752C389.135 127.04 389.658 127.184 390.33 127.184C390.97 127.184 391.519 127.04 391.978 126.752C392.447 126.453 392.789 126.027 393.002 125.472L393.258 126.256C393.045 126.811 392.671 127.253 392.138 127.584C391.615 127.915 390.954 128.08 390.154 128.08ZM399.88 128.08C399.09 128.08 398.482 127.867 398.056 127.44C397.629 127.013 397.416 126.411 397.416 125.632V117.744H398.552V125.568C398.552 126.059 398.674 126.437 398.92 126.704C399.176 126.971 399.538 127.104 400.008 127.104C400.509 127.104 400.925 126.96 401.256 126.672L401.656 127.488C401.432 127.691 401.16 127.84 400.84 127.936C400.53 128.032 400.21 128.08 399.88 128.08ZM395.912 120.544V119.6H401.112V120.544H395.912ZM407.196 128.08C406.481 128.08 405.857 127.947 405.324 127.68C404.79 127.413 404.374 127.013 404.076 126.48C403.788 125.947 403.644 125.28 403.644 124.48V119.6H404.78V124.352C404.78 125.248 404.998 125.925 405.436 126.384C405.884 126.832 406.508 127.056 407.308 127.056C407.894 127.056 408.401 126.939 408.828 126.704C409.265 126.459 409.596 126.107 409.82 125.648C410.054 125.189 410.172 124.64 410.172 124V119.6H411.308V128H410.22V125.696L410.396 126.112C410.129 126.731 409.713 127.216 409.148 127.568C408.593 127.909 407.942 128.08 407.196 128.08ZM419.738 128V126.144L419.69 125.84V122.736C419.69 122.021 419.487 121.472 419.082 121.088C418.687 120.704 418.095 120.512 417.306 120.512C416.762 120.512 416.244 120.603 415.754 120.784C415.263 120.965 414.847 121.205 414.506 121.504L413.994 120.656C414.42 120.293 414.932 120.016 415.53 119.824C416.127 119.621 416.756 119.52 417.418 119.52C418.506 119.52 419.343 119.792 419.93 120.336C420.527 120.869 420.826 121.685 420.826 122.784V128H419.738ZM416.842 128.08C416.212 128.08 415.663 127.979 415.194 127.776C414.735 127.563 414.383 127.275 414.138 126.912C413.892 126.539 413.77 126.112 413.77 125.632C413.77 125.195 413.871 124.8 414.074 124.448C414.287 124.085 414.628 123.797 415.098 123.584C415.578 123.36 416.218 123.248 417.018 123.248H419.914V124.096H417.05C416.239 124.096 415.674 124.24 415.354 124.528C415.044 124.816 414.89 125.173 414.89 125.6C414.89 126.08 415.076 126.464 415.45 126.752C415.823 127.04 416.346 127.184 417.018 127.184C417.658 127.184 418.207 127.04 418.666 126.752C419.135 126.453 419.476 126.027 419.69 125.472L419.946 126.256C419.732 126.811 419.359 127.253 418.826 127.584C418.303 127.915 417.642 128.08 416.842 128.08ZM423.911 128V116.128H425.047V128H423.911ZM428.208 128V119.6H429.344V128H428.208ZM428.784 117.744C428.549 117.744 428.352 117.664 428.192 117.504C428.032 117.344 427.952 117.152 427.952 116.928C427.952 116.704 428.032 116.517 428.192 116.368C428.352 116.208 428.549 116.128 428.784 116.128C429.019 116.128 429.216 116.203 429.376 116.352C429.536 116.501 429.616 116.688 429.616 116.912C429.616 117.147 429.536 117.344 429.376 117.504C429.227 117.664 429.029 117.744 428.784 117.744ZM431.593 128V127.248L437.193 120.16L437.433 120.544H431.689V119.6H438.329V120.336L432.745 127.44L432.457 127.056H438.441V128H431.593ZM445.941 128V126.144L445.893 125.84V122.736C445.893 122.021 445.69 121.472 445.285 121.088C444.89 120.704 444.298 120.512 443.509 120.512C442.965 120.512 442.447 120.603 441.957 120.784C441.466 120.965 441.05 121.205 440.709 121.504L440.197 120.656C440.623 120.293 441.135 120.016 441.733 119.824C442.33 119.621 442.959 119.52 443.621 119.52C444.709 119.52 445.546 119.792 446.133 120.336C446.73 120.869 447.029 121.685 447.029 122.784V128H445.941ZM443.045 128.08C442.415 128.08 441.866 127.979 441.397 127.776C440.938 127.563 440.586 127.275 440.341 126.912C440.095 126.539 439.973 126.112 439.973 125.632C439.973 125.195 440.074 124.8 440.277 124.448C440.49 124.085 440.831 123.797 441.301 123.584C441.781 123.36 442.421 123.248 443.221 123.248H446.117V124.096H443.253C442.442 124.096 441.877 124.24 441.557 124.528C441.247 124.816 441.093 125.173 441.093 125.6C441.093 126.08 441.279 126.464 441.653 126.752C442.026 127.04 442.549 127.184 443.221 127.184C443.861 127.184 444.41 127.04 444.869 126.752C445.338 126.453 445.679 126.027 445.893 125.472L446.149 126.256C445.935 126.811 445.562 127.253 445.029 127.584C444.506 127.915 443.845 128.08 443.045 128.08ZM453.458 128.08C452.658 128.08 451.938 127.899 451.298 127.536C450.669 127.173 450.173 126.672 449.81 126.032C449.448 125.381 449.266 124.635 449.266 123.792C449.266 122.939 449.448 122.192 449.81 121.552C450.173 120.912 450.669 120.416 451.298 120.064C451.938 119.701 452.658 119.52 453.458 119.52C454.194 119.52 454.85 119.685 455.426 120.016C456.013 120.347 456.477 120.832 456.818 121.472C457.17 122.101 457.346 122.875 457.346 123.792C457.346 124.699 457.176 125.472 456.834 126.112C456.493 126.752 456.029 127.243 455.442 127.584C454.866 127.915 454.205 128.08 453.458 128.08ZM453.538 127.072C454.136 127.072 454.669 126.939 455.138 126.672C455.618 126.395 455.992 126.011 456.258 125.52C456.536 125.019 456.674 124.443 456.674 123.792C456.674 123.131 456.536 122.555 456.258 122.064C455.992 121.573 455.618 121.195 455.138 120.928C454.669 120.651 454.136 120.512 453.538 120.512C452.952 120.512 452.424 120.651 451.954 120.928C451.485 121.195 451.112 121.573 450.834 122.064C450.557 122.555 450.418 123.131 450.418 123.792C450.418 124.443 450.557 125.019 450.834 125.52C451.112 126.011 451.485 126.395 451.954 126.672C452.424 126.939 452.952 127.072 453.538 127.072ZM456.706 128V125.472L456.818 123.776L456.658 122.08V116.128H457.794V128H456.706ZM466.222 128V126.144L466.174 125.84V122.736C466.174 122.021 465.971 121.472 465.566 121.088C465.171 120.704 464.579 120.512 463.79 120.512C463.246 120.512 462.729 120.603 462.238 120.784C461.747 120.965 461.331 121.205 460.99 121.504L460.478 120.656C460.905 120.293 461.417 120.016 462.014 119.824C462.611 119.621 463.241 119.52 463.902 119.52C464.99 119.52 465.827 119.792 466.414 120.336C467.011 120.869 467.31 121.685 467.31 122.784V128H466.222ZM463.326 128.08C462.697 128.08 462.147 127.979 461.678 127.776C461.219 127.563 460.867 127.275 460.622 126.912C460.377 126.539 460.254 126.112 460.254 125.632C460.254 125.195 460.355 124.8 460.558 124.448C460.771 124.085 461.113 123.797 461.582 123.584C462.062 123.36 462.702 123.248 463.502 123.248H466.398V124.096H463.534C462.723 124.096 462.158 124.24 461.838 124.528C461.529 124.816 461.374 125.173 461.374 125.6C461.374 126.08 461.561 126.464 461.934 126.752C462.307 127.04 462.83 127.184 463.502 127.184C464.142 127.184 464.691 127.04 465.15 126.752C465.619 126.453 465.961 126.027 466.174 125.472L466.43 126.256C466.217 126.811 465.843 127.253 465.31 127.584C464.787 127.915 464.126 128.08 463.326 128.08Z" fill="#F1F0F5"/>
<path d="M566.354 100.354C566.549 100.158 566.549 99.8417 566.354 99.6464L563.172 96.4645C562.976 96.2692 562.66 96.2692 562.464 96.4645C562.269 96.6597 562.269 96.9763 562.464 97.1716L565.293 100L562.464 102.828C562.269 103.024 562.269 103.34 562.464 103.536C562.66 103.731 562.976 103.731 563.172 103.536L566.354 100.354ZM536 100.5H566V99.5H536V100.5Z" fill="white"/>
</svg>
