<svg width="600" height="200" viewBox="0 0 600 200" fill="none" xmlns="http://www.w3.org/2000/svg">
<mask id="mask0_218_1889" style="mask-type:alpha" maskUnits="userSpaceOnUse" x="0" y="0" width="600" height="200">
<rect width="600" height="200" rx="26" fill="#00A54E"/>
</mask>
<g mask="url(#mask0_218_1889)">
<rect width="600" height="200" rx="26" fill="#0D6FE2"/>
<circle opacity="0.2" cx="25" cy="163" r="73.5" stroke="white"/>
<circle opacity="0.2" cx="120.5" cy="46.5" r="20.5" fill="white"/>
<path opacity="0.2" d="M395.5 150.5C395.5 175.895 374.467 196.5 348.5 196.5C322.533 196.5 301.5 175.895 301.5 150.5C301.5 125.105 322.533 104.5 348.5 104.5C374.467 104.5 395.5 125.105 395.5 150.5Z" stroke="white"/>
<circle opacity="0.2" cx="384.5" cy="179.5" r="20" stroke="white"/>
</g>
<path d="M49.4344 107.825L42.9785 109.977C42.4971 110.137 42 109.779 42 109.272V91.014C42 90.694 42.2048 90.4099 42.5083 90.3087L49.4344 88M49.4344 107.825L55.8902 109.977C56.3716 110.137 56.8687 109.779 56.8687 109.272V91.014C56.8687 90.694 56.6639 90.4099 56.3603 90.3087L49.4344 88M49.4344 107.825V88" stroke="#F1F0F5" stroke-width="3" stroke-linecap="round" stroke-linejoin="round"/>
<path d="M56.8662 90.4953L63.3221 88.3434C63.8035 88.1829 64.3006 88.5413 64.3006 89.0487V102.886" stroke="#F1F0F5" stroke-width="3" stroke-linecap="round" stroke-linejoin="round"/>
<path d="M59.4971 111.999L62.1256 109.371M62.1256 109.371L64.754 106.742M62.1256 109.371L59.4971 106.742M62.1256 109.371L64.754 111.999" stroke="#F1F0F5" stroke-width="3" stroke-linecap="round" stroke-linejoin="round"/>
<path d="M85.8899 99.184H94.2419V101.752H85.8899V99.184ZM86.1299 106.384H95.6099V109H83.0099V92.2H95.2739V94.816H86.1299V106.384ZM102.643 109.168C101.571 109.168 100.539 109.032 99.5468 108.76C98.5708 108.472 97.7948 108.128 97.2188 107.728L98.3708 105.448C98.9468 105.816 99.6348 106.12 100.435 106.36C101.235 106.6 102.035 106.72 102.835 106.72C103.779 106.72 104.459 106.592 104.875 106.336C105.307 106.08 105.523 105.736 105.523 105.304C105.523 104.952 105.379 104.688 105.091 104.512C104.803 104.32 104.427 104.176 103.963 104.08C103.499 103.984 102.979 103.896 102.403 103.816C101.843 103.736 101.275 103.632 100.699 103.504C100.139 103.36 99.6268 103.16 99.1628 102.904C98.6988 102.632 98.3228 102.272 98.0348 101.824C97.7468 101.376 97.6028 100.784 97.6028 100.048C97.6028 99.232 97.8348 98.528 98.2988 97.936C98.7628 97.328 99.4108 96.864 100.243 96.544C101.091 96.208 102.091 96.04 103.243 96.04C104.107 96.04 104.979 96.136 105.859 96.328C106.739 96.52 107.467 96.792 108.043 97.144L106.891 99.424C106.283 99.056 105.667 98.808 105.043 98.68C104.435 98.536 103.827 98.464 103.219 98.464C102.307 98.464 101.627 98.6 101.179 98.872C100.747 99.144 100.531 99.488 100.531 99.904C100.531 100.288 100.675 100.576 100.963 100.768C101.251 100.96 101.627 101.112 102.091 101.224C102.555 101.336 103.067 101.432 103.627 101.512C104.203 101.576 104.771 101.68 105.331 101.824C105.891 101.968 106.403 102.168 106.867 102.424C107.347 102.664 107.731 103.008 108.019 103.456C108.307 103.904 108.451 104.488 108.451 105.208C108.451 106.008 108.211 106.704 107.731 107.296C107.267 107.888 106.603 108.352 105.739 108.688C104.875 109.008 103.843 109.168 102.643 109.168ZM118.138 109.168C117.098 109.168 116.146 108.928 115.282 108.448C114.434 107.968 113.754 107.248 113.242 106.288C112.746 105.312 112.498 104.08 112.498 102.592C112.498 101.088 112.738 99.856 113.218 98.896C113.714 97.936 114.386 97.224 115.234 96.76C116.082 96.28 117.05 96.04 118.138 96.04C119.402 96.04 120.514 96.312 121.474 96.856C122.45 97.4 123.218 98.16 123.778 99.136C124.354 100.112 124.642 101.264 124.642 102.592C124.642 103.92 124.354 105.08 123.778 106.072C123.218 107.048 122.45 107.808 121.474 108.352C120.514 108.896 119.402 109.168 118.138 109.168ZM111.034 113.656V96.184H113.89V99.208L113.794 102.616L114.034 106.024V113.656H111.034ZM117.802 106.6C118.522 106.6 119.162 106.44 119.722 106.12C120.298 105.8 120.754 105.336 121.09 104.728C121.426 104.12 121.594 103.408 121.594 102.592C121.594 101.76 121.426 101.048 121.09 100.456C120.754 99.848 120.298 99.384 119.722 99.064C119.162 98.744 118.522 98.584 117.802 98.584C117.082 98.584 116.434 98.744 115.858 99.064C115.282 99.384 114.826 99.848 114.49 100.456C114.154 101.048 113.986 101.76 113.986 102.592C113.986 103.408 114.154 104.12 114.49 104.728C114.826 105.336 115.282 105.8 115.858 106.12C116.434 106.44 117.082 106.6 117.802 106.6ZM135.219 109V106.408L135.051 105.856V101.32C135.051 100.44 134.787 99.76 134.259 99.28C133.731 98.784 132.931 98.536 131.859 98.536C131.139 98.536 130.427 98.648 129.723 98.872C129.035 99.096 128.451 99.408 127.971 99.808L126.795 97.624C127.483 97.096 128.299 96.704 129.243 96.448C130.203 96.176 131.195 96.04 132.219 96.04C134.075 96.04 135.507 96.488 136.515 97.384C137.539 98.264 138.051 99.632 138.051 101.488V109H135.219ZM131.187 109.168C130.227 109.168 129.387 109.008 128.667 108.688C127.947 108.352 127.387 107.896 126.987 107.32C126.603 106.728 126.411 106.064 126.411 105.328C126.411 104.608 126.579 103.96 126.915 103.384C127.267 102.808 127.835 102.352 128.619 102.016C129.403 101.68 130.443 101.512 131.739 101.512H135.459V103.504H131.955C130.931 103.504 130.243 103.672 129.891 104.008C129.539 104.328 129.363 104.728 129.363 105.208C129.363 105.752 129.579 106.184 130.011 106.504C130.443 106.824 131.043 106.984 131.811 106.984C132.547 106.984 133.203 106.816 133.779 106.48C134.371 106.144 134.795 105.648 135.051 104.992L135.555 106.792C135.267 107.544 134.747 108.128 133.995 108.544C133.259 108.96 132.323 109.168 131.187 109.168ZM147.805 109.168C146.461 109.168 145.261 108.888 144.205 108.328C143.165 107.752 142.349 106.968 141.757 105.976C141.165 104.984 140.869 103.856 140.869 102.592C140.869 101.312 141.165 100.184 141.757 99.208C142.349 98.216 143.165 97.44 144.205 96.88C145.261 96.32 146.461 96.04 147.805 96.04C149.053 96.04 150.149 96.296 151.093 96.808C152.053 97.304 152.781 98.04 153.277 99.016L150.973 100.36C150.589 99.752 150.117 99.304 149.557 99.016C149.013 98.728 148.421 98.584 147.781 98.584C147.045 98.584 146.381 98.744 145.789 99.064C145.197 99.384 144.733 99.848 144.397 100.456C144.061 101.048 143.893 101.76 143.893 102.592C143.893 103.424 144.061 104.144 144.397 104.752C144.733 105.344 145.197 105.8 145.789 106.12C146.381 106.44 147.045 106.6 147.781 106.6C148.421 106.6 149.013 106.456 149.557 106.168C150.117 105.88 150.589 105.432 150.973 104.824L153.277 106.168C152.781 107.128 152.053 107.872 151.093 108.4C150.149 108.912 149.053 109.168 147.805 109.168ZM146.557 114.472C146.125 114.472 145.725 114.424 145.357 114.328C144.989 114.248 144.653 114.128 144.349 113.968L144.901 112.552C145.157 112.68 145.413 112.776 145.669 112.84C145.941 112.904 146.229 112.936 146.533 112.936C146.997 112.936 147.325 112.856 147.517 112.696C147.709 112.536 147.805 112.328 147.805 112.072C147.805 111.832 147.701 111.64 147.493 111.496C147.301 111.352 146.981 111.28 146.533 111.28H145.789L146.437 108.832H148.069L147.733 110.176C148.437 110.256 148.957 110.48 149.293 110.848C149.645 111.232 149.821 111.68 149.821 112.192C149.821 112.896 149.525 113.448 148.933 113.848C148.341 114.264 147.549 114.472 146.557 114.472ZM161.443 109.168C160.131 109.168 158.963 108.888 157.939 108.328C156.915 107.752 156.107 106.968 155.515 105.976C154.923 104.984 154.627 103.856 154.627 102.592C154.627 101.312 154.923 100.184 155.515 99.208C156.107 98.216 156.915 97.44 157.939 96.88C158.963 96.32 160.131 96.04 161.443 96.04C162.771 96.04 163.947 96.32 164.971 96.88C166.011 97.44 166.819 98.208 167.395 99.184C167.987 100.16 168.283 101.296 168.283 102.592C168.283 103.856 167.987 104.984 167.395 105.976C166.819 106.968 166.011 107.752 164.971 108.328C163.947 108.888 162.771 109.168 161.443 109.168ZM161.443 106.6C162.179 106.6 162.835 106.44 163.411 106.12C163.987 105.8 164.435 105.336 164.755 104.728C165.091 104.12 165.259 103.408 165.259 102.592C165.259 101.76 165.091 101.048 164.755 100.456C164.435 99.848 163.987 99.384 163.411 99.064C162.835 98.744 162.187 98.584 161.467 98.584C160.731 98.584 160.075 98.744 159.499 99.064C158.939 99.384 158.491 99.848 158.155 100.456C157.819 101.048 157.651 101.76 157.651 102.592C157.651 103.408 157.819 104.12 158.155 104.728C158.491 105.336 158.939 105.8 159.499 106.12C160.075 106.44 160.723 106.6 161.443 106.6ZM175.112 109.168C174.04 109.168 173.008 109.032 172.016 108.76C171.04 108.472 170.264 108.128 169.688 107.728L170.84 105.448C171.416 105.816 172.104 106.12 172.904 106.36C173.704 106.6 174.504 106.72 175.304 106.72C176.248 106.72 176.928 106.592 177.344 106.336C177.776 106.08 177.992 105.736 177.992 105.304C177.992 104.952 177.848 104.688 177.56 104.512C177.272 104.32 176.896 104.176 176.432 104.08C175.968 103.984 175.448 103.896 174.872 103.816C174.312 103.736 173.744 103.632 173.168 103.504C172.608 103.36 172.096 103.16 171.632 102.904C171.168 102.632 170.792 102.272 170.504 101.824C170.216 101.376 170.072 100.784 170.072 100.048C170.072 99.232 170.304 98.528 170.768 97.936C171.232 97.328 171.88 96.864 172.712 96.544C173.56 96.208 174.56 96.04 175.712 96.04C176.576 96.04 177.448 96.136 178.328 96.328C179.208 96.52 179.936 96.792 180.512 97.144L179.36 99.424C178.752 99.056 178.136 98.808 177.512 98.68C176.904 98.536 176.296 98.464 175.688 98.464C174.776 98.464 174.096 98.6 173.648 98.872C173.216 99.144 173 99.488 173 99.904C173 100.288 173.144 100.576 173.432 100.768C173.72 100.96 174.096 101.112 174.56 101.224C175.024 101.336 175.536 101.432 176.096 101.512C176.672 101.576 177.24 101.68 177.8 101.824C178.36 101.968 178.872 102.168 179.336 102.424C179.816 102.664 180.2 103.008 180.488 103.456C180.776 103.904 180.92 104.488 180.92 105.208C180.92 106.008 180.68 106.704 180.2 107.296C179.736 107.888 179.072 108.352 178.208 108.688C177.344 109.008 176.312 109.168 175.112 109.168Z" fill="#F1F0F5"/>
<path d="M281.113 95.096C280.26 95.096 279.47 94.9573 278.745 94.68C278.03 94.392 277.406 93.992 276.873 93.48C276.35 92.968 275.94 92.3653 275.641 91.672C275.353 90.9787 275.209 90.2213 275.209 89.4C275.209 88.5787 275.353 87.8213 275.641 87.128C275.94 86.4347 276.356 85.832 276.889 85.32C277.422 84.808 278.046 84.4133 278.761 84.136C279.486 83.848 280.276 83.704 281.129 83.704C281.982 83.704 282.761 83.8373 283.465 84.104C284.18 84.3707 284.788 84.776 285.289 85.32L284.553 86.072C284.084 85.6027 283.566 85.2667 283.001 85.064C282.436 84.8613 281.828 84.76 281.177 84.76C280.484 84.76 279.844 84.8773 279.257 85.112C278.681 85.336 278.174 85.6613 277.737 86.088C277.31 86.504 276.974 86.9947 276.729 87.56C276.494 88.1147 276.377 88.728 276.377 89.4C276.377 90.0613 276.494 90.6747 276.729 91.24C276.974 91.8053 277.31 92.3013 277.737 92.728C278.174 93.144 278.681 93.4693 279.257 93.704C279.844 93.928 280.478 94.04 281.161 94.04C281.801 94.04 282.404 93.944 282.969 93.752C283.545 93.56 284.073 93.2347 284.553 92.776L285.225 93.672C284.692 94.1413 284.068 94.4987 283.353 94.744C282.638 94.9787 281.892 95.096 281.113 95.096ZM284.089 93.528V89.4H285.225V93.672L284.089 93.528ZM291.904 95.08C291.029 95.08 290.261 94.8987 289.6 94.536C288.939 94.1627 288.421 93.656 288.048 93.016C287.675 92.3653 287.488 91.624 287.488 90.792C287.488 89.96 287.664 89.224 288.016 88.584C288.379 87.944 288.869 87.4427 289.488 87.08C290.117 86.7067 290.821 86.52 291.6 86.52C292.389 86.52 293.088 86.7013 293.696 87.064C294.315 87.416 294.8 87.9173 295.152 88.568C295.504 89.208 295.68 89.9493 295.68 90.792C295.68 90.8453 295.675 90.904 295.664 90.968C295.664 91.0213 295.664 91.08 295.664 91.144H288.352V90.296H295.056L294.608 90.632C294.608 90.024 294.475 89.4853 294.208 89.016C293.952 88.536 293.6 88.1627 293.152 87.896C292.704 87.6293 292.187 87.496 291.6 87.496C291.024 87.496 290.507 87.6293 290.048 87.896C289.589 88.1627 289.232 88.536 288.976 89.016C288.72 89.496 288.592 90.0453 288.592 90.664V90.84C288.592 91.48 288.731 92.0453 289.008 92.536C289.296 93.016 289.691 93.3947 290.192 93.672C290.704 93.9387 291.285 94.072 291.936 94.072C292.448 94.072 292.923 93.9813 293.36 93.8C293.808 93.6187 294.192 93.3413 294.512 92.968L295.152 93.704C294.779 94.152 294.309 94.4933 293.744 94.728C293.189 94.9627 292.576 95.08 291.904 95.08ZM297.992 95V86.6H299.08V88.888L298.968 88.488C299.203 87.848 299.598 87.3627 300.152 87.032C300.707 86.6907 301.395 86.52 302.216 86.52V87.624C302.174 87.624 302.131 87.624 302.088 87.624C302.046 87.6133 302.003 87.608 301.96 87.608C301.075 87.608 300.382 87.88 299.88 88.424C299.379 88.9573 299.128 89.72 299.128 90.712V95H297.992ZM307.779 95.08C306.904 95.08 306.136 94.8987 305.475 94.536C304.814 94.1627 304.296 93.656 303.923 93.016C303.55 92.3653 303.363 91.624 303.363 90.792C303.363 89.96 303.539 89.224 303.891 88.584C304.254 87.944 304.744 87.4427 305.363 87.08C305.992 86.7067 306.696 86.52 307.475 86.52C308.264 86.52 308.963 86.7013 309.571 87.064C310.19 87.416 310.675 87.9173 311.027 88.568C311.379 89.208 311.555 89.9493 311.555 90.792C311.555 90.8453 311.55 90.904 311.539 90.968C311.539 91.0213 311.539 91.08 311.539 91.144H304.227V90.296H310.931L310.483 90.632C310.483 90.024 310.35 89.4853 310.083 89.016C309.827 88.536 309.475 88.1627 309.027 87.896C308.579 87.6293 308.062 87.496 307.475 87.496C306.899 87.496 306.382 87.6293 305.923 87.896C305.464 88.1627 305.107 88.536 304.851 89.016C304.595 89.496 304.467 90.0453 304.467 90.664V90.84C304.467 91.48 304.606 92.0453 304.883 92.536C305.171 93.016 305.566 93.3947 306.067 93.672C306.579 93.9387 307.16 94.072 307.811 94.072C308.323 94.072 308.798 93.9813 309.235 93.8C309.683 93.6187 310.067 93.3413 310.387 92.968L311.027 93.704C310.654 94.152 310.184 94.4933 309.619 94.728C309.064 94.9627 308.451 95.08 307.779 95.08ZM318.155 86.52C318.838 86.52 319.435 86.6533 319.947 86.92C320.47 87.176 320.875 87.5707 321.163 88.104C321.462 88.6373 321.611 89.3093 321.611 90.12V95H320.475V90.232C320.475 89.3467 320.251 88.68 319.803 88.232C319.366 87.7733 318.747 87.544 317.947 87.544C317.35 87.544 316.827 87.6667 316.379 87.912C315.942 88.1467 315.601 88.4933 315.355 88.952C315.121 89.4 315.003 89.944 315.003 90.584V95H313.867V86.6H314.955V88.904L314.779 88.472C315.046 87.864 315.473 87.3893 316.059 87.048C316.646 86.696 317.345 86.52 318.155 86.52ZM328.168 95.08C327.336 95.08 326.589 94.8987 325.928 94.536C325.277 94.1627 324.765 93.656 324.392 93.016C324.018 92.3653 323.832 91.624 323.832 90.792C323.832 89.9493 324.018 89.208 324.392 88.568C324.765 87.928 325.277 87.4267 325.928 87.064C326.589 86.7013 327.336 86.52 328.168 86.52C328.882 86.52 329.528 86.6587 330.104 86.936C330.68 87.2133 331.133 87.6293 331.464 88.184L330.616 88.76C330.328 88.3333 329.97 88.0187 329.544 87.816C329.117 87.6133 328.653 87.512 328.152 87.512C327.554 87.512 327.016 87.6507 326.536 87.928C326.056 88.1947 325.677 88.5733 325.4 89.064C325.122 89.5547 324.984 90.1307 324.984 90.792C324.984 91.4533 325.122 92.0293 325.4 92.52C325.677 93.0107 326.056 93.3947 326.536 93.672C327.016 93.9387 327.554 94.072 328.152 94.072C328.653 94.072 329.117 93.9707 329.544 93.768C329.97 93.5653 330.328 93.256 330.616 92.84L331.464 93.416C331.133 93.96 330.68 94.376 330.104 94.664C329.528 94.9413 328.882 95.08 328.168 95.08ZM333.57 95V86.6H334.706V95H333.57ZM334.146 84.744C333.912 84.744 333.714 84.664 333.554 84.504C333.394 84.344 333.314 84.152 333.314 83.928C333.314 83.704 333.394 83.5173 333.554 83.368C333.714 83.208 333.912 83.128 334.146 83.128C334.381 83.128 334.578 83.2027 334.738 83.352C334.898 83.5013 334.978 83.688 334.978 83.912C334.978 84.1467 334.898 84.344 334.738 84.504C334.589 84.664 334.392 84.744 334.146 84.744ZM341.435 95.08C340.561 95.08 339.793 94.8987 339.131 94.536C338.47 94.1627 337.953 93.656 337.579 93.016C337.206 92.3653 337.019 91.624 337.019 90.792C337.019 89.96 337.195 89.224 337.547 88.584C337.91 87.944 338.401 87.4427 339.019 87.08C339.649 86.7067 340.353 86.52 341.131 86.52C341.921 86.52 342.619 86.7013 343.227 87.064C343.846 87.416 344.331 87.9173 344.683 88.568C345.035 89.208 345.211 89.9493 345.211 90.792C345.211 90.8453 345.206 90.904 345.195 90.968C345.195 91.0213 345.195 91.08 345.195 91.144H337.883V90.296H344.587L344.139 90.632C344.139 90.024 344.006 89.4853 343.739 89.016C343.483 88.536 343.131 88.1627 342.683 87.896C342.235 87.6293 341.718 87.496 341.131 87.496C340.555 87.496 340.038 87.6293 339.579 87.896C339.121 88.1627 338.763 88.536 338.507 89.016C338.251 89.496 338.123 90.0453 338.123 90.664V90.84C338.123 91.48 338.262 92.0453 338.539 92.536C338.827 93.016 339.222 93.3947 339.723 93.672C340.235 93.9387 340.817 94.072 341.467 94.072C341.979 94.072 342.454 93.9813 342.891 93.8C343.339 93.6187 343.723 93.3413 344.043 92.968L344.683 93.704C344.31 94.152 343.841 94.4933 343.275 94.728C342.721 94.9627 342.107 95.08 341.435 95.08ZM355.279 95.08C354.404 95.08 353.636 94.8987 352.975 94.536C352.314 94.1627 351.796 93.656 351.423 93.016C351.05 92.3653 350.863 91.624 350.863 90.792C350.863 89.96 351.039 89.224 351.391 88.584C351.754 87.944 352.244 87.4427 352.863 87.08C353.492 86.7067 354.196 86.52 354.975 86.52C355.764 86.52 356.463 86.7013 357.071 87.064C357.69 87.416 358.175 87.9173 358.527 88.568C358.879 89.208 359.055 89.9493 359.055 90.792C359.055 90.8453 359.05 90.904 359.039 90.968C359.039 91.0213 359.039 91.08 359.039 91.144H351.727V90.296H358.431L357.983 90.632C357.983 90.024 357.85 89.4853 357.583 89.016C357.327 88.536 356.975 88.1627 356.527 87.896C356.079 87.6293 355.562 87.496 354.975 87.496C354.399 87.496 353.882 87.6293 353.423 87.896C352.964 88.1627 352.607 88.536 352.351 89.016C352.095 89.496 351.967 90.0453 351.967 90.664V90.84C351.967 91.48 352.106 92.0453 352.383 92.536C352.671 93.016 353.066 93.3947 353.567 93.672C354.079 93.9387 354.66 94.072 355.311 94.072C355.823 94.072 356.298 93.9813 356.735 93.8C357.183 93.6187 357.567 93.3413 357.887 92.968L358.527 93.704C358.154 94.152 357.684 94.4933 357.119 94.728C356.564 94.9627 355.951 95.08 355.279 95.08ZM363.623 95.08C362.93 95.08 362.274 94.984 361.655 94.792C361.037 94.5893 360.551 94.3387 360.199 94.04L360.711 93.144C361.053 93.4 361.49 93.624 362.023 93.816C362.557 93.9973 363.117 94.088 363.703 94.088C364.503 94.088 365.079 93.9653 365.431 93.72C365.783 93.464 365.959 93.128 365.959 92.712C365.959 92.4027 365.858 92.1627 365.655 91.992C365.463 91.8107 365.207 91.6773 364.887 91.592C364.567 91.496 364.21 91.416 363.815 91.352C363.421 91.288 363.026 91.2133 362.631 91.128C362.247 91.0427 361.895 90.92 361.575 90.76C361.255 90.5893 360.994 90.36 360.791 90.072C360.599 89.784 360.503 89.4 360.503 88.92C360.503 88.4613 360.631 88.0507 360.887 87.688C361.143 87.3253 361.517 87.0427 362.007 86.84C362.509 86.6267 363.117 86.52 363.831 86.52C364.375 86.52 364.919 86.5947 365.463 86.744C366.007 86.8827 366.455 87.0693 366.807 87.304L366.311 88.216C365.938 87.96 365.538 87.7787 365.111 87.672C364.685 87.5547 364.258 87.496 363.831 87.496C363.074 87.496 362.514 87.6293 362.151 87.896C361.799 88.152 361.623 88.4827 361.623 88.888C361.623 89.208 361.719 89.4587 361.911 89.64C362.114 89.8213 362.375 89.9653 362.695 90.072C363.026 90.168 363.383 90.248 363.767 90.312C364.162 90.376 364.551 90.456 364.935 90.552C365.33 90.6373 365.687 90.76 366.007 90.92C366.338 91.0693 366.599 91.288 366.791 91.576C366.994 91.8533 367.095 92.2213 367.095 92.68C367.095 93.1707 366.957 93.5973 366.679 93.96C366.413 94.312 366.018 94.5893 365.495 94.792C364.983 94.984 364.359 95.08 363.623 95.08ZM373.516 95.08C372.79 95.08 372.134 94.9147 371.548 94.584C370.961 94.2427 370.492 93.7573 370.14 93.128C369.798 92.488 369.628 91.7093 369.628 90.792C369.628 89.8747 369.798 89.1013 370.14 88.472C370.481 87.832 370.945 87.3467 371.532 87.016C372.118 86.6853 372.78 86.52 373.516 86.52C374.316 86.52 375.03 86.7013 375.66 87.064C376.3 87.416 376.801 87.9173 377.164 88.568C377.526 89.208 377.708 89.9493 377.708 90.792C377.708 91.6453 377.526 92.392 377.164 93.032C376.801 93.672 376.3 94.1733 375.66 94.536C375.03 94.8987 374.316 95.08 373.516 95.08ZM369.18 98.104V86.6H370.268V89.128L370.156 90.808L370.316 92.504V98.104H369.18ZM373.436 94.072C374.033 94.072 374.566 93.9387 375.036 93.672C375.505 93.3947 375.878 93.0107 376.156 92.52C376.433 92.0187 376.572 91.4427 376.572 90.792C376.572 90.1413 376.433 89.5707 376.156 89.08C375.878 88.5893 375.505 88.2053 375.036 87.928C374.566 87.6507 374.033 87.512 373.436 87.512C372.838 87.512 372.3 87.6507 371.82 87.928C371.35 88.2053 370.977 88.5893 370.7 89.08C370.433 89.5707 370.3 90.1413 370.3 90.792C370.3 91.4427 370.433 92.0187 370.7 92.52C370.977 93.0107 371.35 93.3947 371.82 93.672C372.3 93.9387 372.838 94.072 373.436 94.072ZM385.241 95V93.144L385.193 92.84V89.736C385.193 89.0213 384.99 88.472 384.585 88.088C384.19 87.704 383.598 87.512 382.809 87.512C382.265 87.512 381.747 87.6027 381.257 87.784C380.766 87.9653 380.35 88.2053 380.009 88.504L379.497 87.656C379.923 87.2933 380.435 87.016 381.033 86.824C381.63 86.6213 382.259 86.52 382.921 86.52C384.009 86.52 384.846 86.792 385.433 87.336C386.03 87.8693 386.329 88.6853 386.329 89.784V95H385.241ZM382.345 95.08C381.715 95.08 381.166 94.9787 380.697 94.776C380.238 94.5627 379.886 94.2747 379.641 93.912C379.395 93.5387 379.273 93.112 379.273 92.632C379.273 92.1947 379.374 91.8 379.577 91.448C379.79 91.0853 380.131 90.7973 380.601 90.584C381.081 90.36 381.721 90.248 382.521 90.248H385.417V91.096H382.553C381.742 91.096 381.177 91.24 380.857 91.528C380.547 91.816 380.393 92.1733 380.393 92.6C380.393 93.08 380.579 93.464 380.953 93.752C381.326 94.04 381.849 94.184 382.521 94.184C383.161 94.184 383.71 94.04 384.169 93.752C384.638 93.4533 384.979 93.0267 385.193 92.472L385.449 93.256C385.235 93.8107 384.862 94.2533 384.329 94.584C383.806 94.9147 383.145 95.08 382.345 95.08ZM392.902 95.08C392.07 95.08 391.323 94.8987 390.662 94.536C390.011 94.1627 389.499 93.656 389.126 93.016C388.753 92.3653 388.566 91.624 388.566 90.792C388.566 89.9493 388.753 89.208 389.126 88.568C389.499 87.928 390.011 87.4267 390.662 87.064C391.323 86.7013 392.07 86.52 392.902 86.52C393.617 86.52 394.262 86.6587 394.838 86.936C395.414 87.2133 395.867 87.6293 396.198 88.184L395.35 88.76C395.062 88.3333 394.705 88.0187 394.278 87.816C393.851 87.6133 393.387 87.512 392.886 87.512C392.289 87.512 391.75 87.6507 391.27 87.928C390.79 88.1947 390.411 88.5733 390.134 89.064C389.857 89.5547 389.718 90.1307 389.718 90.792C389.718 91.4533 389.857 92.0293 390.134 92.52C390.411 93.0107 390.79 93.3947 391.27 93.672C391.75 93.9387 392.289 94.072 392.886 94.072C393.387 94.072 393.851 93.9707 394.278 93.768C394.705 93.5653 395.062 93.256 395.35 92.84L396.198 93.416C395.867 93.96 395.414 94.376 394.838 94.664C394.262 94.9413 393.617 95.08 392.902 95.08ZM392.23 98.52C391.963 98.52 391.718 98.488 391.494 98.424C391.281 98.36 391.078 98.2693 390.886 98.152L391.158 97.544C391.318 97.64 391.483 97.7147 391.654 97.768C391.835 97.8213 392.022 97.848 392.214 97.848C392.534 97.848 392.779 97.7787 392.95 97.64C393.121 97.512 393.206 97.3307 393.206 97.096C393.206 96.8827 393.121 96.7067 392.95 96.568C392.79 96.4293 392.545 96.36 392.214 96.36H391.846L392.23 94.904H392.918L392.678 95.832C393.115 95.864 393.451 95.9973 393.686 96.232C393.921 96.4773 394.038 96.776 394.038 97.128C394.038 97.5547 393.867 97.8907 393.526 98.136C393.195 98.392 392.763 98.52 392.23 98.52ZM401.713 95.08C400.902 95.08 400.172 94.8987 399.521 94.536C398.881 94.1627 398.374 93.656 398.001 93.016C397.628 92.3653 397.441 91.624 397.441 90.792C397.441 89.9493 397.628 89.208 398.001 88.568C398.374 87.928 398.881 87.4267 399.521 87.064C400.161 86.7013 400.892 86.52 401.713 86.52C402.545 86.52 403.281 86.7013 403.921 87.064C404.572 87.4267 405.078 87.928 405.441 88.568C405.814 89.208 406.001 89.9493 406.001 90.792C406.001 91.624 405.814 92.3653 405.441 93.016C405.078 93.656 404.572 94.1627 403.921 94.536C403.27 94.8987 402.534 95.08 401.713 95.08ZM401.713 94.072C402.321 94.072 402.86 93.9387 403.329 93.672C403.798 93.3947 404.166 93.0107 404.433 92.52C404.71 92.0187 404.849 91.4427 404.849 90.792C404.849 90.1307 404.71 89.5547 404.433 89.064C404.166 88.5733 403.798 88.1947 403.329 87.928C402.86 87.6507 402.326 87.512 401.729 87.512C401.132 87.512 400.598 87.6507 400.129 87.928C399.66 88.1947 399.286 88.5733 399.009 89.064C398.732 89.5547 398.593 90.1307 398.593 90.792C398.593 91.4427 398.732 92.0187 399.009 92.52C399.286 93.0107 399.66 93.3947 400.129 93.672C400.598 93.9387 401.126 94.072 401.713 94.072ZM410.576 95.08C409.883 95.08 409.227 94.984 408.608 94.792C407.99 94.5893 407.504 94.3387 407.152 94.04L407.664 93.144C408.006 93.4 408.443 93.624 408.976 93.816C409.51 93.9973 410.07 94.088 410.656 94.088C411.456 94.088 412.032 93.9653 412.384 93.72C412.736 93.464 412.912 93.128 412.912 92.712C412.912 92.4027 412.811 92.1627 412.608 91.992C412.416 91.8107 412.16 91.6773 411.84 91.592C411.52 91.496 411.163 91.416 410.768 91.352C410.374 91.288 409.979 91.2133 409.584 91.128C409.2 91.0427 408.848 90.92 408.528 90.76C408.208 90.5893 407.947 90.36 407.744 90.072C407.552 89.784 407.456 89.4 407.456 88.92C407.456 88.4613 407.584 88.0507 407.84 87.688C408.096 87.3253 408.47 87.0427 408.96 86.84C409.462 86.6267 410.07 86.52 410.784 86.52C411.328 86.52 411.872 86.5947 412.416 86.744C412.96 86.8827 413.408 87.0693 413.76 87.304L413.264 88.216C412.891 87.96 412.491 87.7787 412.064 87.672C411.638 87.5547 411.211 87.496 410.784 87.496C410.027 87.496 409.467 87.6293 409.104 87.896C408.752 88.152 408.576 88.4827 408.576 88.888C408.576 89.208 408.672 89.4587 408.864 89.64C409.067 89.8213 409.328 89.9653 409.648 90.072C409.979 90.168 410.336 90.248 410.72 90.312C411.115 90.376 411.504 90.456 411.888 90.552C412.283 90.6373 412.64 90.76 412.96 90.92C413.291 91.0693 413.552 91.288 413.744 91.576C413.947 91.8533 414.048 92.2213 414.048 92.68C414.048 93.1707 413.91 93.5973 413.632 93.96C413.366 94.312 412.971 94.5893 412.448 94.792C411.936 94.984 411.312 95.08 410.576 95.08ZM420.32 95V83.128H421.456V95H420.32ZM428.041 95.08C427.231 95.08 426.5 94.8987 425.849 94.536C425.209 94.1627 424.703 93.656 424.329 93.016C423.956 92.3653 423.769 91.624 423.769 90.792C423.769 89.9493 423.956 89.208 424.329 88.568C424.703 87.928 425.209 87.4267 425.849 87.064C426.489 86.7013 427.22 86.52 428.041 86.52C428.873 86.52 429.609 86.7013 430.249 87.064C430.9 87.4267 431.407 87.928 431.769 88.568C432.143 89.208 432.329 89.9493 432.329 90.792C432.329 91.624 432.143 92.3653 431.769 93.016C431.407 93.656 430.9 94.1627 430.249 94.536C429.599 94.8987 428.863 95.08 428.041 95.08ZM428.041 94.072C428.649 94.072 429.188 93.9387 429.657 93.672C430.127 93.3947 430.495 93.0107 430.761 92.52C431.039 92.0187 431.177 91.4427 431.177 90.792C431.177 90.1307 431.039 89.5547 430.761 89.064C430.495 88.5733 430.127 88.1947 429.657 87.928C429.188 87.6507 428.655 87.512 428.057 87.512C427.46 87.512 426.927 87.6507 426.457 87.928C425.988 88.1947 425.615 88.5733 425.337 89.064C425.06 89.5547 424.921 90.1307 424.921 90.792C424.921 91.4427 425.06 92.0187 425.337 92.52C425.615 93.0107 425.988 93.3947 426.457 93.672C426.927 93.9387 427.455 94.072 428.041 94.072ZM438.136 95.08C437.304 95.08 436.558 94.8987 435.896 94.536C435.246 94.1627 434.734 93.656 434.36 93.016C433.987 92.3653 433.8 91.624 433.8 90.792C433.8 89.9493 433.987 89.208 434.36 88.568C434.734 87.928 435.246 87.4267 435.896 87.064C436.558 86.7013 437.304 86.52 438.136 86.52C438.851 86.52 439.496 86.6587 440.072 86.936C440.648 87.2133 441.102 87.6293 441.432 88.184L440.584 88.76C440.296 88.3333 439.939 88.0187 439.512 87.816C439.086 87.6133 438.622 87.512 438.12 87.512C437.523 87.512 436.984 87.6507 436.504 87.928C436.024 88.1947 435.646 88.5733 435.368 89.064C435.091 89.5547 434.952 90.1307 434.952 90.792C434.952 91.4533 435.091 92.0293 435.368 92.52C435.646 93.0107 436.024 93.3947 436.504 93.672C436.984 93.9387 437.523 94.072 438.12 94.072C438.622 94.072 439.086 93.9707 439.512 93.768C439.939 93.5653 440.296 93.256 440.584 92.84L441.432 93.416C441.102 93.96 440.648 94.376 440.072 94.664C439.496 94.9413 438.851 95.08 438.136 95.08ZM448.928 95V93.144L448.88 92.84V89.736C448.88 89.0213 448.677 88.472 448.272 88.088C447.877 87.704 447.285 87.512 446.496 87.512C445.952 87.512 445.435 87.6027 444.944 87.784C444.453 87.9653 444.037 88.2053 443.696 88.504L443.184 87.656C443.611 87.2933 444.123 87.016 444.72 86.824C445.317 86.6213 445.947 86.52 446.608 86.52C447.696 86.52 448.533 86.792 449.12 87.336C449.717 87.8693 450.016 88.6853 450.016 89.784V95H448.928ZM446.032 95.08C445.403 95.08 444.853 94.9787 444.384 94.776C443.925 94.5627 443.573 94.2747 443.328 93.912C443.083 93.5387 442.96 93.112 442.96 92.632C442.96 92.1947 443.061 91.8 443.264 91.448C443.477 91.0853 443.819 90.7973 444.288 90.584C444.768 90.36 445.408 90.248 446.208 90.248H449.104V91.096H446.24C445.429 91.096 444.864 91.24 444.544 91.528C444.235 91.816 444.08 92.1733 444.08 92.6C444.08 93.08 444.267 93.464 444.64 93.752C445.013 94.04 445.536 94.184 446.208 94.184C446.848 94.184 447.397 94.04 447.856 93.752C448.325 93.4533 448.667 93.0267 448.88 92.472L449.136 93.256C448.923 93.8107 448.549 94.2533 448.016 94.584C447.493 94.9147 446.832 95.08 446.032 95.08ZM456.446 95.08C455.646 95.08 454.926 94.8987 454.286 94.536C453.656 94.1733 453.16 93.672 452.798 93.032C452.435 92.3813 452.254 91.6347 452.254 90.792C452.254 89.9387 452.435 89.192 452.798 88.552C453.16 87.912 453.656 87.416 454.286 87.064C454.926 86.7013 455.646 86.52 456.446 86.52C457.182 86.52 457.838 86.6853 458.414 87.016C459 87.3467 459.464 87.832 459.806 88.472C460.158 89.1013 460.334 89.8747 460.334 90.792C460.334 91.6987 460.163 92.472 459.822 93.112C459.48 93.752 459.016 94.2427 458.43 94.584C457.854 94.9147 457.192 95.08 456.446 95.08ZM456.526 94.072C457.123 94.072 457.656 93.9387 458.126 93.672C458.606 93.3947 458.979 93.0107 459.246 92.52C459.523 92.0187 459.662 91.4427 459.662 90.792C459.662 90.1307 459.523 89.5547 459.246 89.064C458.979 88.5733 458.606 88.1947 458.126 87.928C457.656 87.6507 457.123 87.512 456.526 87.512C455.939 87.512 455.411 87.6507 454.942 87.928C454.472 88.1947 454.099 88.5733 453.822 89.064C453.544 89.5547 453.406 90.1307 453.406 90.792C453.406 91.4427 453.544 92.0187 453.822 92.52C454.099 93.0107 454.472 93.3947 454.942 93.672C455.411 93.9387 455.939 94.072 456.526 94.072ZM459.694 95V92.472L459.806 90.776L459.646 89.08V83.128H460.782V95H459.694ZM467.369 95.08C466.559 95.08 465.828 94.8987 465.177 94.536C464.537 94.1627 464.031 93.656 463.657 93.016C463.284 92.3653 463.097 91.624 463.097 90.792C463.097 89.9493 463.284 89.208 463.657 88.568C464.031 87.928 464.537 87.4267 465.177 87.064C465.817 86.7013 466.548 86.52 467.369 86.52C468.201 86.52 468.937 86.7013 469.577 87.064C470.228 87.4267 470.735 87.928 471.097 88.568C471.471 89.208 471.657 89.9493 471.657 90.792C471.657 91.624 471.471 92.3653 471.097 93.016C470.735 93.656 470.228 94.1627 469.577 94.536C468.927 94.8987 468.191 95.08 467.369 95.08ZM467.369 94.072C467.977 94.072 468.516 93.9387 468.985 93.672C469.455 93.3947 469.823 93.0107 470.089 92.52C470.367 92.0187 470.505 91.4427 470.505 90.792C470.505 90.1307 470.367 89.5547 470.089 89.064C469.823 88.5733 469.455 88.1947 468.985 87.928C468.516 87.6507 467.983 87.512 467.385 87.512C466.788 87.512 466.255 87.6507 465.785 87.928C465.316 88.1947 464.943 88.5733 464.665 89.064C464.388 89.5547 464.249 90.1307 464.249 90.792C464.249 91.4427 464.388 92.0187 464.665 92.52C464.943 93.0107 465.316 93.3947 465.785 93.672C466.255 93.9387 466.783 94.072 467.369 94.072ZM476.233 95.08C475.539 95.08 474.883 94.984 474.265 94.792C473.646 94.5893 473.161 94.3387 472.809 94.04L473.321 93.144C473.662 93.4 474.099 93.624 474.633 93.816C475.166 93.9973 475.726 94.088 476.313 94.088C477.113 94.088 477.689 93.9653 478.041 93.72C478.393 93.464 478.569 93.128 478.569 92.712C478.569 92.4027 478.467 92.1627 478.265 91.992C478.073 91.8107 477.817 91.6773 477.497 91.592C477.177 91.496 476.819 91.416 476.425 91.352C476.03 91.288 475.635 91.2133 475.241 91.128C474.857 91.0427 474.505 90.92 474.185 90.76C473.865 90.5893 473.603 90.36 473.401 90.072C473.209 89.784 473.113 89.4 473.113 88.92C473.113 88.4613 473.241 88.0507 473.497 87.688C473.753 87.3253 474.126 87.0427 474.617 86.84C475.118 86.6267 475.726 86.52 476.441 86.52C476.985 86.52 477.529 86.5947 478.073 86.744C478.617 86.8827 479.065 87.0693 479.417 87.304L478.921 88.216C478.547 87.96 478.147 87.7787 477.721 87.672C477.294 87.5547 476.867 87.496 476.441 87.496C475.683 87.496 475.123 87.6293 474.761 87.896C474.409 88.152 474.233 88.4827 474.233 88.888C474.233 89.208 474.329 89.4587 474.521 89.64C474.723 89.8213 474.985 89.9653 475.305 90.072C475.635 90.168 475.993 90.248 476.377 90.312C476.771 90.376 477.161 90.456 477.545 90.552C477.939 90.6373 478.297 90.76 478.617 90.92C478.947 91.0693 479.209 91.288 479.401 91.576C479.603 91.8533 479.705 92.2213 479.705 92.68C479.705 93.1707 479.566 93.5973 479.289 93.96C479.022 94.312 478.627 94.5893 478.105 94.792C477.593 94.984 476.969 95.08 476.233 95.08ZM279.449 117.08C278.617 117.08 277.87 116.899 277.209 116.536C276.558 116.163 276.046 115.656 275.673 115.016C275.3 114.365 275.113 113.624 275.113 112.792C275.113 111.949 275.3 111.208 275.673 110.568C276.046 109.928 276.558 109.427 277.209 109.064C277.87 108.701 278.617 108.52 279.449 108.52C280.164 108.52 280.809 108.659 281.385 108.936C281.961 109.213 282.414 109.629 282.745 110.184L281.897 110.76C281.609 110.333 281.252 110.019 280.825 109.816C280.398 109.613 279.934 109.512 279.433 109.512C278.836 109.512 278.297 109.651 277.817 109.928C277.337 110.195 276.958 110.573 276.681 111.064C276.404 111.555 276.265 112.131 276.265 112.792C276.265 113.453 276.404 114.029 276.681 114.52C276.958 115.011 277.337 115.395 277.817 115.672C278.297 115.939 278.836 116.072 279.433 116.072C279.934 116.072 280.398 115.971 280.825 115.768C281.252 115.565 281.609 115.256 281.897 114.84L282.745 115.416C282.414 115.96 281.961 116.376 281.385 116.664C280.809 116.941 280.164 117.08 279.449 117.08ZM288.26 117.08C287.449 117.08 286.719 116.899 286.068 116.536C285.428 116.163 284.921 115.656 284.548 115.016C284.175 114.365 283.988 113.624 283.988 112.792C283.988 111.949 284.175 111.208 284.548 110.568C284.921 109.928 285.428 109.427 286.068 109.064C286.708 108.701 287.439 108.52 288.26 108.52C289.092 108.52 289.828 108.701 290.468 109.064C291.119 109.427 291.625 109.928 291.988 110.568C292.361 111.208 292.548 111.949 292.548 112.792C292.548 113.624 292.361 114.365 291.988 115.016C291.625 115.656 291.119 116.163 290.468 116.536C289.817 116.899 289.081 117.08 288.26 117.08ZM288.26 116.072C288.868 116.072 289.407 115.939 289.876 115.672C290.345 115.395 290.713 115.011 290.98 114.52C291.257 114.019 291.396 113.443 291.396 112.792C291.396 112.131 291.257 111.555 290.98 111.064C290.713 110.573 290.345 110.195 289.876 109.928C289.407 109.651 288.873 109.512 288.276 109.512C287.679 109.512 287.145 109.651 286.676 109.928C286.207 110.195 285.833 110.573 285.556 111.064C285.279 111.555 285.14 112.131 285.14 112.792C285.14 113.443 285.279 114.019 285.556 114.52C285.833 115.011 286.207 115.395 286.676 115.672C287.145 115.939 287.673 116.072 288.26 116.072ZM305.363 108.52C306.046 108.52 306.638 108.653 307.139 108.92C307.651 109.176 308.046 109.571 308.323 110.104C308.611 110.637 308.755 111.309 308.755 112.12V117H307.619V112.232C307.619 111.347 307.406 110.68 306.979 110.232C306.563 109.773 305.971 109.544 305.203 109.544C304.627 109.544 304.126 109.667 303.699 109.912C303.283 110.147 302.958 110.493 302.723 110.952C302.499 111.4 302.387 111.944 302.387 112.584V117H301.251V112.232C301.251 111.347 301.038 110.68 300.611 110.232C300.185 109.773 299.587 109.544 298.819 109.544C298.254 109.544 297.758 109.667 297.331 109.912C296.905 110.147 296.574 110.493 296.339 110.952C296.115 111.4 296.003 111.944 296.003 112.584V117H294.867V108.6H295.955V110.872L295.779 110.472C296.035 109.864 296.446 109.389 297.011 109.048C297.587 108.696 298.265 108.52 299.043 108.52C299.865 108.52 300.563 108.728 301.139 109.144C301.715 109.549 302.089 110.163 302.259 110.984L301.811 110.808C302.057 110.125 302.489 109.576 303.107 109.16C303.737 108.733 304.489 108.52 305.363 108.52ZM316.215 117V107.544C316.215 106.797 316.434 106.195 316.871 105.736C317.309 105.277 317.938 105.048 318.759 105.048C319.079 105.048 319.389 105.091 319.687 105.176C319.986 105.261 320.237 105.395 320.439 105.576L320.055 106.424C319.895 106.285 319.709 106.184 319.495 106.12C319.282 106.045 319.053 106.008 318.807 106.008C318.327 106.008 317.959 106.141 317.703 106.408C317.447 106.675 317.319 107.069 317.319 107.592V108.872L317.351 109.4V117H316.215ZM314.711 109.544V108.6H319.911V109.544H314.711ZM326.553 117V115.144L326.505 114.84V111.736C326.505 111.021 326.302 110.472 325.897 110.088C325.502 109.704 324.91 109.512 324.121 109.512C323.577 109.512 323.06 109.603 322.569 109.784C322.078 109.965 321.662 110.205 321.321 110.504L320.809 109.656C321.236 109.293 321.748 109.016 322.345 108.824C322.942 108.621 323.572 108.52 324.233 108.52C325.321 108.52 326.158 108.792 326.745 109.336C327.342 109.869 327.641 110.685 327.641 111.784V117H326.553ZM323.657 117.08C323.028 117.08 322.478 116.979 322.009 116.776C321.55 116.563 321.198 116.275 320.953 115.912C320.708 115.539 320.585 115.112 320.585 114.632C320.585 114.195 320.686 113.8 320.889 113.448C321.102 113.085 321.444 112.797 321.913 112.584C322.393 112.36 323.033 112.248 323.833 112.248H326.729V113.096H323.865C323.054 113.096 322.489 113.24 322.169 113.528C321.86 113.816 321.705 114.173 321.705 114.6C321.705 115.08 321.892 115.464 322.265 115.752C322.638 116.04 323.161 116.184 323.833 116.184C324.473 116.184 325.022 116.04 325.481 115.752C325.95 115.453 326.292 115.027 326.505 114.472L326.761 115.256C326.548 115.811 326.174 116.253 325.641 116.584C325.118 116.915 324.457 117.08 323.657 117.08ZM334.215 117.08C333.383 117.08 332.636 116.899 331.975 116.536C331.324 116.163 330.812 115.656 330.439 115.016C330.065 114.365 329.879 113.624 329.879 112.792C329.879 111.949 330.065 111.208 330.439 110.568C330.812 109.928 331.324 109.427 331.975 109.064C332.636 108.701 333.383 108.52 334.215 108.52C334.929 108.52 335.575 108.659 336.151 108.936C336.727 109.213 337.18 109.629 337.511 110.184L336.663 110.76C336.375 110.333 336.017 110.019 335.591 109.816C335.164 109.613 334.7 109.512 334.199 109.512C333.601 109.512 333.063 109.651 332.583 109.928C332.103 110.195 331.724 110.573 331.447 111.064C331.169 111.555 331.031 112.131 331.031 112.792C331.031 113.453 331.169 114.029 331.447 114.52C331.724 115.011 332.103 115.395 332.583 115.672C333.063 115.939 333.601 116.072 334.199 116.072C334.7 116.072 335.164 115.971 335.591 115.768C336.017 115.565 336.375 115.256 336.663 114.84L337.511 115.416C337.18 115.96 336.727 116.376 336.151 116.664C335.575 116.941 334.929 117.08 334.215 117.08ZM339.617 117V108.6H340.753V117H339.617ZM340.193 106.744C339.959 106.744 339.761 106.664 339.601 106.504C339.441 106.344 339.361 106.152 339.361 105.928C339.361 105.704 339.441 105.517 339.601 105.368C339.761 105.208 339.959 105.128 340.193 105.128C340.428 105.128 340.625 105.203 340.785 105.352C340.945 105.501 341.025 105.688 341.025 105.912C341.025 106.147 340.945 106.344 340.785 106.504C340.636 106.664 340.439 106.744 340.193 106.744ZM343.914 117V105.128H345.05V117H343.914ZM348.211 117V108.6H349.347V117H348.211ZM348.787 106.744C348.552 106.744 348.355 106.664 348.195 106.504C348.035 106.344 347.955 106.152 347.955 105.928C347.955 105.704 348.035 105.517 348.195 105.368C348.355 105.208 348.552 105.128 348.787 105.128C349.022 105.128 349.219 105.203 349.379 105.352C349.539 105.501 349.619 105.688 349.619 105.912C349.619 106.147 349.539 106.344 349.379 106.504C349.23 106.664 349.032 106.744 348.787 106.744ZM355.852 117.08C355.052 117.08 354.332 116.899 353.692 116.536C353.062 116.173 352.566 115.672 352.204 115.032C351.841 114.381 351.66 113.635 351.66 112.792C351.66 111.939 351.841 111.192 352.204 110.552C352.566 109.912 353.062 109.416 353.692 109.064C354.332 108.701 355.052 108.52 355.852 108.52C356.588 108.52 357.244 108.685 357.82 109.016C358.406 109.347 358.87 109.832 359.212 110.472C359.564 111.101 359.74 111.875 359.74 112.792C359.74 113.699 359.569 114.472 359.228 115.112C358.886 115.752 358.422 116.243 357.836 116.584C357.26 116.915 356.598 117.08 355.852 117.08ZM355.932 116.072C356.529 116.072 357.062 115.939 357.532 115.672C358.012 115.395 358.385 115.011 358.652 114.52C358.929 114.019 359.068 113.443 359.068 112.792C359.068 112.131 358.929 111.555 358.652 111.064C358.385 110.573 358.012 110.195 357.532 109.928C357.062 109.651 356.529 109.512 355.932 109.512C355.345 109.512 354.817 109.651 354.348 109.928C353.878 110.195 353.505 110.573 353.228 111.064C352.95 111.555 352.812 112.131 352.812 112.792C352.812 113.443 352.95 114.019 353.228 114.52C353.505 115.011 353.878 115.395 354.348 115.672C354.817 115.939 355.345 116.072 355.932 116.072ZM359.1 117V114.472L359.212 112.776L359.052 111.08V105.128H360.188V117H359.1ZM368.616 117V115.144L368.568 114.84V111.736C368.568 111.021 368.365 110.472 367.96 110.088C367.565 109.704 366.973 109.512 366.184 109.512C365.64 109.512 365.122 109.603 364.632 109.784C364.141 109.965 363.725 110.205 363.384 110.504L362.872 109.656C363.298 109.293 363.81 109.016 364.408 108.824C365.005 108.621 365.634 108.52 366.296 108.52C367.384 108.52 368.221 108.792 368.808 109.336C369.405 109.869 369.704 110.685 369.704 111.784V117H368.616ZM365.72 117.08C365.09 117.08 364.541 116.979 364.072 116.776C363.613 116.563 363.261 116.275 363.016 115.912C362.77 115.539 362.648 115.112 362.648 114.632C362.648 114.195 362.749 113.8 362.952 113.448C363.165 113.085 363.506 112.797 363.976 112.584C364.456 112.36 365.096 112.248 365.896 112.248H368.792V113.096H365.928C365.117 113.096 364.552 113.24 364.232 113.528C363.922 113.816 363.768 114.173 363.768 114.6C363.768 115.08 363.954 115.464 364.328 115.752C364.701 116.04 365.224 116.184 365.896 116.184C366.536 116.184 367.085 116.04 367.544 115.752C368.013 115.453 368.354 115.027 368.568 114.472L368.824 115.256C368.61 115.811 368.237 116.253 367.704 116.584C367.181 116.915 366.52 117.08 365.72 117.08ZM376.133 117.08C375.333 117.08 374.613 116.899 373.973 116.536C373.344 116.173 372.848 115.672 372.485 115.032C372.122 114.381 371.941 113.635 371.941 112.792C371.941 111.939 372.122 111.192 372.485 110.552C372.848 109.912 373.344 109.416 373.973 109.064C374.613 108.701 375.333 108.52 376.133 108.52C376.869 108.52 377.525 108.685 378.101 109.016C378.688 109.347 379.152 109.832 379.493 110.472C379.845 111.101 380.021 111.875 380.021 112.792C380.021 113.699 379.85 114.472 379.509 115.112C379.168 115.752 378.704 116.243 378.117 116.584C377.541 116.915 376.88 117.08 376.133 117.08ZM376.213 116.072C376.81 116.072 377.344 115.939 377.813 115.672C378.293 115.395 378.666 115.011 378.933 114.52C379.21 114.019 379.349 113.443 379.349 112.792C379.349 112.131 379.21 111.555 378.933 111.064C378.666 110.573 378.293 110.195 377.813 109.928C377.344 109.651 376.81 109.512 376.213 109.512C375.626 109.512 375.098 109.651 374.629 109.928C374.16 110.195 373.786 110.573 373.509 111.064C373.232 111.555 373.093 112.131 373.093 112.792C373.093 113.443 373.232 114.019 373.509 114.52C373.786 115.011 374.16 115.395 374.629 115.672C375.098 115.939 375.626 116.072 376.213 116.072ZM379.381 117V114.472L379.493 112.776L379.333 111.08V105.128H380.469V117H379.381ZM387.201 117.08C386.326 117.08 385.558 116.899 384.897 116.536C384.235 116.163 383.718 115.656 383.345 115.016C382.971 114.365 382.785 113.624 382.785 112.792C382.785 111.96 382.961 111.224 383.313 110.584C383.675 109.944 384.166 109.443 384.785 109.08C385.414 108.707 386.118 108.52 386.897 108.52C387.686 108.52 388.385 108.701 388.993 109.064C389.611 109.416 390.097 109.917 390.449 110.568C390.801 111.208 390.977 111.949 390.977 112.792C390.977 112.845 390.971 112.904 390.961 112.968C390.961 113.021 390.961 113.08 390.961 113.144H383.649V112.296H390.353L389.905 112.632C389.905 112.024 389.771 111.485 389.505 111.016C389.249 110.536 388.897 110.163 388.449 109.896C388.001 109.629 387.483 109.496 386.897 109.496C386.321 109.496 385.803 109.629 385.345 109.896C384.886 110.163 384.529 110.536 384.273 111.016C384.017 111.496 383.889 112.045 383.889 112.664V112.84C383.889 113.48 384.027 114.045 384.305 114.536C384.593 115.016 384.987 115.395 385.489 115.672C386.001 115.939 386.582 116.072 387.233 116.072C387.745 116.072 388.219 115.981 388.657 115.8C389.105 115.619 389.489 115.341 389.809 114.968L390.449 115.704C390.075 116.152 389.606 116.493 389.041 116.728C388.486 116.963 387.873 117.08 387.201 117.08ZM401.045 117.08C400.17 117.08 399.402 116.899 398.741 116.536C398.079 116.163 397.562 115.656 397.189 115.016C396.815 114.365 396.629 113.624 396.629 112.792C396.629 111.96 396.805 111.224 397.157 110.584C397.519 109.944 398.01 109.443 398.629 109.08C399.258 108.707 399.962 108.52 400.741 108.52C401.53 108.52 402.229 108.701 402.837 109.064C403.455 109.416 403.941 109.917 404.293 110.568C404.645 111.208 404.821 111.949 404.821 112.792C404.821 112.845 404.815 112.904 404.805 112.968C404.805 113.021 404.805 113.08 404.805 113.144H397.493V112.296H404.197L403.749 112.632C403.749 112.024 403.615 111.485 403.349 111.016C403.093 110.536 402.741 110.163 402.293 109.896C401.845 109.629 401.327 109.496 400.741 109.496C400.165 109.496 399.647 109.629 399.189 109.896C398.73 110.163 398.373 110.536 398.117 111.016C397.861 111.496 397.733 112.045 397.733 112.664V112.84C397.733 113.48 397.871 114.045 398.149 114.536C398.437 115.016 398.831 115.395 399.333 115.672C399.845 115.939 400.426 116.072 401.077 116.072C401.589 116.072 402.063 115.981 402.501 115.8C402.949 115.619 403.333 115.341 403.653 114.968L404.293 115.704C403.919 116.152 403.45 116.493 402.885 116.728C402.33 116.963 401.717 117.08 401.045 117.08ZM414.888 117.08C414.014 117.08 413.246 116.899 412.584 116.536C411.923 116.163 411.406 115.656 411.032 115.016C410.659 114.365 410.472 113.624 410.472 112.792C410.472 111.96 410.648 111.224 411 110.584C411.363 109.944 411.854 109.443 412.472 109.08C413.102 108.707 413.806 108.52 414.584 108.52C415.374 108.52 416.072 108.701 416.68 109.064C417.299 109.416 417.784 109.917 418.136 110.568C418.488 111.208 418.664 111.949 418.664 112.792C418.664 112.845 418.659 112.904 418.648 112.968C418.648 113.021 418.648 113.08 418.648 113.144H411.336V112.296H418.04L417.592 112.632C417.592 112.024 417.459 111.485 417.192 111.016C416.936 110.536 416.584 110.163 416.136 109.896C415.688 109.629 415.171 109.496 414.584 109.496C414.008 109.496 413.491 109.629 413.032 109.896C412.574 110.163 412.216 110.536 411.96 111.016C411.704 111.496 411.576 112.045 411.576 112.664V112.84C411.576 113.48 411.715 114.045 411.992 114.536C412.28 115.016 412.675 115.395 413.176 115.672C413.688 115.939 414.27 116.072 414.92 116.072C415.432 116.072 415.907 115.981 416.344 115.8C416.792 115.619 417.176 115.341 417.496 114.968L418.136 115.704C417.763 116.152 417.294 116.493 416.728 116.728C416.174 116.963 415.56 117.08 414.888 117.08ZM421.169 117V107.544C421.169 106.797 421.387 106.195 421.825 105.736C422.262 105.277 422.891 105.048 423.713 105.048C424.033 105.048 424.342 105.091 424.641 105.176C424.939 105.261 425.19 105.395 425.393 105.576L425.009 106.424C424.849 106.285 424.662 106.184 424.449 106.12C424.235 106.045 424.006 106.008 423.761 106.008C423.281 106.008 422.913 106.141 422.657 106.408C422.401 106.675 422.273 107.069 422.273 107.592V108.872L422.305 109.4V117H421.169ZM419.665 109.544V108.6H424.865V109.544H419.665ZM426.401 117V108.6H427.537V117H426.401ZM426.977 106.744C426.742 106.744 426.545 106.664 426.385 106.504C426.225 106.344 426.145 106.152 426.145 105.928C426.145 105.704 426.225 105.517 426.385 105.368C426.545 105.208 426.742 105.128 426.977 105.128C427.211 105.128 427.409 105.203 427.569 105.352C427.729 105.501 427.809 105.688 427.809 105.912C427.809 106.147 427.729 106.344 427.569 106.504C427.419 106.664 427.222 106.744 426.977 106.744ZM434.215 117.08C433.383 117.08 432.636 116.899 431.975 116.536C431.324 116.163 430.812 115.656 430.439 115.016C430.065 114.365 429.879 113.624 429.879 112.792C429.879 111.949 430.065 111.208 430.439 110.568C430.812 109.928 431.324 109.427 431.975 109.064C432.636 108.701 433.383 108.52 434.215 108.52C434.929 108.52 435.575 108.659 436.151 108.936C436.727 109.213 437.18 109.629 437.511 110.184L436.663 110.76C436.375 110.333 436.017 110.019 435.591 109.816C435.164 109.613 434.7 109.512 434.199 109.512C433.601 109.512 433.063 109.651 432.583 109.928C432.103 110.195 431.724 110.573 431.447 111.064C431.169 111.555 431.031 112.131 431.031 112.792C431.031 113.453 431.169 114.029 431.447 114.52C431.724 115.011 432.103 115.395 432.583 115.672C433.063 115.939 433.601 116.072 434.199 116.072C434.7 116.072 435.164 115.971 435.591 115.768C436.017 115.565 436.375 115.256 436.663 114.84L437.511 115.416C437.18 115.96 436.727 116.376 436.151 116.664C435.575 116.941 434.929 117.08 434.215 117.08ZM439.617 117V108.6H440.753V117H439.617ZM440.193 106.744C439.959 106.744 439.761 106.664 439.601 106.504C439.441 106.344 439.361 106.152 439.361 105.928C439.361 105.704 439.441 105.517 439.601 105.368C439.761 105.208 439.959 105.128 440.193 105.128C440.428 105.128 440.625 105.203 440.785 105.352C440.945 105.501 441.025 105.688 441.025 105.912C441.025 106.147 440.945 106.344 440.785 106.504C440.636 106.664 440.439 106.744 440.193 106.744ZM447.482 117.08C446.607 117.08 445.839 116.899 445.178 116.536C444.517 116.163 443.999 115.656 443.626 115.016C443.253 114.365 443.066 113.624 443.066 112.792C443.066 111.96 443.242 111.224 443.594 110.584C443.957 109.944 444.447 109.443 445.066 109.08C445.695 108.707 446.399 108.52 447.178 108.52C447.967 108.52 448.666 108.701 449.274 109.064C449.893 109.416 450.378 109.917 450.73 110.568C451.082 111.208 451.258 111.949 451.258 112.792C451.258 112.845 451.253 112.904 451.242 112.968C451.242 113.021 451.242 113.08 451.242 113.144H443.93V112.296H450.634L450.186 112.632C450.186 112.024 450.053 111.485 449.786 111.016C449.53 110.536 449.178 110.163 448.73 109.896C448.282 109.629 447.765 109.496 447.178 109.496C446.602 109.496 446.085 109.629 445.626 109.896C445.167 110.163 444.81 110.536 444.554 111.016C444.298 111.496 444.17 112.045 444.17 112.664V112.84C444.17 113.48 444.309 114.045 444.586 114.536C444.874 115.016 445.269 115.395 445.77 115.672C446.282 115.939 446.863 116.072 447.514 116.072C448.026 116.072 448.501 115.981 448.938 115.8C449.386 115.619 449.77 115.341 450.09 114.968L450.73 115.704C450.357 116.152 449.887 116.493 449.322 116.728C448.767 116.963 448.154 117.08 447.482 117.08ZM444.522 107.288L446.586 105.304H447.738L449.802 107.288H448.746L446.714 105.592H447.61L445.578 107.288H444.522ZM457.858 108.52C458.541 108.52 459.138 108.653 459.65 108.92C460.173 109.176 460.578 109.571 460.866 110.104C461.165 110.637 461.314 111.309 461.314 112.12V117H460.178V112.232C460.178 111.347 459.954 110.68 459.506 110.232C459.069 109.773 458.45 109.544 457.65 109.544C457.053 109.544 456.53 109.667 456.082 109.912C455.645 110.147 455.304 110.493 455.058 110.952C454.824 111.4 454.706 111.944 454.706 112.584V117H453.57V108.6H454.658V110.904L454.482 110.472C454.749 109.864 455.176 109.389 455.762 109.048C456.349 108.696 457.048 108.52 457.858 108.52ZM467.871 117.08C467.039 117.08 466.292 116.899 465.631 116.536C464.98 116.163 464.468 115.656 464.095 115.016C463.721 114.365 463.535 113.624 463.535 112.792C463.535 111.949 463.721 111.208 464.095 110.568C464.468 109.928 464.98 109.427 465.631 109.064C466.292 108.701 467.039 108.52 467.871 108.52C468.585 108.52 469.231 108.659 469.807 108.936C470.383 109.213 470.836 109.629 471.167 110.184L470.319 110.76C470.031 110.333 469.673 110.019 469.247 109.816C468.82 109.613 468.356 109.512 467.855 109.512C467.257 109.512 466.719 109.651 466.239 109.928C465.759 110.195 465.38 110.573 465.103 111.064C464.825 111.555 464.687 112.131 464.687 112.792C464.687 113.453 464.825 114.029 465.103 114.52C465.38 115.011 465.759 115.395 466.239 115.672C466.719 115.939 467.257 116.072 467.855 116.072C468.356 116.072 468.82 115.971 469.247 115.768C469.673 115.565 470.031 115.256 470.319 114.84L471.167 115.416C470.836 115.96 470.383 116.376 469.807 116.664C469.231 116.941 468.585 117.08 467.871 117.08ZM473.273 117V108.6H474.409V117H473.273ZM473.849 106.744C473.615 106.744 473.417 106.664 473.257 106.504C473.097 106.344 473.017 106.152 473.017 105.928C473.017 105.704 473.097 105.517 473.257 105.368C473.417 105.208 473.615 105.128 473.849 105.128C474.084 105.128 474.281 105.203 474.441 105.352C474.601 105.501 474.681 105.688 474.681 105.912C474.681 106.147 474.601 106.344 474.441 106.504C474.292 106.664 474.095 106.744 473.849 106.744ZM482.834 117V115.144L482.786 114.84V111.736C482.786 111.021 482.584 110.472 482.178 110.088C481.784 109.704 481.192 109.512 480.402 109.512C479.858 109.512 479.341 109.603 478.85 109.784C478.36 109.965 477.944 110.205 477.602 110.504L477.09 109.656C477.517 109.293 478.029 109.016 478.626 108.824C479.224 108.621 479.853 108.52 480.514 108.52C481.602 108.52 482.44 108.792 483.026 109.336C483.624 109.869 483.922 110.685 483.922 111.784V117H482.834ZM479.938 117.08C479.309 117.08 478.76 116.979 478.29 116.776C477.832 116.563 477.48 116.275 477.234 115.912C476.989 115.539 476.866 115.112 476.866 114.632C476.866 114.195 476.968 113.8 477.17 113.448C477.384 113.085 477.725 112.797 478.194 112.584C478.674 112.36 479.314 112.248 480.114 112.248H483.01V113.096H480.146C479.336 113.096 478.77 113.24 478.45 113.528C478.141 113.816 477.986 114.173 477.986 114.6C477.986 115.08 478.173 115.464 478.546 115.752C478.92 116.04 479.442 116.184 480.114 116.184C480.754 116.184 481.304 116.04 481.762 115.752C482.232 115.453 482.573 115.027 482.786 114.472L483.042 115.256C482.829 115.811 482.456 116.253 481.922 116.584C481.4 116.915 480.738 117.08 479.938 117.08Z" fill="#F1F0F5"/>
<path d="M566.354 100.354C566.549 100.158 566.549 99.8417 566.354 99.6464L563.172 96.4645C562.976 96.2692 562.66 96.2692 562.464 96.4645C562.269 96.6597 562.269 96.9763 562.464 97.1716L565.293 100L562.464 102.828C562.269 103.024 562.269 103.34 562.464 103.536C562.66 103.731 562.976 103.731 563.172 103.536L566.354 100.354ZM536 100.5H566V99.5H536V100.5Z" fill="white"/>
</svg>
