<svg width="600" height="200" viewBox="0 0 600 200" fill="none" xmlns="http://www.w3.org/2000/svg">
<mask id="mask0_218_1922" style="mask-type:alpha" maskUnits="userSpaceOnUse" x="0" y="0" width="600" height="200">
<rect width="600" height="200" rx="26" fill="#00A54E"/>
</mask>
<g mask="url(#mask0_218_1922)">
<rect width="600" height="200" rx="26" fill="#DA884D"/>
<circle opacity="0.2" cx="25" cy="163" r="73.5" stroke="white"/>
<circle opacity="0.2" cx="120.5" cy="46.5" r="20.5" fill="white"/>
<path opacity="0.2" d="M395.5 150.5C395.5 175.895 374.467 196.5 348.5 196.5C322.533 196.5 301.5 175.895 301.5 150.5C301.5 125.105 322.533 104.5 348.5 104.5C374.467 104.5 395.5 125.105 395.5 150.5Z" stroke="white"/>
<circle opacity="0.2" cx="384.5" cy="179.5" r="20" stroke="white"/>
</g>
<path d="M57.1579 90.5263V88M57.1579 90.5263V93.0526M57.1579 90.5263H51.4737M42 98.1053V109.474C42 110.869 43.1311 112 44.5263 112H62.2105C63.6058 112 64.7368 110.869 64.7368 109.474V98.1053H42Z" stroke="white" stroke-width="3" stroke-linecap="round" stroke-linejoin="round"/>
<path d="M42 98.1043V93.0517C42 91.6565 43.1311 90.5254 44.5263 90.5254H47.0526" stroke="white" stroke-width="3" stroke-linecap="round" stroke-linejoin="round"/>
<path d="M47.0537 88V93.0526" stroke="white" stroke-width="3" stroke-linecap="round" stroke-linejoin="round"/>
<path d="M64.737 98.1043V93.0517C64.737 91.6565 63.606 90.5254 62.2107 90.5254H61.5791" stroke="white" stroke-width="3" stroke-linecap="round" stroke-linejoin="round"/>
<path d="M85.8733 99.184H94.2253V101.752H85.8733V99.184ZM86.1133 106.384H95.5933V109H82.9933V92.2H95.2573V94.816H86.1133V106.384ZM102.027 109L96.5314 96.184H99.6514L104.379 107.488H102.843L107.739 96.184H110.619L105.123 109H102.027ZM118.167 109.168C116.743 109.168 115.495 108.888 114.423 108.328C113.367 107.752 112.543 106.968 111.951 105.976C111.375 104.984 111.087 103.856 111.087 102.592C111.087 101.312 111.367 100.184 111.927 99.208C112.503 98.216 113.287 97.44 114.279 96.88C115.287 96.32 116.431 96.04 117.711 96.04C118.959 96.04 120.071 96.312 121.047 96.856C122.023 97.4 122.791 98.168 123.351 99.16C123.911 100.152 124.191 101.32 124.191 102.664C124.191 102.792 124.183 102.936 124.167 103.096C124.167 103.256 124.159 103.408 124.143 103.552H113.463V101.56H122.559L121.383 102.184C121.399 101.448 121.247 100.8 120.927 100.24C120.607 99.68 120.167 99.24 119.607 98.92C119.063 98.6 118.431 98.44 117.711 98.44C116.975 98.44 116.327 98.6 115.767 98.92C115.223 99.24 114.791 99.688 114.471 100.264C114.167 100.824 114.015 101.488 114.015 102.256V102.736C114.015 103.504 114.191 104.184 114.543 104.776C114.895 105.368 115.391 105.824 116.031 106.144C116.671 106.464 117.407 106.624 118.239 106.624C118.959 106.624 119.607 106.512 120.183 106.288C120.759 106.064 121.271 105.712 121.719 105.232L123.327 107.08C122.751 107.752 122.023 108.272 121.143 108.64C120.279 108.992 119.287 109.168 118.167 109.168ZM134.344 96.04C135.368 96.04 136.28 96.24 137.08 96.64C137.896 97.04 138.536 97.656 139 98.488C139.464 99.304 139.696 100.36 139.696 101.656V109H136.696V102.04C136.696 100.904 136.424 100.056 135.88 99.496C135.352 98.936 134.608 98.656 133.648 98.656C132.944 98.656 132.32 98.8 131.776 99.088C131.232 99.376 130.808 99.808 130.504 100.384C130.216 100.944 130.072 101.656 130.072 102.52V109H127.072V96.184H129.928V99.64L129.424 98.584C129.872 97.768 130.52 97.144 131.368 96.712C132.232 96.264 133.224 96.04 134.344 96.04ZM148.326 109.168C146.918 109.168 145.83 108.808 145.062 108.088C144.294 107.352 143.91 106.272 143.91 104.848V93.352H146.91V104.776C146.91 105.384 147.062 105.856 147.366 106.192C147.686 106.528 148.126 106.696 148.686 106.696C149.358 106.696 149.918 106.52 150.366 106.168L151.206 108.304C150.854 108.592 150.422 108.808 149.91 108.952C149.398 109.096 148.87 109.168 148.326 109.168ZM141.798 98.68V96.28H150.342V98.68H141.798ZM159.012 109.168C157.7 109.168 156.532 108.888 155.508 108.328C154.484 107.752 153.676 106.968 153.084 105.976C152.492 104.984 152.196 103.856 152.196 102.592C152.196 101.312 152.492 100.184 153.084 99.208C153.676 98.216 154.484 97.44 155.508 96.88C156.532 96.32 157.7 96.04 159.012 96.04C160.34 96.04 161.516 96.32 162.54 96.88C163.58 97.44 164.388 98.208 164.964 99.184C165.556 100.16 165.852 101.296 165.852 102.592C165.852 103.856 165.556 104.984 164.964 105.976C164.388 106.968 163.58 107.752 162.54 108.328C161.516 108.888 160.34 109.168 159.012 109.168ZM159.012 106.6C159.748 106.6 160.404 106.44 160.98 106.12C161.556 105.8 162.004 105.336 162.324 104.728C162.66 104.12 162.828 103.408 162.828 102.592C162.828 101.76 162.66 101.048 162.324 100.456C162.004 99.848 161.556 99.384 160.98 99.064C160.404 98.744 159.756 98.584 159.036 98.584C158.3 98.584 157.644 98.744 157.068 99.064C156.508 99.384 156.06 99.848 155.724 100.456C155.388 101.048 155.22 101.76 155.22 102.592C155.22 103.408 155.388 104.12 155.724 104.728C156.06 105.336 156.508 105.8 157.068 106.12C157.644 106.44 158.292 106.6 159.012 106.6ZM172.681 109.168C171.609 109.168 170.577 109.032 169.585 108.76C168.609 108.472 167.833 108.128 167.257 107.728L168.409 105.448C168.985 105.816 169.673 106.12 170.473 106.36C171.273 106.6 172.073 106.72 172.873 106.72C173.817 106.72 174.497 106.592 174.913 106.336C175.345 106.08 175.561 105.736 175.561 105.304C175.561 104.952 175.417 104.688 175.129 104.512C174.841 104.32 174.465 104.176 174.001 104.08C173.537 103.984 173.017 103.896 172.441 103.816C171.881 103.736 171.313 103.632 170.737 103.504C170.177 103.36 169.665 103.16 169.201 102.904C168.737 102.632 168.361 102.272 168.073 101.824C167.785 101.376 167.641 100.784 167.641 100.048C167.641 99.232 167.873 98.528 168.337 97.936C168.801 97.328 169.449 96.864 170.281 96.544C171.129 96.208 172.129 96.04 173.281 96.04C174.145 96.04 175.017 96.136 175.897 96.328C176.777 96.52 177.505 96.792 178.081 97.144L176.929 99.424C176.321 99.056 175.705 98.808 175.081 98.68C174.473 98.536 173.865 98.464 173.257 98.464C172.345 98.464 171.665 98.6 171.217 98.872C170.785 99.144 170.569 99.488 170.569 99.904C170.569 100.288 170.713 100.576 171.001 100.768C171.289 100.96 171.665 101.112 172.129 101.224C172.593 101.336 173.105 101.432 173.665 101.512C174.241 101.576 174.809 101.68 175.369 101.824C175.929 101.968 176.441 102.168 176.905 102.424C177.385 102.664 177.769 103.008 178.057 103.456C178.345 103.904 178.489 104.488 178.489 105.208C178.489 106.008 178.249 106.704 177.769 107.296C177.305 107.888 176.641 108.352 175.777 108.688C174.913 109.008 173.881 109.168 172.681 109.168Z" fill="#F1F0F5"/>
<path d="M276.193 84V72.8H280.753C281.948 72.8 282.993 73.04 283.889 73.52C284.796 73.9893 285.5 74.6453 286.001 75.488C286.502 76.3307 286.753 77.3013 286.753 78.4C286.753 79.4987 286.502 80.4693 286.001 81.312C285.5 82.1547 284.796 82.816 283.889 83.296C282.993 83.7653 281.948 84 280.753 84H276.193ZM277.377 82.976H280.689C281.681 82.976 282.54 82.784 283.265 82.4C284.001 82.0053 284.572 81.4667 284.977 80.784C285.382 80.0907 285.585 79.296 285.585 78.4C285.585 77.4933 285.382 76.6987 284.977 76.016C284.572 75.3333 284.001 74.8 283.265 74.416C282.54 74.0213 281.681 73.824 280.689 73.824H277.377V82.976ZM292.74 84.08C291.865 84.08 291.097 83.8987 290.436 83.536C289.775 83.1627 289.257 82.656 288.884 82.016C288.511 81.3653 288.324 80.624 288.324 79.792C288.324 78.96 288.5 78.224 288.852 77.584C289.215 76.944 289.705 76.4427 290.324 76.08C290.953 75.7067 291.657 75.52 292.436 75.52C293.225 75.52 293.924 75.7013 294.532 76.064C295.151 76.416 295.636 76.9173 295.988 77.568C296.34 78.208 296.516 78.9493 296.516 79.792C296.516 79.8453 296.511 79.904 296.5 79.968C296.5 80.0213 296.5 80.08 296.5 80.144H289.188V79.296H295.892L295.444 79.632C295.444 79.024 295.311 78.4853 295.044 78.016C294.788 77.536 294.436 77.1627 293.988 76.896C293.54 76.6293 293.023 76.496 292.436 76.496C291.86 76.496 291.343 76.6293 290.884 76.896C290.425 77.1627 290.068 77.536 289.812 78.016C289.556 78.496 289.428 79.0453 289.428 79.664V79.84C289.428 80.48 289.567 81.0453 289.844 81.536C290.132 82.016 290.527 82.3947 291.028 82.672C291.54 82.9387 292.121 83.072 292.772 83.072C293.284 83.072 293.759 82.9813 294.196 82.8C294.644 82.6187 295.028 82.3413 295.348 81.968L295.988 82.704C295.615 83.152 295.145 83.4933 294.58 83.728C294.025 83.9627 293.412 84.08 292.74 84.08ZM301.084 84.08C300.391 84.08 299.735 83.984 299.116 83.792C298.497 83.5893 298.012 83.3387 297.66 83.04L298.172 82.144C298.513 82.4 298.951 82.624 299.484 82.816C300.017 82.9973 300.577 83.088 301.164 83.088C301.964 83.088 302.54 82.9653 302.892 82.72C303.244 82.464 303.42 82.128 303.42 81.712C303.42 81.4027 303.319 81.1627 303.116 80.992C302.924 80.8107 302.668 80.6773 302.348 80.592C302.028 80.496 301.671 80.416 301.276 80.352C300.881 80.288 300.487 80.2133 300.092 80.128C299.708 80.0427 299.356 79.92 299.036 79.76C298.716 79.5893 298.455 79.36 298.252 79.072C298.06 78.784 297.964 78.4 297.964 77.92C297.964 77.4613 298.092 77.0507 298.348 76.688C298.604 76.3253 298.977 76.0427 299.468 75.84C299.969 75.6267 300.577 75.52 301.292 75.52C301.836 75.52 302.38 75.5947 302.924 75.744C303.468 75.8827 303.916 76.0693 304.268 76.304L303.772 77.216C303.399 76.96 302.999 76.7787 302.572 76.672C302.145 76.5547 301.719 76.496 301.292 76.496C300.535 76.496 299.975 76.6293 299.612 76.896C299.26 77.152 299.084 77.4827 299.084 77.888C299.084 78.208 299.18 78.4587 299.372 78.64C299.575 78.8213 299.836 78.9653 300.156 79.072C300.487 79.168 300.844 79.248 301.228 79.312C301.623 79.376 302.012 79.456 302.396 79.552C302.791 79.6373 303.148 79.76 303.468 79.92C303.799 80.0693 304.06 80.288 304.252 80.576C304.455 80.8533 304.556 81.2213 304.556 81.68C304.556 82.1707 304.417 82.5973 304.14 82.96C303.873 83.312 303.479 83.5893 302.956 83.792C302.444 83.984 301.82 84.08 301.084 84.08ZM310.129 84.08C309.297 84.08 308.55 83.8987 307.889 83.536C307.238 83.1627 306.726 82.656 306.353 82.016C305.979 81.3653 305.793 80.624 305.793 79.792C305.793 78.9493 305.979 78.208 306.353 77.568C306.726 76.928 307.238 76.4267 307.889 76.064C308.55 75.7013 309.297 75.52 310.129 75.52C310.843 75.52 311.489 75.6587 312.065 75.936C312.641 76.2133 313.094 76.6293 313.425 77.184L312.577 77.76C312.289 77.3333 311.931 77.0187 311.505 76.816C311.078 76.6133 310.614 76.512 310.113 76.512C309.515 76.512 308.977 76.6507 308.497 76.928C308.017 77.1947 307.638 77.5733 307.361 78.064C307.083 78.5547 306.945 79.1307 306.945 79.792C306.945 80.4533 307.083 81.0293 307.361 81.52C307.638 82.0107 308.017 82.3947 308.497 82.672C308.977 82.9387 309.515 83.072 310.113 83.072C310.614 83.072 311.078 82.9707 311.505 82.768C311.931 82.5653 312.289 82.256 312.577 81.84L313.425 82.416C313.094 82.96 312.641 83.376 312.065 83.664C311.489 83.9413 310.843 84.08 310.129 84.08ZM319.128 84.08C318.414 84.08 317.79 83.9467 317.256 83.68C316.723 83.4133 316.307 83.0133 316.008 82.48C315.72 81.9467 315.576 81.28 315.576 80.48V75.6H316.712V80.352C316.712 81.248 316.931 81.9253 317.368 82.384C317.816 82.832 318.44 83.056 319.24 83.056C319.827 83.056 320.334 82.9387 320.76 82.704C321.198 82.4587 321.528 82.1067 321.752 81.648C321.987 81.1893 322.104 80.64 322.104 80V75.6H323.24V84H322.152V81.696L322.328 82.112C322.062 82.7307 321.646 83.216 321.08 83.568C320.526 83.9093 319.875 84.08 319.128 84.08ZM330.742 84.08C330.006 84.08 329.345 83.9147 328.758 83.584C328.172 83.2427 327.708 82.752 327.366 82.112C327.025 81.472 326.854 80.6987 326.854 79.792C326.854 78.8747 327.025 78.1013 327.366 77.472C327.718 76.832 328.188 76.3467 328.774 76.016C329.361 75.6853 330.017 75.52 330.742 75.52C331.542 75.52 332.257 75.7013 332.886 76.064C333.526 76.416 334.028 76.912 334.39 77.552C334.753 78.192 334.934 78.9387 334.934 79.792C334.934 80.6347 334.753 81.3813 334.39 82.032C334.028 82.672 333.526 83.1733 332.886 83.536C332.257 83.8987 331.542 84.08 330.742 84.08ZM326.406 84V72.128H327.542V78.08L327.382 79.776L327.494 81.472V84H326.406ZM330.662 83.072C331.26 83.072 331.793 82.9387 332.262 82.672C332.732 82.3947 333.105 82.0107 333.382 81.52C333.66 81.0187 333.798 80.4427 333.798 79.792C333.798 79.1307 333.66 78.5547 333.382 78.064C333.105 77.5733 332.732 77.1947 332.262 76.928C331.793 76.6507 331.26 76.512 330.662 76.512C330.065 76.512 329.526 76.6507 329.046 76.928C328.577 77.1947 328.204 77.5733 327.926 78.064C327.66 78.5547 327.526 79.1307 327.526 79.792C327.526 80.4427 327.66 81.0187 327.926 81.52C328.204 82.0107 328.577 82.3947 329.046 82.672C329.526 82.9387 330.065 83.072 330.662 83.072ZM337.25 84V75.6H338.338V77.888L338.226 77.488C338.461 76.848 338.855 76.3627 339.41 76.032C339.965 75.6907 340.653 75.52 341.474 75.52V76.624C341.431 76.624 341.389 76.624 341.346 76.624C341.303 76.6133 341.261 76.608 341.218 76.608C340.333 76.608 339.639 76.88 339.138 77.424C338.637 77.9573 338.386 78.72 338.386 79.712V84H337.25ZM348.186 84V82.144L348.138 81.84V78.736C348.138 78.0213 347.935 77.472 347.53 77.088C347.135 76.704 346.543 76.512 345.754 76.512C345.21 76.512 344.693 76.6027 344.202 76.784C343.711 76.9653 343.295 77.2053 342.954 77.504L342.442 76.656C342.869 76.2933 343.381 76.016 343.978 75.824C344.575 75.6213 345.205 75.52 345.866 75.52C346.954 75.52 347.791 75.792 348.378 76.336C348.975 76.8693 349.274 77.6853 349.274 78.784V84H348.186ZM345.29 84.08C344.661 84.08 344.111 83.9787 343.642 83.776C343.183 83.5627 342.831 83.2747 342.586 82.912C342.341 82.5387 342.218 82.112 342.218 81.632C342.218 81.1947 342.319 80.8 342.522 80.448C342.735 80.0853 343.077 79.7973 343.546 79.584C344.026 79.36 344.666 79.248 345.466 79.248H348.362V80.096H345.498C344.687 80.096 344.122 80.24 343.802 80.528C343.493 80.816 343.338 81.1733 343.338 81.6C343.338 82.08 343.525 82.464 343.898 82.752C344.271 83.04 344.794 83.184 345.466 83.184C346.106 83.184 346.655 83.04 347.114 82.752C347.583 82.4533 347.925 82.0267 348.138 81.472L348.394 82.256C348.181 82.8107 347.807 83.2533 347.274 83.584C346.751 83.9147 346.09 84.08 345.29 84.08ZM360.019 84.08C359.304 84.08 358.68 83.9467 358.147 83.68C357.614 83.4133 357.198 83.0133 356.899 82.48C356.611 81.9467 356.467 81.28 356.467 80.48V75.6H357.603V80.352C357.603 81.248 357.822 81.9253 358.259 82.384C358.707 82.832 359.331 83.056 360.131 83.056C360.718 83.056 361.224 82.9387 361.651 82.704C362.088 82.4587 362.419 82.1067 362.643 81.648C362.878 81.1893 362.995 80.64 362.995 80V75.6H364.131V84H363.043V81.696L363.219 82.112C362.952 82.7307 362.536 83.216 361.971 83.568C361.416 83.9093 360.766 84.08 360.019 84.08ZM377.793 75.52C378.476 75.52 379.068 75.6533 379.569 75.92C380.081 76.176 380.476 76.5707 380.753 77.104C381.041 77.6373 381.185 78.3093 381.185 79.12V84H380.049V79.232C380.049 78.3467 379.836 77.68 379.409 77.232C378.993 76.7733 378.401 76.544 377.633 76.544C377.057 76.544 376.556 76.6667 376.129 76.912C375.713 77.1467 375.388 77.4933 375.153 77.952C374.929 78.4 374.817 78.944 374.817 79.584V84H373.681V79.232C373.681 78.3467 373.468 77.68 373.041 77.232C372.614 76.7733 372.017 76.544 371.249 76.544C370.684 76.544 370.188 76.6667 369.761 76.912C369.334 77.1467 369.004 77.4933 368.769 77.952C368.545 78.4 368.433 78.944 368.433 79.584V84H367.297V75.6H368.385V77.872L368.209 77.472C368.465 76.864 368.876 76.3893 369.441 76.048C370.017 75.696 370.694 75.52 371.473 75.52C372.294 75.52 372.993 75.728 373.569 76.144C374.145 76.5493 374.518 77.1627 374.689 77.984L374.241 77.808C374.486 77.1253 374.918 76.576 375.537 76.16C376.166 75.7333 376.918 75.52 377.793 75.52ZM398.949 75.52C399.632 75.52 400.224 75.6533 400.725 75.92C401.237 76.176 401.632 76.5707 401.909 77.104C402.197 77.6373 402.341 78.3093 402.341 79.12V84H401.205V79.232C401.205 78.3467 400.992 77.68 400.565 77.232C400.149 76.7733 399.557 76.544 398.789 76.544C398.213 76.544 397.712 76.6667 397.285 76.912C396.869 77.1467 396.544 77.4933 396.309 77.952C396.085 78.4 395.973 78.944 395.973 79.584V84H394.837V79.232C394.837 78.3467 394.624 77.68 394.197 77.232C393.77 76.7733 393.173 76.544 392.405 76.544C391.84 76.544 391.344 76.6667 390.917 76.912C390.49 77.1467 390.16 77.4933 389.925 77.952C389.701 78.4 389.589 78.944 389.589 79.584V84H388.453V75.6H389.541V77.872L389.365 77.472C389.621 76.864 390.032 76.3893 390.597 76.048C391.173 75.696 391.85 75.52 392.629 75.52C393.45 75.52 394.149 75.728 394.725 76.144C395.301 76.5493 395.674 77.1627 395.845 77.984L395.397 77.808C395.642 77.1253 396.074 76.576 396.693 76.16C397.322 75.7333 398.074 75.52 398.949 75.52ZM408.894 84.08C408.179 84.08 407.555 83.9467 407.022 83.68C406.489 83.4133 406.073 83.0133 405.774 82.48C405.486 81.9467 405.342 81.28 405.342 80.48V75.6H406.478V80.352C406.478 81.248 406.697 81.9253 407.134 82.384C407.582 82.832 408.206 83.056 409.006 83.056C409.593 83.056 410.099 82.9387 410.526 82.704C410.963 82.4587 411.294 82.1067 411.518 81.648C411.753 81.1893 411.87 80.64 411.87 80V75.6H413.006V84H411.918V81.696L412.094 82.112C411.827 82.7307 411.411 83.216 410.846 83.568C410.291 83.9093 409.641 84.08 408.894 84.08ZM420.46 75.52C421.143 75.52 421.74 75.6533 422.252 75.92C422.775 76.176 423.18 76.5707 423.468 77.104C423.767 77.6373 423.916 78.3093 423.916 79.12V84H422.78V79.232C422.78 78.3467 422.556 77.68 422.108 77.232C421.671 76.7733 421.052 76.544 420.252 76.544C419.655 76.544 419.132 76.6667 418.684 76.912C418.247 77.1467 417.905 77.4933 417.66 77.952C417.425 78.4 417.308 78.944 417.308 79.584V84H416.172V75.6H417.26V77.904L417.084 77.472C417.351 76.864 417.777 76.3893 418.364 76.048C418.951 75.696 419.649 75.52 420.46 75.52ZM430.328 84.08C429.528 84.08 428.808 83.8987 428.168 83.536C427.539 83.1733 427.043 82.672 426.68 82.032C426.318 81.3813 426.136 80.6347 426.136 79.792C426.136 78.9387 426.318 78.192 426.68 77.552C427.043 76.912 427.539 76.416 428.168 76.064C428.808 75.7013 429.528 75.52 430.328 75.52C431.064 75.52 431.72 75.6853 432.296 76.016C432.883 76.3467 433.347 76.832 433.688 77.472C434.04 78.1013 434.216 78.8747 434.216 79.792C434.216 80.6987 434.046 81.472 433.704 82.112C433.363 82.752 432.899 83.2427 432.312 83.584C431.736 83.9147 431.075 84.08 430.328 84.08ZM430.408 83.072C431.006 83.072 431.539 82.9387 432.008 82.672C432.488 82.3947 432.862 82.0107 433.128 81.52C433.406 81.0187 433.544 80.4427 433.544 79.792C433.544 79.1307 433.406 78.5547 433.128 78.064C432.862 77.5733 432.488 77.1947 432.008 76.928C431.539 76.6507 431.006 76.512 430.408 76.512C429.822 76.512 429.294 76.6507 428.824 76.928C428.355 77.1947 427.982 77.5733 427.704 78.064C427.427 78.5547 427.288 79.1307 427.288 79.792C427.288 80.4427 427.427 81.0187 427.704 81.52C427.982 82.0107 428.355 82.3947 428.824 82.672C429.294 82.9387 429.822 83.072 430.408 83.072ZM433.576 84V81.472L433.688 79.776L433.528 78.08V72.128H434.664V84H433.576ZM441.252 84.08C440.441 84.08 439.711 83.8987 439.06 83.536C438.42 83.1627 437.913 82.656 437.54 82.016C437.167 81.3653 436.98 80.624 436.98 79.792C436.98 78.9493 437.167 78.208 437.54 77.568C437.913 76.928 438.42 76.4267 439.06 76.064C439.7 75.7013 440.431 75.52 441.252 75.52C442.084 75.52 442.82 75.7013 443.46 76.064C444.111 76.4267 444.617 76.928 444.98 77.568C445.353 78.208 445.54 78.9493 445.54 79.792C445.54 80.624 445.353 81.3653 444.98 82.016C444.617 82.656 444.111 83.1627 443.46 83.536C442.809 83.8987 442.073 84.08 441.252 84.08ZM441.252 83.072C441.86 83.072 442.399 82.9387 442.868 82.672C443.337 82.3947 443.705 82.0107 443.972 81.52C444.249 81.0187 444.388 80.4427 444.388 79.792C444.388 79.1307 444.249 78.5547 443.972 78.064C443.705 77.5733 443.337 77.1947 442.868 76.928C442.399 76.6507 441.865 76.512 441.268 76.512C440.671 76.512 440.137 76.6507 439.668 76.928C439.199 77.1947 438.825 77.5733 438.548 78.064C438.271 78.5547 438.132 79.1307 438.132 79.792C438.132 80.4427 438.271 81.0187 438.548 81.52C438.825 82.0107 439.199 82.3947 439.668 82.672C440.137 82.9387 440.665 83.072 441.252 83.072ZM455.391 84.08C454.591 84.08 453.871 83.8987 453.231 83.536C452.602 83.1733 452.106 82.672 451.743 82.032C451.38 81.3813 451.199 80.6347 451.199 79.792C451.199 78.9387 451.38 78.192 451.743 77.552C452.106 76.912 452.602 76.416 453.231 76.064C453.871 75.7013 454.591 75.52 455.391 75.52C456.127 75.52 456.783 75.6853 457.359 76.016C457.946 76.3467 458.41 76.832 458.751 77.472C459.103 78.1013 459.279 78.8747 459.279 79.792C459.279 80.6987 459.108 81.472 458.767 82.112C458.426 82.752 457.962 83.2427 457.375 83.584C456.799 83.9147 456.138 84.08 455.391 84.08ZM455.471 83.072C456.068 83.072 456.602 82.9387 457.071 82.672C457.551 82.3947 457.924 82.0107 458.191 81.52C458.468 81.0187 458.607 80.4427 458.607 79.792C458.607 79.1307 458.468 78.5547 458.191 78.064C457.924 77.5733 457.551 77.1947 457.071 76.928C456.602 76.6507 456.068 76.512 455.471 76.512C454.884 76.512 454.356 76.6507 453.887 76.928C453.418 77.1947 453.044 77.5733 452.767 78.064C452.49 78.5547 452.351 79.1307 452.351 79.792C452.351 80.4427 452.49 81.0187 452.767 81.52C453.044 82.0107 453.418 82.3947 453.887 82.672C454.356 82.9387 454.884 83.072 455.471 83.072ZM458.639 84V81.472L458.751 79.776L458.591 78.08V72.128H459.727V84H458.639ZM466.459 84.08C465.584 84.08 464.816 83.8987 464.155 83.536C463.493 83.1627 462.976 82.656 462.603 82.016C462.229 81.3653 462.043 80.624 462.043 79.792C462.043 78.96 462.219 78.224 462.571 77.584C462.933 76.944 463.424 76.4427 464.043 76.08C464.672 75.7067 465.376 75.52 466.155 75.52C466.944 75.52 467.643 75.7013 468.251 76.064C468.869 76.416 469.355 76.9173 469.707 77.568C470.059 78.208 470.235 78.9493 470.235 79.792C470.235 79.8453 470.229 79.904 470.219 79.968C470.219 80.0213 470.219 80.08 470.219 80.144H462.907V79.296H469.611L469.163 79.632C469.163 79.024 469.029 78.4853 468.763 78.016C468.507 77.536 468.155 77.1627 467.707 76.896C467.259 76.6293 466.741 76.496 466.155 76.496C465.579 76.496 465.061 76.6293 464.603 76.896C464.144 77.1627 463.787 77.536 463.531 78.016C463.275 78.496 463.147 79.0453 463.147 79.664V79.84C463.147 80.48 463.285 81.0453 463.563 81.536C463.851 82.016 464.245 82.3947 464.747 82.672C465.259 82.9387 465.84 83.072 466.491 83.072C467.003 83.072 467.477 82.9813 467.915 82.8C468.363 82.6187 468.747 82.3413 469.067 81.968L469.707 82.704C469.333 83.152 468.864 83.4933 468.299 83.728C467.744 83.9627 467.131 84.08 466.459 84.08ZM280.289 106.08C279.564 106.08 278.908 105.915 278.321 105.584C277.734 105.243 277.265 104.757 276.913 104.128C276.572 103.488 276.401 102.709 276.401 101.792C276.401 100.875 276.572 100.101 276.913 99.472C277.254 98.832 277.718 98.3467 278.305 98.016C278.892 97.6853 279.553 97.52 280.289 97.52C281.089 97.52 281.804 97.7013 282.433 98.064C283.073 98.416 283.574 98.9173 283.937 99.568C284.3 100.208 284.481 100.949 284.481 101.792C284.481 102.645 284.3 103.392 283.937 104.032C283.574 104.672 283.073 105.173 282.433 105.536C281.804 105.899 281.089 106.08 280.289 106.08ZM275.953 109.104V97.6H277.041V100.128L276.929 101.808L277.089 103.504V109.104H275.953ZM280.209 105.072C280.806 105.072 281.34 104.939 281.809 104.672C282.278 104.395 282.652 104.011 282.929 103.52C283.206 103.019 283.345 102.443 283.345 101.792C283.345 101.141 283.206 100.571 282.929 100.08C282.652 99.5893 282.278 99.2053 281.809 98.928C281.34 98.6507 280.806 98.512 280.209 98.512C279.612 98.512 279.073 98.6507 278.593 98.928C278.124 99.2053 277.75 99.5893 277.473 100.08C277.206 100.571 277.073 101.141 277.073 101.792C277.073 102.443 277.206 103.019 277.473 103.52C277.75 104.011 278.124 104.395 278.593 104.672C279.073 104.939 279.612 105.072 280.209 105.072ZM290.221 106.08C289.41 106.08 288.68 105.899 288.029 105.536C287.389 105.163 286.882 104.656 286.509 104.016C286.136 103.365 285.949 102.624 285.949 101.792C285.949 100.949 286.136 100.208 286.509 99.568C286.882 98.928 287.389 98.4267 288.029 98.064C288.669 97.7013 289.4 97.52 290.221 97.52C291.053 97.52 291.789 97.7013 292.429 98.064C293.08 98.4267 293.586 98.928 293.949 99.568C294.322 100.208 294.509 100.949 294.509 101.792C294.509 102.624 294.322 103.365 293.949 104.016C293.586 104.656 293.08 105.163 292.429 105.536C291.778 105.899 291.042 106.08 290.221 106.08ZM290.221 105.072C290.829 105.072 291.368 104.939 291.837 104.672C292.306 104.395 292.674 104.011 292.941 103.52C293.218 103.019 293.357 102.443 293.357 101.792C293.357 101.131 293.218 100.555 292.941 100.064C292.674 99.5733 292.306 99.1947 291.837 98.928C291.368 98.6507 290.834 98.512 290.237 98.512C289.64 98.512 289.106 98.6507 288.637 98.928C288.168 99.1947 287.794 99.5733 287.517 100.064C287.24 100.555 287.101 101.131 287.101 101.792C287.101 102.443 287.24 103.019 287.517 103.52C287.794 104.011 288.168 104.395 288.637 104.672C289.106 104.939 289.634 105.072 290.221 105.072ZM299.084 106.08C298.391 106.08 297.735 105.984 297.116 105.792C296.497 105.589 296.012 105.339 295.66 105.04L296.172 104.144C296.513 104.4 296.951 104.624 297.484 104.816C298.017 104.997 298.577 105.088 299.164 105.088C299.964 105.088 300.54 104.965 300.892 104.72C301.244 104.464 301.42 104.128 301.42 103.712C301.42 103.403 301.319 103.163 301.116 102.992C300.924 102.811 300.668 102.677 300.348 102.592C300.028 102.496 299.671 102.416 299.276 102.352C298.881 102.288 298.487 102.213 298.092 102.128C297.708 102.043 297.356 101.92 297.036 101.76C296.716 101.589 296.455 101.36 296.252 101.072C296.06 100.784 295.964 100.4 295.964 99.92C295.964 99.4613 296.092 99.0507 296.348 98.688C296.604 98.3253 296.977 98.0427 297.468 97.84C297.969 97.6267 298.577 97.52 299.292 97.52C299.836 97.52 300.38 97.5947 300.924 97.744C301.468 97.8827 301.916 98.0693 302.268 98.304L301.772 99.216C301.399 98.96 300.999 98.7787 300.572 98.672C300.145 98.5547 299.719 98.496 299.292 98.496C298.535 98.496 297.975 98.6293 297.612 98.896C297.26 99.152 297.084 99.4827 297.084 99.888C297.084 100.208 297.18 100.459 297.372 100.64C297.575 100.821 297.836 100.965 298.156 101.072C298.487 101.168 298.844 101.248 299.228 101.312C299.623 101.376 300.012 101.456 300.396 101.552C300.791 101.637 301.148 101.76 301.468 101.92C301.799 102.069 302.06 102.288 302.252 102.576C302.455 102.853 302.556 103.221 302.556 103.68C302.556 104.171 302.417 104.597 302.14 104.96C301.873 105.312 301.479 105.589 300.956 105.792C300.444 105.984 299.82 106.08 299.084 106.08ZM306.897 106.08C306.203 106.08 305.547 105.984 304.929 105.792C304.31 105.589 303.825 105.339 303.473 105.04L303.985 104.144C304.326 104.4 304.763 104.624 305.297 104.816C305.83 104.997 306.39 105.088 306.977 105.088C307.777 105.088 308.353 104.965 308.705 104.72C309.057 104.464 309.233 104.128 309.233 103.712C309.233 103.403 309.131 103.163 308.929 102.992C308.737 102.811 308.481 102.677 308.161 102.592C307.841 102.496 307.483 102.416 307.089 102.352C306.694 102.288 306.299 102.213 305.905 102.128C305.521 102.043 305.169 101.92 304.849 101.76C304.529 101.589 304.267 101.36 304.065 101.072C303.873 100.784 303.777 100.4 303.777 99.92C303.777 99.4613 303.905 99.0507 304.161 98.688C304.417 98.3253 304.79 98.0427 305.281 97.84C305.782 97.6267 306.39 97.52 307.105 97.52C307.649 97.52 308.193 97.5947 308.737 97.744C309.281 97.8827 309.729 98.0693 310.081 98.304L309.585 99.216C309.211 98.96 308.811 98.7787 308.385 98.672C307.958 98.5547 307.531 98.496 307.105 98.496C306.347 98.496 305.787 98.6293 305.425 98.896C305.073 99.152 304.897 99.4827 304.897 99.888C304.897 100.208 304.993 100.459 305.185 100.64C305.387 100.821 305.649 100.965 305.969 101.072C306.299 101.168 306.657 101.248 307.041 101.312C307.435 101.376 307.825 101.456 308.209 101.552C308.603 101.637 308.961 101.76 309.281 101.92C309.611 102.069 309.873 102.288 310.065 102.576C310.267 102.853 310.369 103.221 310.369 103.68C310.369 104.171 310.23 104.597 309.953 104.96C309.686 105.312 309.291 105.589 308.769 105.792C308.257 105.984 307.633 106.08 306.897 106.08ZM312.453 106V97.6H313.589V106H312.453ZM313.029 95.744C312.794 95.744 312.597 95.664 312.437 95.504C312.277 95.344 312.197 95.152 312.197 94.928C312.197 94.704 312.277 94.5173 312.437 94.368C312.597 94.208 312.794 94.128 313.029 94.128C313.264 94.128 313.461 94.2027 313.621 94.352C313.781 94.5013 313.861 94.688 313.861 94.912C313.861 95.1467 313.781 95.344 313.621 95.504C313.472 95.664 313.274 95.744 313.029 95.744ZM321.086 106.08C320.35 106.08 319.689 105.915 319.102 105.584C318.515 105.243 318.051 104.752 317.71 104.112C317.369 103.472 317.198 102.699 317.198 101.792C317.198 100.875 317.369 100.101 317.71 99.472C318.062 98.832 318.531 98.3467 319.118 98.016C319.705 97.6853 320.361 97.52 321.086 97.52C321.886 97.52 322.601 97.7013 323.23 98.064C323.87 98.416 324.371 98.912 324.734 99.552C325.097 100.192 325.278 100.939 325.278 101.792C325.278 102.635 325.097 103.381 324.734 104.032C324.371 104.672 323.87 105.173 323.23 105.536C322.601 105.899 321.886 106.08 321.086 106.08ZM316.75 106V94.128H317.886V100.08L317.726 101.776L317.838 103.472V106H316.75ZM321.006 105.072C321.603 105.072 322.137 104.939 322.606 104.672C323.075 104.395 323.449 104.011 323.726 103.52C324.003 103.019 324.142 102.443 324.142 101.792C324.142 101.131 324.003 100.555 323.726 100.064C323.449 99.5733 323.075 99.1947 322.606 98.928C322.137 98.6507 321.603 98.512 321.006 98.512C320.409 98.512 319.87 98.6507 319.39 98.928C318.921 99.1947 318.547 99.5733 318.27 100.064C318.003 100.555 317.87 101.131 317.87 101.792C317.87 102.443 318.003 103.019 318.27 103.52C318.547 104.011 318.921 104.395 319.39 104.672C319.87 104.939 320.409 105.072 321.006 105.072ZM327.594 106V97.6H328.73V106H327.594ZM328.17 95.744C327.935 95.744 327.738 95.664 327.578 95.504C327.418 95.344 327.338 95.152 327.338 94.928C327.338 94.704 327.418 94.5173 327.578 94.368C327.738 94.208 327.935 94.128 328.17 94.128C328.404 94.128 328.602 94.2027 328.762 94.352C328.922 94.5013 329.002 94.688 329.002 94.912C329.002 95.1467 328.922 95.344 328.762 95.504C328.612 95.664 328.415 95.744 328.17 95.744ZM331.891 106V94.128H333.027V106H331.891ZM336.188 106V97.6H337.324V106H336.188ZM336.764 95.744C336.529 95.744 336.332 95.664 336.172 95.504C336.012 95.344 335.932 95.152 335.932 94.928C335.932 94.704 336.012 94.5173 336.172 94.368C336.332 94.208 336.529 94.128 336.764 94.128C336.998 94.128 337.196 94.2027 337.356 94.352C337.516 94.5013 337.596 94.688 337.596 94.912C337.596 95.1467 337.516 95.344 337.356 95.504C337.206 95.664 337.009 95.744 336.764 95.744ZM343.828 106.08C343.028 106.08 342.308 105.899 341.668 105.536C341.039 105.173 340.543 104.672 340.18 104.032C339.818 103.381 339.636 102.635 339.636 101.792C339.636 100.939 339.818 100.192 340.18 99.552C340.543 98.912 341.039 98.416 341.668 98.064C342.308 97.7013 343.028 97.52 343.828 97.52C344.564 97.52 345.22 97.6853 345.796 98.016C346.383 98.3467 346.847 98.832 347.188 99.472C347.54 100.101 347.716 100.875 347.716 101.792C347.716 102.699 347.546 103.472 347.204 104.112C346.863 104.752 346.399 105.243 345.812 105.584C345.236 105.915 344.575 106.08 343.828 106.08ZM343.908 105.072C344.506 105.072 345.039 104.939 345.508 104.672C345.988 104.395 346.362 104.011 346.628 103.52C346.906 103.019 347.044 102.443 347.044 101.792C347.044 101.131 346.906 100.555 346.628 100.064C346.362 99.5733 345.988 99.1947 345.508 98.928C345.039 98.6507 344.506 98.512 343.908 98.512C343.322 98.512 342.794 98.6507 342.324 98.928C341.855 99.1947 341.482 99.5733 341.204 100.064C340.927 100.555 340.788 101.131 340.788 101.792C340.788 102.443 340.927 103.019 341.204 103.52C341.482 104.011 341.855 104.395 342.324 104.672C342.794 104.939 343.322 105.072 343.908 105.072ZM347.076 106V103.472L347.188 101.776L347.028 100.08V94.128H348.164V106H347.076ZM356.592 106V104.144L356.544 103.84V100.736C356.544 100.021 356.341 99.472 355.936 99.088C355.541 98.704 354.949 98.512 354.16 98.512C353.616 98.512 353.099 98.6027 352.608 98.784C352.117 98.9653 351.701 99.2053 351.36 99.504L350.848 98.656C351.275 98.2933 351.787 98.016 352.384 97.824C352.981 97.6213 353.611 97.52 354.272 97.52C355.36 97.52 356.197 97.792 356.784 98.336C357.381 98.8693 357.68 99.6853 357.68 100.784V106H356.592ZM353.696 106.08C353.067 106.08 352.517 105.979 352.048 105.776C351.589 105.563 351.237 105.275 350.992 104.912C350.747 104.539 350.624 104.112 350.624 103.632C350.624 103.195 350.725 102.8 350.928 102.448C351.141 102.085 351.483 101.797 351.952 101.584C352.432 101.36 353.072 101.248 353.872 101.248H356.768V102.096H353.904C353.093 102.096 352.528 102.24 352.208 102.528C351.899 102.816 351.744 103.173 351.744 103.6C351.744 104.08 351.931 104.464 352.304 104.752C352.677 105.04 353.2 105.184 353.872 105.184C354.512 105.184 355.061 105.04 355.52 104.752C355.989 104.453 356.331 104.027 356.544 103.472L356.8 104.256C356.587 104.811 356.213 105.253 355.68 105.584C355.157 105.915 354.496 106.08 353.696 106.08ZM364.11 106.08C363.31 106.08 362.59 105.899 361.95 105.536C361.32 105.173 360.824 104.672 360.462 104.032C360.099 103.381 359.918 102.635 359.918 101.792C359.918 100.939 360.099 100.192 360.462 99.552C360.824 98.912 361.32 98.416 361.95 98.064C362.59 97.7013 363.31 97.52 364.11 97.52C364.846 97.52 365.502 97.6853 366.078 98.016C366.664 98.3467 367.128 98.832 367.47 99.472C367.822 100.101 367.998 100.875 367.998 101.792C367.998 102.699 367.827 103.472 367.486 104.112C367.144 104.752 366.68 105.243 366.094 105.584C365.518 105.915 364.856 106.08 364.11 106.08ZM364.19 105.072C364.787 105.072 365.32 104.939 365.79 104.672C366.27 104.395 366.643 104.011 366.91 103.52C367.187 103.019 367.326 102.443 367.326 101.792C367.326 101.131 367.187 100.555 366.91 100.064C366.643 99.5733 366.27 99.1947 365.79 98.928C365.32 98.6507 364.787 98.512 364.19 98.512C363.603 98.512 363.075 98.6507 362.606 98.928C362.136 99.1947 361.763 99.5733 361.486 100.064C361.208 100.555 361.07 101.131 361.07 101.792C361.07 102.443 361.208 103.019 361.486 103.52C361.763 104.011 362.136 104.395 362.606 104.672C363.075 104.939 363.603 105.072 364.19 105.072ZM367.358 106V103.472L367.47 101.776L367.31 100.08V94.128H368.446V106H367.358ZM375.177 106.08C374.303 106.08 373.535 105.899 372.873 105.536C372.212 105.163 371.695 104.656 371.321 104.016C370.948 103.365 370.761 102.624 370.761 101.792C370.761 100.96 370.937 100.224 371.289 99.584C371.652 98.944 372.143 98.4427 372.761 98.08C373.391 97.7067 374.095 97.52 374.873 97.52C375.663 97.52 376.361 97.7013 376.969 98.064C377.588 98.416 378.073 98.9173 378.425 99.568C378.777 100.208 378.953 100.949 378.953 101.792C378.953 101.845 378.948 101.904 378.937 101.968C378.937 102.021 378.937 102.08 378.937 102.144H371.625V101.296H378.329L377.881 101.632C377.881 101.024 377.748 100.485 377.481 100.016C377.225 99.536 376.873 99.1627 376.425 98.896C375.977 98.6293 375.46 98.496 374.873 98.496C374.297 98.496 373.78 98.6293 373.321 98.896C372.863 99.1627 372.505 99.536 372.249 100.016C371.993 100.496 371.865 101.045 371.865 101.664V101.84C371.865 102.48 372.004 103.045 372.281 103.536C372.569 104.016 372.964 104.395 373.465 104.672C373.977 104.939 374.559 105.072 375.209 105.072C375.721 105.072 376.196 104.981 376.633 104.8C377.081 104.619 377.465 104.341 377.785 103.968L378.425 104.704C378.052 105.152 377.583 105.493 377.017 105.728C376.463 105.963 375.849 106.08 375.177 106.08ZM383.522 106.08C382.828 106.08 382.172 105.984 381.554 105.792C380.935 105.589 380.45 105.339 380.098 105.04L380.61 104.144C380.951 104.4 381.388 104.624 381.922 104.816C382.455 104.997 383.015 105.088 383.602 105.088C384.402 105.088 384.978 104.965 385.33 104.72C385.682 104.464 385.858 104.128 385.858 103.712C385.858 103.403 385.756 103.163 385.554 102.992C385.362 102.811 385.106 102.677 384.786 102.592C384.466 102.496 384.108 102.416 383.714 102.352C383.319 102.288 382.924 102.213 382.53 102.128C382.146 102.043 381.794 101.92 381.474 101.76C381.154 101.589 380.892 101.36 380.69 101.072C380.498 100.784 380.402 100.4 380.402 99.92C380.402 99.4613 380.53 99.0507 380.786 98.688C381.042 98.3253 381.415 98.0427 381.906 97.84C382.407 97.6267 383.015 97.52 383.73 97.52C384.274 97.52 384.818 97.5947 385.362 97.744C385.906 97.8827 386.354 98.0693 386.706 98.304L386.21 99.216C385.836 98.96 385.436 98.7787 385.01 98.672C384.583 98.5547 384.156 98.496 383.73 98.496C382.972 98.496 382.412 98.6293 382.05 98.896C381.698 99.152 381.522 99.4827 381.522 99.888C381.522 100.208 381.618 100.459 381.81 100.64C382.012 100.821 382.274 100.965 382.594 101.072C382.924 101.168 383.282 101.248 383.666 101.312C384.06 101.376 384.45 101.456 384.834 101.552C385.228 101.637 385.586 101.76 385.906 101.92C386.236 102.069 386.498 102.288 386.69 102.576C386.892 102.853 386.994 103.221 386.994 103.68C386.994 104.171 386.855 104.597 386.578 104.96C386.311 105.312 385.916 105.589 385.394 105.792C384.882 105.984 384.258 106.08 383.522 106.08ZM397.602 106.08C396.876 106.08 396.22 105.915 395.634 105.584C395.047 105.243 394.578 104.757 394.226 104.128C393.884 103.488 393.714 102.709 393.714 101.792C393.714 100.875 393.884 100.101 394.226 99.472C394.567 98.832 395.031 98.3467 395.618 98.016C396.204 97.6853 396.866 97.52 397.602 97.52C398.402 97.52 399.116 97.7013 399.746 98.064C400.386 98.416 400.887 98.9173 401.25 99.568C401.612 100.208 401.794 100.949 401.794 101.792C401.794 102.645 401.612 103.392 401.25 104.032C400.887 104.672 400.386 105.173 399.746 105.536C399.116 105.899 398.402 106.08 397.602 106.08ZM393.266 109.104V97.6H394.354V100.128L394.242 101.808L394.402 103.504V109.104H393.266ZM397.522 105.072C398.119 105.072 398.652 104.939 399.122 104.672C399.591 104.395 399.964 104.011 400.242 103.52C400.519 103.019 400.658 102.443 400.658 101.792C400.658 101.141 400.519 100.571 400.242 100.08C399.964 99.5893 399.591 99.2053 399.122 98.928C398.652 98.6507 398.119 98.512 397.522 98.512C396.924 98.512 396.386 98.6507 395.906 98.928C395.436 99.2053 395.063 99.5893 394.786 100.08C394.519 100.571 394.386 101.141 394.386 101.792C394.386 102.443 394.519 103.019 394.786 103.52C395.063 104.011 395.436 104.395 395.906 104.672C396.386 104.939 396.924 105.072 397.522 105.072ZM409.327 106V104.144L409.279 103.84V100.736C409.279 100.021 409.076 99.472 408.671 99.088C408.276 98.704 407.684 98.512 406.895 98.512C406.351 98.512 405.833 98.6027 405.343 98.784C404.852 98.9653 404.436 99.2053 404.095 99.504L403.583 98.656C404.009 98.2933 404.521 98.016 405.119 97.824C405.716 97.6213 406.345 97.52 407.007 97.52C408.095 97.52 408.932 97.792 409.519 98.336C410.116 98.8693 410.415 99.6853 410.415 100.784V106H409.327ZM406.431 106.08C405.801 106.08 405.252 105.979 404.783 105.776C404.324 105.563 403.972 105.275 403.727 104.912C403.481 104.539 403.359 104.112 403.359 103.632C403.359 103.195 403.46 102.8 403.663 102.448C403.876 102.085 404.217 101.797 404.687 101.584C405.167 101.36 405.807 101.248 406.607 101.248H409.503V102.096H406.639C405.828 102.096 405.263 102.24 404.943 102.528C404.633 102.816 404.479 103.173 404.479 103.6C404.479 104.08 404.665 104.464 405.039 104.752C405.412 105.04 405.935 105.184 406.607 105.184C407.247 105.184 407.796 105.04 408.255 104.752C408.724 104.453 409.065 104.027 409.279 103.472L409.535 104.256C409.321 104.811 408.948 105.253 408.415 105.584C407.892 105.915 407.231 106.08 406.431 106.08ZM413.5 106V97.6H414.588V99.888L414.476 99.488C414.711 98.848 415.105 98.3627 415.66 98.032C416.215 97.6907 416.903 97.52 417.724 97.52V98.624C417.681 98.624 417.639 98.624 417.596 98.624C417.553 98.6133 417.511 98.608 417.468 98.608C416.583 98.608 415.889 98.88 415.388 99.424C414.887 99.9573 414.636 100.72 414.636 101.712V106H413.5ZM424.436 106V104.144L424.388 103.84V100.736C424.388 100.021 424.185 99.472 423.78 99.088C423.385 98.704 422.793 98.512 422.004 98.512C421.46 98.512 420.943 98.6027 420.452 98.784C419.961 98.9653 419.545 99.2053 419.204 99.504L418.692 98.656C419.119 98.2933 419.631 98.016 420.228 97.824C420.825 97.6213 421.455 97.52 422.116 97.52C423.204 97.52 424.041 97.792 424.628 98.336C425.225 98.8693 425.524 99.6853 425.524 100.784V106H424.436ZM421.54 106.08C420.911 106.08 420.361 105.979 419.892 105.776C419.433 105.563 419.081 105.275 418.836 104.912C418.591 104.539 418.468 104.112 418.468 103.632C418.468 103.195 418.569 102.8 418.772 102.448C418.985 102.085 419.327 101.797 419.796 101.584C420.276 101.36 420.916 101.248 421.716 101.248H424.612V102.096H421.748C420.937 102.096 420.372 102.24 420.052 102.528C419.743 102.816 419.588 103.173 419.588 103.6C419.588 104.08 419.775 104.464 420.148 104.752C420.521 105.04 421.044 105.184 421.716 105.184C422.356 105.184 422.905 105.04 423.364 104.752C423.833 104.453 424.175 104.027 424.388 103.472L424.644 104.256C424.431 104.811 424.057 105.253 423.524 105.584C423.001 105.915 422.34 106.08 421.54 106.08ZM436.221 106.08C435.41 106.08 434.68 105.899 434.029 105.536C433.389 105.163 432.882 104.656 432.509 104.016C432.136 103.365 431.949 102.624 431.949 101.792C431.949 100.949 432.136 100.208 432.509 99.568C432.882 98.928 433.389 98.4267 434.029 98.064C434.669 97.7013 435.4 97.52 436.221 97.52C437.053 97.52 437.789 97.7013 438.429 98.064C439.08 98.4267 439.586 98.928 439.949 99.568C440.322 100.208 440.509 100.949 440.509 101.792C440.509 102.624 440.322 103.365 439.949 104.016C439.586 104.656 439.08 105.163 438.429 105.536C437.778 105.899 437.042 106.08 436.221 106.08ZM436.221 105.072C436.829 105.072 437.368 104.939 437.837 104.672C438.306 104.395 438.674 104.011 438.941 103.52C439.218 103.019 439.357 102.443 439.357 101.792C439.357 101.131 439.218 100.555 438.941 100.064C438.674 99.5733 438.306 99.1947 437.837 98.928C437.368 98.6507 436.834 98.512 436.237 98.512C435.64 98.512 435.106 98.6507 434.637 98.928C434.168 99.1947 433.794 99.5733 433.517 100.064C433.24 100.555 433.101 101.131 433.101 101.792C433.101 102.443 433.24 103.019 433.517 103.52C433.794 104.011 434.168 104.395 434.637 104.672C435.106 104.939 435.634 105.072 436.221 105.072ZM449.272 106.08C448.578 106.08 447.922 105.984 447.304 105.792C446.685 105.589 446.2 105.339 445.848 105.04L446.36 104.144C446.701 104.4 447.138 104.624 447.672 104.816C448.205 104.997 448.765 105.088 449.352 105.088C450.152 105.088 450.728 104.965 451.08 104.72C451.432 104.464 451.608 104.128 451.608 103.712C451.608 103.403 451.506 103.163 451.304 102.992C451.112 102.811 450.856 102.677 450.536 102.592C450.216 102.496 449.858 102.416 449.464 102.352C449.069 102.288 448.674 102.213 448.28 102.128C447.896 102.043 447.544 101.92 447.224 101.76C446.904 101.589 446.642 101.36 446.44 101.072C446.248 100.784 446.152 100.4 446.152 99.92C446.152 99.4613 446.28 99.0507 446.536 98.688C446.792 98.3253 447.165 98.0427 447.656 97.84C448.157 97.6267 448.765 97.52 449.48 97.52C450.024 97.52 450.568 97.5947 451.112 97.744C451.656 97.8827 452.104 98.0693 452.456 98.304L451.96 99.216C451.586 98.96 451.186 98.7787 450.76 98.672C450.333 98.5547 449.906 98.496 449.48 98.496C448.722 98.496 448.162 98.6293 447.8 98.896C447.448 99.152 447.272 99.4827 447.272 99.888C447.272 100.208 447.368 100.459 447.56 100.64C447.762 100.821 448.024 100.965 448.344 101.072C448.674 101.168 449.032 101.248 449.416 101.312C449.81 101.376 450.2 101.456 450.584 101.552C450.978 101.637 451.336 101.76 451.656 101.92C451.986 102.069 452.248 102.288 452.44 102.576C452.642 102.853 452.744 103.221 452.744 103.68C452.744 104.171 452.605 104.597 452.328 104.96C452.061 105.312 451.666 105.589 451.144 105.792C450.632 105.984 450.008 106.08 449.272 106.08ZM458.396 106.08C457.521 106.08 456.753 105.899 456.092 105.536C455.431 105.163 454.913 104.656 454.54 104.016C454.167 103.365 453.98 102.624 453.98 101.792C453.98 100.96 454.156 100.224 454.508 99.584C454.871 98.944 455.361 98.4427 455.98 98.08C456.609 97.7067 457.313 97.52 458.092 97.52C458.881 97.52 459.58 97.7013 460.188 98.064C460.807 98.416 461.292 98.9173 461.644 99.568C461.996 100.208 462.172 100.949 462.172 101.792C462.172 101.845 462.167 101.904 462.156 101.968C462.156 102.021 462.156 102.08 462.156 102.144H454.844V101.296H461.548L461.1 101.632C461.1 101.024 460.967 100.485 460.7 100.016C460.444 99.536 460.092 99.1627 459.644 98.896C459.196 98.6293 458.679 98.496 458.092 98.496C457.516 98.496 456.999 98.6293 456.54 98.896C456.081 99.1627 455.724 99.536 455.468 100.016C455.212 100.496 455.084 101.045 455.084 101.664V101.84C455.084 102.48 455.223 103.045 455.5 103.536C455.788 104.016 456.183 104.395 456.684 104.672C457.196 104.939 457.777 105.072 458.428 105.072C458.94 105.072 459.415 104.981 459.852 104.8C460.3 104.619 460.684 104.341 461.004 103.968L461.644 104.704C461.271 105.152 460.801 105.493 460.236 105.728C459.681 105.963 459.068 106.08 458.396 106.08ZM467.956 106.08C467.242 106.08 466.618 105.947 466.084 105.68C465.551 105.413 465.135 105.013 464.836 104.48C464.548 103.947 464.404 103.28 464.404 102.48V97.6H465.54V102.352C465.54 103.248 465.759 103.925 466.196 104.384C466.644 104.832 467.268 105.056 468.068 105.056C468.655 105.056 469.162 104.939 469.588 104.704C470.026 104.459 470.356 104.107 470.58 103.648C470.815 103.189 470.932 102.64 470.932 102V97.6H472.068V106H470.98V103.696L471.156 104.112C470.89 104.731 470.474 105.216 469.908 105.568C469.354 105.909 468.703 106.08 467.956 106.08ZM280.289 128.08C279.564 128.08 278.908 127.915 278.321 127.584C277.734 127.243 277.265 126.757 276.913 126.128C276.572 125.488 276.401 124.709 276.401 123.792C276.401 122.875 276.572 122.101 276.913 121.472C277.254 120.832 277.718 120.347 278.305 120.016C278.892 119.685 279.553 119.52 280.289 119.52C281.089 119.52 281.804 119.701 282.433 120.064C283.073 120.416 283.574 120.917 283.937 121.568C284.3 122.208 284.481 122.949 284.481 123.792C284.481 124.645 284.3 125.392 283.937 126.032C283.574 126.672 283.073 127.173 282.433 127.536C281.804 127.899 281.089 128.08 280.289 128.08ZM275.953 131.104V119.6H277.041V122.128L276.929 123.808L277.089 125.504V131.104H275.953ZM280.209 127.072C280.806 127.072 281.34 126.939 281.809 126.672C282.278 126.395 282.652 126.011 282.929 125.52C283.206 125.019 283.345 124.443 283.345 123.792C283.345 123.141 283.206 122.571 282.929 122.08C282.652 121.589 282.278 121.205 281.809 120.928C281.34 120.651 280.806 120.512 280.209 120.512C279.612 120.512 279.073 120.651 278.593 120.928C278.124 121.205 277.75 121.589 277.473 122.08C277.206 122.571 277.073 123.141 277.073 123.792C277.073 124.443 277.206 125.019 277.473 125.52C277.75 126.011 278.124 126.395 278.593 126.672C279.073 126.939 279.612 127.072 280.209 127.072ZM286.797 128V119.6H287.885V121.888L287.773 121.488C288.008 120.848 288.402 120.363 288.957 120.032C289.512 119.691 290.2 119.52 291.021 119.52V120.624C290.978 120.624 290.936 120.624 290.893 120.624C290.85 120.613 290.808 120.608 290.765 120.608C289.88 120.608 289.186 120.88 288.685 121.424C288.184 121.957 287.933 122.72 287.933 123.712V128H286.797ZM296.44 128.08C295.629 128.08 294.898 127.899 294.248 127.536C293.608 127.163 293.101 126.656 292.728 126.016C292.354 125.365 292.168 124.624 292.168 123.792C292.168 122.949 292.354 122.208 292.728 121.568C293.101 120.928 293.608 120.427 294.248 120.064C294.888 119.701 295.618 119.52 296.44 119.52C297.272 119.52 298.008 119.701 298.648 120.064C299.298 120.427 299.805 120.928 300.168 121.568C300.541 122.208 300.728 122.949 300.728 123.792C300.728 124.624 300.541 125.365 300.168 126.016C299.805 126.656 299.298 127.163 298.648 127.536C297.997 127.899 297.261 128.08 296.44 128.08ZM296.44 127.072C297.048 127.072 297.586 126.939 298.056 126.672C298.525 126.395 298.893 126.011 299.16 125.52C299.437 125.019 299.576 124.443 299.576 123.792C299.576 123.131 299.437 122.555 299.16 122.064C298.893 121.573 298.525 121.195 298.056 120.928C297.586 120.651 297.053 120.512 296.456 120.512C295.858 120.512 295.325 120.651 294.856 120.928C294.386 121.195 294.013 121.573 293.736 122.064C293.458 122.555 293.32 123.131 293.32 123.792C293.32 124.443 293.458 125.019 293.736 125.52C294.013 126.011 294.386 126.395 294.856 126.672C295.325 126.939 295.853 127.072 296.44 127.072ZM295.4 118.288L297.592 116.304H299.112L296.52 118.288H295.4ZM301.47 128L305.022 123.392L305.006 123.952L301.63 119.6H302.91L305.678 123.2L305.198 123.184L307.966 119.6H309.214L305.806 124L305.822 123.392L309.406 128H308.11L305.182 124.16L305.63 124.224L302.75 128H301.47ZM311.297 128V119.6H312.433V128H311.297ZM311.873 117.744C311.638 117.744 311.441 117.664 311.281 117.504C311.121 117.344 311.041 117.152 311.041 116.928C311.041 116.704 311.121 116.517 311.281 116.368C311.441 116.208 311.638 116.128 311.873 116.128C312.108 116.128 312.305 116.203 312.465 116.352C312.625 116.501 312.705 116.688 312.705 116.912C312.705 117.147 312.625 117.344 312.465 117.504C312.316 117.664 312.118 117.744 311.873 117.744ZM326.09 119.52C326.772 119.52 327.364 119.653 327.866 119.92C328.378 120.176 328.772 120.571 329.05 121.104C329.338 121.637 329.482 122.309 329.482 123.12V128H328.346V123.232C328.346 122.347 328.132 121.68 327.706 121.232C327.29 120.773 326.698 120.544 325.93 120.544C325.354 120.544 324.852 120.667 324.426 120.912C324.01 121.147 323.684 121.493 323.45 121.952C323.226 122.4 323.114 122.944 323.114 123.584V128H321.978V123.232C321.978 122.347 321.764 121.68 321.338 121.232C320.911 120.773 320.314 120.544 319.546 120.544C318.98 120.544 318.484 120.667 318.058 120.912C317.631 121.147 317.3 121.493 317.066 121.952C316.842 122.4 316.73 122.944 316.73 123.584V128H315.594V119.6H316.682V121.872L316.506 121.472C316.762 120.864 317.172 120.389 317.738 120.048C318.314 119.696 318.991 119.52 319.77 119.52C320.591 119.52 321.29 119.728 321.866 120.144C322.442 120.549 322.815 121.163 322.986 121.984L322.538 121.808C322.783 121.125 323.215 120.576 323.834 120.16C324.463 119.733 325.215 119.52 326.09 119.52ZM335.987 128.08C335.176 128.08 334.445 127.899 333.795 127.536C333.155 127.163 332.648 126.656 332.275 126.016C331.901 125.365 331.715 124.624 331.715 123.792C331.715 122.949 331.901 122.208 332.275 121.568C332.648 120.928 333.155 120.427 333.795 120.064C334.435 119.701 335.165 119.52 335.987 119.52C336.819 119.52 337.555 119.701 338.195 120.064C338.845 120.427 339.352 120.928 339.715 121.568C340.088 122.208 340.275 122.949 340.275 123.792C340.275 124.624 340.088 125.365 339.715 126.016C339.352 126.656 338.845 127.163 338.195 127.536C337.544 127.899 336.808 128.08 335.987 128.08ZM335.987 127.072C336.595 127.072 337.133 126.939 337.603 126.672C338.072 126.395 338.44 126.011 338.707 125.52C338.984 125.019 339.123 124.443 339.123 123.792C339.123 123.131 338.984 122.555 338.707 122.064C338.44 121.573 338.072 121.195 337.603 120.928C337.133 120.651 336.6 120.512 336.003 120.512C335.405 120.512 334.872 120.651 334.403 120.928C333.933 121.195 333.56 121.573 333.283 122.064C333.005 122.555 332.867 123.131 332.867 123.792C332.867 124.443 333.005 125.019 333.283 125.52C333.56 126.011 333.933 126.395 334.403 126.672C334.872 126.939 335.4 127.072 335.987 127.072ZM350.349 128.08C349.475 128.08 348.707 127.899 348.045 127.536C347.384 127.163 346.867 126.656 346.493 126.016C346.12 125.365 345.933 124.624 345.933 123.792C345.933 122.96 346.109 122.224 346.461 121.584C346.824 120.944 347.315 120.443 347.933 120.08C348.563 119.707 349.267 119.52 350.045 119.52C350.835 119.52 351.533 119.701 352.141 120.064C352.76 120.416 353.245 120.917 353.597 121.568C353.949 122.208 354.125 122.949 354.125 123.792C354.125 123.845 354.12 123.904 354.109 123.968C354.109 124.021 354.109 124.08 354.109 124.144H346.797V123.296H353.501L353.053 123.632C353.053 123.024 352.92 122.485 352.653 122.016C352.397 121.536 352.045 121.163 351.597 120.896C351.149 120.629 350.632 120.496 350.045 120.496C349.469 120.496 348.952 120.629 348.493 120.896C348.035 121.163 347.677 121.536 347.421 122.016C347.165 122.496 347.037 123.045 347.037 123.664V123.84C347.037 124.48 347.176 125.045 347.453 125.536C347.741 126.016 348.136 126.395 348.637 126.672C349.149 126.939 349.731 127.072 350.381 127.072C350.893 127.072 351.368 126.981 351.805 126.8C352.253 126.619 352.637 126.341 352.957 125.968L353.597 126.704C353.224 127.152 352.755 127.493 352.189 127.728C351.635 127.963 351.021 128.08 350.349 128.08ZM358.441 128L354.713 119.6H355.897L359.321 127.392H358.761L362.233 119.6H363.353L359.609 128H358.441ZM368.287 128.08C367.412 128.08 366.644 127.899 365.983 127.536C365.321 127.163 364.804 126.656 364.431 126.016C364.057 125.365 363.871 124.624 363.871 123.792C363.871 122.96 364.047 122.224 364.399 121.584C364.761 120.944 365.252 120.443 365.871 120.08C366.5 119.707 367.204 119.52 367.983 119.52C368.772 119.52 369.471 119.701 370.079 120.064C370.697 120.416 371.183 120.917 371.535 121.568C371.887 122.208 372.063 122.949 372.063 123.792C372.063 123.845 372.057 123.904 372.047 123.968C372.047 124.021 372.047 124.08 372.047 124.144H364.735V123.296H371.439L370.991 123.632C370.991 123.024 370.857 122.485 370.591 122.016C370.335 121.536 369.983 121.163 369.535 120.896C369.087 120.629 368.569 120.496 367.983 120.496C367.407 120.496 366.889 120.629 366.431 120.896C365.972 121.163 365.615 121.536 365.359 122.016C365.103 122.496 364.975 123.045 364.975 123.664V123.84C364.975 124.48 365.113 125.045 365.391 125.536C365.679 126.016 366.073 126.395 366.575 126.672C367.087 126.939 367.668 127.072 368.319 127.072C368.831 127.072 369.305 126.981 369.743 126.8C370.191 126.619 370.575 126.341 370.895 125.968L371.535 126.704C371.161 127.152 370.692 127.493 370.127 127.728C369.572 127.963 368.959 128.08 368.287 128.08ZM378.663 119.52C379.346 119.52 379.943 119.653 380.455 119.92C380.978 120.176 381.383 120.571 381.671 121.104C381.97 121.637 382.119 122.309 382.119 123.12V128H380.983V123.232C380.983 122.347 380.759 121.68 380.311 121.232C379.874 120.773 379.255 120.544 378.455 120.544C377.858 120.544 377.335 120.667 376.887 120.912C376.45 121.147 376.108 121.493 375.863 121.952C375.628 122.4 375.511 122.944 375.511 123.584V128H374.375V119.6H375.463V121.904L375.287 121.472C375.554 120.864 375.98 120.389 376.567 120.048C377.154 119.696 377.852 119.52 378.663 119.52ZM387.844 128.08C387.054 128.08 386.446 127.867 386.02 127.44C385.593 127.013 385.38 126.411 385.38 125.632V117.744H386.516V125.568C386.516 126.059 386.638 126.437 386.884 126.704C387.14 126.971 387.502 127.104 387.972 127.104C388.473 127.104 388.889 126.96 389.22 126.672L389.62 127.488C389.396 127.691 389.124 127.84 388.804 127.936C388.494 128.032 388.174 128.08 387.844 128.08ZM383.876 120.544V119.6H389.076V120.544H383.876ZM394.815 128.08C394.004 128.08 393.273 127.899 392.623 127.536C391.983 127.163 391.476 126.656 391.103 126.016C390.729 125.365 390.543 124.624 390.543 123.792C390.543 122.949 390.729 122.208 391.103 121.568C391.476 120.928 391.983 120.427 392.623 120.064C393.263 119.701 393.993 119.52 394.815 119.52C395.647 119.52 396.383 119.701 397.023 120.064C397.673 120.427 398.18 120.928 398.543 121.568C398.916 122.208 399.103 122.949 399.103 123.792C399.103 124.624 398.916 125.365 398.543 126.016C398.18 126.656 397.673 127.163 397.023 127.536C396.372 127.899 395.636 128.08 394.815 128.08ZM394.815 127.072C395.423 127.072 395.961 126.939 396.431 126.672C396.9 126.395 397.268 126.011 397.535 125.52C397.812 125.019 397.951 124.443 397.951 123.792C397.951 123.131 397.812 122.555 397.535 122.064C397.268 121.573 396.9 121.195 396.431 120.928C395.961 120.651 395.428 120.512 394.831 120.512C394.233 120.512 393.7 120.651 393.231 120.928C392.761 121.195 392.388 121.573 392.111 122.064C391.833 122.555 391.695 123.131 391.695 123.792C391.695 124.443 391.833 125.019 392.111 125.52C392.388 126.011 392.761 126.395 393.231 126.672C393.7 126.939 394.228 127.072 394.815 127.072ZM401.3 128.08C401.065 128.08 400.862 127.995 400.692 127.824C400.532 127.653 400.452 127.445 400.452 127.2C400.452 126.944 400.532 126.736 400.692 126.576C400.862 126.416 401.065 126.336 401.3 126.336C401.534 126.336 401.732 126.416 401.892 126.576C402.062 126.736 402.148 126.944 402.148 127.2C402.148 127.445 402.062 127.653 401.892 127.824C401.732 127.995 401.534 128.08 401.3 128.08Z" fill="#F1F0F5"/>
<path d="M566.354 100.354C566.549 100.158 566.549 99.8417 566.354 99.6464L563.172 96.4645C562.976 96.2692 562.66 96.2692 562.464 96.4645C562.269 96.6597 562.269 96.9763 562.464 97.1716L565.293 100L562.464 102.828C562.269 103.024 562.269 103.34 562.464 103.536C562.66 103.731 562.976 103.731 563.172 103.536L566.354 100.354ZM536 100.5H566V99.5H536V100.5Z" fill="white"/>
</svg>
